<?xml version="1.0" standalone="no"?>
<!DOCTYPE svg PUBLIC "-//W3C//DTD SVG 1.1//EN" "http://www.w3.org/Graphics/SVG/1.1/DTD/svg11.dtd" >
<svg xmlns="http://www.w3.org/2000/svg" xmlns:xlink="http://www.w3.org/1999/xlink" version="1.1">
<metadata>
Created by FontForge 20170731 at Mon Jun  6 16:26:41 2016
 By Aleksey,,,
2015 published by Monotype GmbH
</metadata>
<defs>
<font id="DINArabic" horiz-adv-x="321" >
  <font-face 
    font-family="DINArabic"
    font-weight="400"
    font-stretch="normal"
    units-per-em="1000"
    panose-1="2 11 5 4 2 2 1 1 1 4"
    ascent="759"
    descent="-241"
    x-height="492"
    cap-height="712"
    bbox="-178 -476 1855 1092"
    underline-thickness="51"
    underline-position="-189"
    unicode-range="U+000D-FEFF"
  />
<missing-glyph horiz-adv-x="562" 
d="M472 712v-712h-382v712h382zM421 661h-280v-610h280v610z" />
    <glyph glyph-name="allahar" unicode="&#x627;&#xfedf;&#xfee0;&#xfeea;" horiz-adv-x="1300" arabic-form="isolated" 
d="M692 891v-138l-40 -6v137zM627 578q-57 0 -57 66v48l37 7v-58q0 -25 25 -25q11 0 17.5 7t6.5 18v65l38 7v-62q0 -22 21 -22t21 22v68l38 8v-61q0 -76 -58 -76q-28 0 -41 16q-14 -28 -48 -28zM954 211v501h67v-503q0 -103 -31 -148q-41 -61 -135 -61h-46q-107 0 -142 82
q-34 -82 -133 -82h-40q-112 0 -149 95q-41 -55 -139 -55q-77 0 -121.5 43t-44.5 121q0 100 71 147q51 36 157 36h63v36h67v-228q0 -128 116 -128h9q118 0 118 117v364h67v-363q0 -56 26 -87t99 -31h5q72 0 95 32q21 28 21 112zM1163 712h67v-712h-67v712zM305 135
q26 24 26 98v87h-72q-76 0 -112 -25q-41 -30 -41 -89q0 -51 30.5 -76.5t80.5 -25.5q56 0 88 31z" />
    <glyph glyph-name="lam_alefMaddaar" unicode="&#xfedf;&#xfe82;" horiz-adv-x="504" arabic-form="isolated" 
d="M360 322l41 -45q63 -72 63 -137q0 -66 -45.5 -103t-126.5 -37h-252v51l229 263l-187 217l51 44l179 -210q50 66 50 156v191h66v-191q0 -65 -15 -108.5t-53 -90.5zM140 67h152q105 0 105 71q0 42 -50 100l-29 34zM179 671l27 -21q-24 -47 -73 -47q-31 0 -60 25
q-18 15 -34 15q-24 0 -42 -27l-28 25q31 43 72 43q31 0 59 -23q17 -17 38 -17q22 0 41 27z" />
    <glyph glyph-name="lam_alefMaddaar.fina" unicode="&#xfee0;&#xfe82;" horiz-adv-x="605" arabic-form="final" 
d="M602 67h23v-67h-40q-110 0 -148 85q-42 -85 -149 -85h-247v67h224l-143 472l64 18l145 -485q79 20 79 108v532h67v-530q0 -115 125 -115zM231 671l27 -21q-24 -47 -73 -47q-31 0 -60 25q-18 15 -34 15q-24 0 -42 -27l-28 25q31 43 72 43q31 0 59 -23q17 -17 38 -17
q22 0 41 27z" />
    <glyph glyph-name="lam_alefHamzaabovear" unicode="&#xfedf;&#xfe84;" horiz-adv-x="504" arabic-form="isolated" 
d="M360 322l41 -45q63 -72 63 -137q0 -66 -45.5 -103t-126.5 -37h-252v51l229 263l-187 217l51 44l179 -210q50 66 50 156v191h66v-191q0 -65 -15 -108.5t-53 -90.5zM140 67h152q105 0 105 71q0 42 -50 100l-29 34zM139 658l51 8v-39l-204 -35v39l70 12q-40 27 -40 71
q0 39 22 60.5t59 21.5q30 0 53 -18l-17 -33q-19 12 -36 12q-20 0 -31.5 -12.5t-11.5 -33.5q0 -29 22.5 -44.5t62.5 -8.5z" />
    <glyph glyph-name="lam_alefHamzaabovear.fina" unicode="&#xfee0;&#xfe84;" horiz-adv-x="605" arabic-form="final" 
d="M602 67h23v-67h-40q-110 0 -148 85q-42 -85 -149 -85h-247v67h224l-143 472l64 18l145 -485q79 20 79 108v532h67v-530q0 -115 125 -115zM191 658l51 8v-39l-204 -35v39l70 12q-40 27 -40 71q0 39 22 60.5t59 21.5q30 0 53 -18l-17 -33q-19 12 -36 12q-20 0 -31.5 -12.5
t-11.5 -33.5q0 -29 22.5 -44.5t62.5 -8.5z" />
    <glyph glyph-name="lam_alefHamzabelowar" unicode="&#xfedf;&#xfe88;" horiz-adv-x="504" arabic-form="isolated" 
d="M369 333l41 -60q29 -44 41.5 -71.5t12.5 -59.5q0 -67 -45.5 -104.5t-126.5 -37.5h-252v51l238 273l-201 285l54 38l190 -270q41 58 41 144v191h66v-191q0 -63 -13.5 -104.5t-45.5 -83.5zM140 67h152q105 0 105 72q0 35 -41 97l-33 48zM198 -212l51 8v-39l-204 -35v39
l70 12q-40 27 -40 71q0 39 22 60.5t59 21.5q30 0 53 -18l-17 -33q-19 12 -36 12q-20 0 -31.5 -12.5t-11.5 -33.5q0 -29 22.5 -44.5t62.5 -8.5z" />
    <glyph glyph-name="lam_alefHamzabelowar.fina" unicode="&#xfee0;&#xfe88;" horiz-adv-x="605" arabic-form="final" 
d="M602 67h23v-67h-40q-110 0 -148 85q-42 -85 -149 -85h-247v67h224l-171 560l65 18l172 -573q79 19 79 108v532h67v-530q0 -115 125 -115zM241 -212l51 8v-39l-204 -35v39l70 12q-40 27 -40 71q0 39 22 60.5t59 21.5q30 0 53 -18l-17 -33q-19 12 -36 12q-20 0 -31.5 -12.5
t-11.5 -33.5q0 -29 22.5 -44.5t62.5 -8.5z" />
    <glyph glyph-name="lam_alefar" unicode="&#xfedf;&#xfe8e;" horiz-adv-x="504" arabic-form="isolated" 
d="M369 333l41 -60q29 -44 41.5 -71.5t12.5 -59.5q0 -67 -45.5 -104.5t-126.5 -37.5h-252v51l238 273l-201 285l54 38l190 -270q41 58 41 144v191h66v-191q0 -63 -13.5 -104.5t-45.5 -83.5zM140 67h152q105 0 105 72q0 35 -41 97l-33 48z" />
    <glyph glyph-name="lam_alefar.fina" unicode="&#xfee0;&#xfe8e;" horiz-adv-x="605" arabic-form="final" 
d="M602 67h23v-67h-40q-110 0 -148 85q-42 -85 -149 -85h-247v67h224l-171 560l65 18l172 -573q79 19 79 108v532h67v-530q0 -115 125 -115z" />
    <glyph glyph-name="lam_alefWaslaar.fina" unicode="&#xfee0;&#xfb51;" horiz-adv-x="605" 
d="M602 67h23v-67h-40q-110 0 -148 85q-42 -85 -149 -85h-247v67h224l-143 472l64 18l145 -485q79 20 79 108v532h67v-530q0 -115 125 -115zM172 764q31 0 50 -17t19 -49q0 -37 -19 -56t-58 -27l-128 -25v40l34 7q3 59 31 93t71 34zM109 644l58 11q36 7 36 39t-31 32
q-26 0 -42.5 -22.5t-20.5 -59.5z" />
    <glyph glyph-name="lam_alefWaslaar" unicode="&#xfedf;&#xfb51;" horiz-adv-x="504" 
d="M360 322l41 -45q63 -72 63 -137q0 -66 -45.5 -103t-126.5 -37h-252v51l229 263l-187 217l51 44l179 -210q50 66 50 156v191h66v-191q0 -65 -15 -108.5t-53 -90.5zM140 67h152q105 0 105 71q0 42 -50 100l-29 34zM120 764q31 0 50 -17t19 -49q0 -37 -19 -56t-58 -27
l-128 -25v40l34 7q3 59 31 93t71 34zM57 644l58 11q36 7 36 39t-31 32q-26 0 -42.5 -22.5t-20.5 -59.5z" />
    <glyph glyph-name="hamzaar" unicode="&#x621;" horiz-adv-x="411" arabic-form="isolated" 
d="M257 78l114 9v-67l-331 -29v67l87 8q-69 41 -69 121q0 64 44 104t122 40q74 0 134 -48l-33 -51q-46 33 -97 33q-48 0 -76 -23.5t-28 -67.5q0 -45 35 -73t98 -23z" />
    <glyph glyph-name="alefMaddaar" unicode="&#x622;" horiz-adv-x="208" arabic-form="isolated" 
d="M71 0v548h67v-548h-67zM191 671l27 -21q-24 -47 -73 -47q-31 0 -60 25q-18 15 -34 15q-24 0 -42 -27l-28 25q31 43 72 43q31 0 59 -23q17 -17 38 -17q22 0 41 27z" />
    <glyph glyph-name="alefHamzaabovear" unicode="&#x623;" horiz-adv-x="208" arabic-form="isolated" 
d="M71 0v548h67v-548h-67zM151 658l51 8v-39l-204 -35v39l70 12q-40 27 -40 71q0 39 22 60.5t59 21.5q30 0 53 -18l-17 -33q-19 12 -36 12q-20 0 -31.5 -12.5t-11.5 -33.5q0 -29 22.5 -44.5t62.5 -8.5z" />
    <glyph glyph-name="wawHamzaabovear" unicode="&#x624;" horiz-adv-x="462" arabic-form="isolated" 
d="M236 397q175 0 175 -246q0 -97 -20.5 -165t-63.5 -112t-100 -69t-141 -41l-16 63q124 25 185.5 73t77.5 143q-44 -47 -111 -47q-80 0 -126 50.5t-46 144.5q0 97 50.5 151.5t135.5 54.5zM229 61q113 0 113 130q0 65 -29.5 101.5t-83.5 36.5q-53 0 -82.5 -36t-29.5 -102
q0 -62 28 -96t84 -34zM286 527l51 8v-39l-204 -35v39l70 12q-40 27 -40 71q0 39 22 60.5t59 21.5q30 0 53 -18l-17 -33q-19 12 -36 12q-20 0 -31.5 -12.5t-11.5 -33.5q0 -29 22.5 -44.5t62.5 -8.5z" />
    <glyph glyph-name="alefHamzabelowar" unicode="&#x625;" horiz-adv-x="208" arabic-form="isolated" 
d="M71 0v712h67v-712h-67zM156 -203l51 8v-39l-204 -35v39l70 12q-40 27 -40 71q0 39 22 60.5t59 21.5q30 0 53 -18l-17 -33q-19 12 -36 12q-20 0 -31.5 -12.5t-11.5 -33.5q0 -29 22.5 -44.5t62.5 -8.5z" />
    <glyph glyph-name="yehHamzaabovear" unicode="&#x626;" horiz-adv-x="866" arabic-form="isolated" 
d="M779 447l-47 -49q-23 27 -49 37.5t-66 10.5h-33q-52 0 -80 -30t-28 -86v-83h148q86 0 139 -50t53 -139q0 -91 -54.5 -142t-138.5 -51h-330q-68 0 -117.5 19.5t-75.5 54t-37.5 73.5t-11.5 86v49h65v-49q0 -71 42 -118.5t141 -47.5h322q128 0 128 123q0 126 -127 126h-214
v149q0 80 46 131.5t131 51.5h32q54 0 92.5 -14.5t69.5 -51.5zM258 277l51 8v-39l-204 -35v39l70 12q-40 27 -40 71q0 39 22 60.5t59 21.5q30 0 53 -18l-17 -33q-19 12 -36 12q-20 0 -31.5 -12.5t-11.5 -33.5q0 -29 22.5 -44.5t62.5 -8.5z" />
    <glyph glyph-name="alefar" unicode="&#x627;" horiz-adv-x="208" arabic-form="isolated" 
d="M71 0v712h67v-712h-67z" />
    <glyph glyph-name="behar" unicode="&#x628;" horiz-adv-x="826" arabic-form="isolated" 
d="M766 329v-146q0 -90 -49 -136.5t-144 -46.5h-271q-242 0 -242 242v87h65v-87q0 -81 41 -128t144 -47h263q126 0 126 116v146h67zM387 -76h72v-77h-72v77z" />
    <glyph glyph-name="tehMarbutaar" unicode="&#x629;" horiz-adv-x="469" arabic-form="isolated" 
d="M349 352q70 -54 70 -162q0 -90 -50.5 -142.5t-134.5 -52.5q-82 0 -132 50t-50 133q0 87 52 142h-53v67h157q95 0 141 -35zM234 61q57 0 87 35.5t30 93.5t-30.5 94t-86.5 36q-55 0 -85 -36.5t-30 -94.5t30.5 -93t84.5 -35zM127 559h72v-77h-72v77zM269 559h72v-77h-72v77z
" />
    <glyph glyph-name="tehar" unicode="&#x62a;" horiz-adv-x="826" arabic-form="isolated" 
d="M766 329v-146q0 -90 -49 -136.5t-144 -46.5h-271q-242 0 -242 242v87h65v-87q0 -81 41 -128t144 -47h263q126 0 126 116v146h67zM317 521h72v-77h-72v77zM459 521h72v-77h-72v77z" />
    <glyph glyph-name="thehar" unicode="&#x62b;" horiz-adv-x="826" arabic-form="isolated" 
d="M766 329v-146q0 -90 -49 -136.5t-144 -46.5h-271q-242 0 -242 242v87h65v-87q0 -81 41 -128t144 -47h263q126 0 126 116v146h67zM325 522h72v-77h-72v77zM451 522h72v-77h-72v77zM387 659h72v-77h-72v77z" />
    <glyph glyph-name="jeemar" unicode="&#x62c;" horiz-adv-x="525" arabic-form="isolated" 
d="M467 -164l37 -47q-80 -82 -203 -82q-116 0 -188.5 65t-72.5 183q0 123 83.5 194.5t217.5 71.5h31q-26 11 -50 35l-31 32q-40 42 -86 42q-51 0 -90 -42l-41 44q59 65 137 65q69 0 125 -57l62 -64q19 -20 30.5 -30t28.5 -17.5t37 -7.5h4v-64h-141q-115 0 -181.5 -51
t-66.5 -149q0 -86 53 -135t143 -49q95 0 162 63zM269 -1h72v-77h-72v77z" />
    <glyph glyph-name="hahar" unicode="&#x62d;" horiz-adv-x="525" arabic-form="isolated" 
d="M467 -164l37 -47q-80 -82 -203 -82q-116 0 -188.5 65t-72.5 183q0 123 83.5 194.5t217.5 71.5h31q-26 11 -50 35l-31 32q-40 42 -86 42q-51 0 -90 -42l-41 44q59 65 137 65q69 0 125 -57l62 -64q19 -20 30.5 -30t28.5 -17.5t37 -7.5h4v-64h-141q-115 0 -181.5 -51
t-66.5 -149q0 -86 53 -135t143 -49q95 0 162 63z" />
    <glyph glyph-name="khahar" unicode="&#x62e;" horiz-adv-x="525" arabic-form="isolated" 
d="M467 -164l37 -47q-80 -82 -203 -82q-116 0 -188.5 65t-72.5 183q0 123 83.5 194.5t217.5 71.5h31q-26 11 -50 35l-31 32q-40 42 -86 42q-51 0 -90 -42l-41 44q59 65 137 65q69 0 125 -57l62 -64q19 -20 30.5 -30t28.5 -17.5t37 -7.5h4v-64h-141q-115 0 -181.5 -51
t-66.5 -149q0 -86 53 -135t143 -49q95 0 162 63zM174 560h72v-77h-72v77z" />
    <glyph glyph-name="dalar" unicode="&#x62f;" horiz-adv-x="505" arabic-form="isolated" 
d="M318 0h-114q-63 0 -102 14t-71 52l46 49q24 -28 51.5 -38t75.5 -10h112q81 0 81 58q0 31 -23 75l-84 168l62 30l82 -168q30 -61 30 -107q0 -60 -43.5 -91.5t-102.5 -31.5z" />
    <glyph glyph-name="thalar" unicode="&#x630;" horiz-adv-x="505" arabic-form="isolated" 
d="M318 0h-114q-63 0 -102 14t-71 52l46 49q24 -28 51.5 -38t75.5 -10h112q81 0 81 58q0 31 -23 75l-84 168l62 30l82 -168q30 -61 30 -107q0 -60 -43.5 -91.5t-102.5 -31.5zM261 560h72v-77h-72v77z" />
    <glyph glyph-name="rehar" unicode="&#x631;" horiz-adv-x="319" arabic-form="isolated" 
d="M259 328v-290q0 -117 -50.5 -181t-149.5 -94l-24 62q84 25 120.5 72.5t36.5 145.5v285h67z" />
    <glyph glyph-name="zainar" unicode="&#x632;" horiz-adv-x="319" arabic-form="isolated" 
d="M259 328v-290q0 -117 -50.5 -181t-149.5 -94l-24 62q84 25 120.5 72.5t36.5 145.5v285h67zM189 521h72v-77h-72v77z" />
    <glyph glyph-name="seenar" unicode="&#x633;" horiz-adv-x="1097" arabic-form="isolated" 
d="M970 327h67v-166q0 -91 -44 -129t-107 -38q-94 0 -130 72q-32 -72 -112 -72q-57 0 -89 38q-11 -104 -73 -165.5t-178 -61.5q-127 0 -190 77t-63 201v109h67v-110q0 -95 46.5 -152.5t141.5 -57.5t140 57.5t45 152.5v169h67v-95q0 -43 22.5 -68t64.5 -25q85 0 85 102v126
h67v-126q0 -102 88 -102q85 0 85 101v163z" />
    <glyph glyph-name="sheenar" unicode="&#x634;" horiz-adv-x="1097" arabic-form="isolated" 
d="M970 327h67v-166q0 -91 -44 -129t-107 -38q-94 0 -130 72q-32 -72 -112 -72q-57 0 -89 38q-11 -104 -73 -165.5t-178 -61.5q-127 0 -190 77t-63 201v109h67v-110q0 -95 46.5 -152.5t141.5 -57.5t140 57.5t45 152.5v169h67v-95q0 -43 22.5 -68t64.5 -25q85 0 85 102v126
h67v-126q0 -102 88 -102q85 0 85 101v163zM665 464h72v-77h-72v77zM791 464h72v-77h-72v77zM727 601h72v-77h-72v77z" />
    <glyph glyph-name="sadar" unicode="&#x635;" horiz-adv-x="1170" arabic-form="isolated" 
d="M926 397q89 0 146 -54.5t57 -146.5q0 -89 -58.5 -142.5t-155.5 -53.5h-199v-68h-67v68q-64 0 -93 35q-11 -105 -73 -167.5t-179 -62.5q-127 0 -190 77t-63 201v109h67v-110q0 -95 46.5 -152.5t141.5 -57.5t140 57.5t45 152.5v168h67v-86q0 -93 91 -97q2 85 26.5 150.5
t64.5 103.5t87 57t99 19zM716 67h199q68 0 107 34t39 96t-38 97.5t-98 35.5q-39 0 -73.5 -13.5t-65 -42.5t-49.5 -82.5t-21 -124.5z" />
    <glyph glyph-name="dadar" unicode="&#x636;" horiz-adv-x="1170" arabic-form="isolated" 
d="M926 397q89 0 146 -54.5t57 -146.5q0 -89 -58.5 -142.5t-155.5 -53.5h-199v-68h-67v68q-64 0 -93 35q-11 -105 -73 -167.5t-179 -62.5q-127 0 -190 77t-63 201v109h67v-110q0 -95 46.5 -152.5t141.5 -57.5t140 57.5t45 152.5v168h67v-86q0 -93 91 -97q2 85 26.5 150.5
t64.5 103.5t87 57t99 19zM716 67h199q68 0 107 34t39 96t-38 97.5t-98 35.5q-39 0 -73.5 -13.5t-65 -42.5t-49.5 -82.5t-21 -124.5zM886 560h72v-77h-72v77z" />
    <glyph glyph-name="tahar" unicode="&#x637;" horiz-adv-x="690" arabic-form="isolated" 
d="M440 396q92 0 146 -54.5t54 -142.5q0 -91 -59 -145t-174 -54h-367v67h118v645h67v-453q29 68 86.5 102.5t128.5 34.5zM218 67h205q73 0 111.5 34.5t38.5 96.5q0 59 -36 95t-100 36q-37 0 -71 -12.5t-66 -40.5t-54 -81.5t-28 -127.5z" />
    <glyph glyph-name="zahar" unicode="&#x638;" horiz-adv-x="690" arabic-form="isolated" 
d="M440 396q92 0 146 -54.5t54 -142.5q0 -91 -59 -145t-174 -54h-367v67h118v645h67v-453q29 68 86.5 102.5t128.5 34.5zM218 67h205q73 0 111.5 34.5t38.5 96.5q0 59 -36 95t-100 36q-37 0 -71 -12.5t-66 -40.5t-54 -81.5t-28 -127.5zM410 560h72v-77h-72v77z" />
    <glyph glyph-name="ainar" unicode="&#x639;" horiz-adv-x="514" arabic-form="isolated" 
d="M457 -161l37 -50q-84 -82 -217 -82q-113 0 -179.5 55.5t-66.5 169.5q0 81 39.5 138t114.5 80q-36 23 -61 64t-25 100q0 84 52.5 132t134.5 48q75 0 134 -45l-34 -54q-42 32 -98 32q-54 0 -87.5 -29.5t-33.5 -88.5q0 -56 36 -92q40 -43 143 -43h97v-67h-125
q-218 0 -218 -172q0 -162 178 -162q103 0 179 66z" />
    <glyph glyph-name="ghainar" unicode="&#x63a;" horiz-adv-x="514" arabic-form="isolated" 
d="M457 -161l37 -50q-84 -82 -217 -82q-113 0 -179.5 55.5t-66.5 169.5q0 81 39.5 138t114.5 80q-36 23 -61 64t-25 100q0 84 52.5 132t134.5 48q75 0 134 -45l-34 -54q-42 32 -98 32q-54 0 -87.5 -29.5t-33.5 -88.5q0 -56 36 -92q40 -43 143 -43h97v-67h-125
q-218 0 -218 -172q0 -162 178 -162q103 0 179 66zM244 656h72v-77h-72v77z" />
    <glyph glyph-name="fehar" unicode="&#x641;" horiz-adv-x="938" arabic-form="isolated" 
d="M702 518q81 0 128 -53t47 -153v-118q0 -86 -49.5 -140t-157.5 -54h-370q-67 0 -114 19.5t-71.5 54t-35 72.5t-10.5 85v96h65v-96q0 -70 41 -117t139 -47h359q69 0 103 31.5t34 87.5v9q-34 -63 -121 -63q-80 0 -126 50.5t-46 137.5q0 91 51 144.5t134 53.5zM696 195
q53 0 83 32t30 93t-30 96.5t-83 35.5q-52 0 -82 -35t-30 -97q0 -58 28 -91.5t84 -33.5zM663 680h72v-77h-72v77z" />
    <glyph glyph-name="qafar" unicode="&#x642;" horiz-adv-x="810" arabic-form="isolated" 
d="M568 397q81 0 128.5 -54.5t47.5 -159.5v-182q0 -86 -49.5 -140t-158.5 -54h-252q-117 0 -175 65t-58 167v107h65v-107q0 -74 43.5 -119.5t137.5 -45.5h243q69 0 103 31.5t34 87.5v64q-35 -60 -125 -60q-81 0 -124.5 52t-43.5 142q0 97 50.5 151.5t133.5 54.5zM563 62
q113 0 113 130q0 65 -29.5 101.5t-83.5 36.5q-53 0 -82.5 -36t-29.5 -102q0 -130 112 -130zM459 557h72v-77h-72v77zM601 557h72v-77h-72v77z" />
    <glyph glyph-name="kafar" unicode="&#x643;" horiz-adv-x="826" arabic-form="isolated" 
d="M766 712v-529q0 -90 -49 -136.5t-144 -46.5h-271q-242 0 -242 242v87h65v-87q0 -81 41 -128t144 -47h263q126 0 126 116v529h67zM474 327v18q0 36 -37 36h-91v43l72 110h56l-68 -105h38q37 0 59.5 -22t22.5 -62v-66h-200v48h148z" />
    <glyph glyph-name="lamar" unicode="&#x644;" horiz-adv-x="635" arabic-form="isolated" 
d="M304 -128q99 0 137.5 51.5t38.5 158.5v553h65v-557q0 -273 -244 -273q-241 0 -241 260v34h65v-31q0 -96 41 -146t138 -50z" />
    <glyph glyph-name="meemar" unicode="&#x645;" horiz-adv-x="586" arabic-form="isolated" 
d="M362 329q77 0 125.5 -50.5t48.5 -138.5q0 -82 -46.5 -138.5t-133.5 -56.5q-76 0 -119.5 44t-51.5 116h-1q-77 0 -77 -93v-248h-66v254q0 75 38.5 114.5t106.5 39.5q10 76 56 116.5t120 40.5zM359 9q111 0 111 128q0 58 -27 93t-84 35q-55 0 -82.5 -36t-27.5 -94
q0 -57 27.5 -91.5t82.5 -34.5z" />
    <glyph glyph-name="noonar" unicode="&#x646;" horiz-adv-x="608" arabic-form="isolated" 
d="M306 -128q95 0 140 57.5t45 152.5v246h67v-246q0 -125 -62 -201t-192 -76q-127 0 -190 77t-63 201v245h67v-246q0 -95 46.5 -152.5t141.5 -57.5zM267 501h72v-77h-72v77z" />
    <glyph glyph-name="hehar" unicode="&#x647;" horiz-adv-x="469" arabic-form="isolated" 
d="M349 352q70 -54 70 -162q0 -90 -50.5 -142.5t-134.5 -52.5q-82 0 -132 50t-50 133q0 87 52 142h-53v67h157q95 0 141 -35zM234 61q57 0 87 35.5t30 93.5t-30.5 94t-86.5 36q-55 0 -85 -36.5t-30 -94.5t30.5 -93t84.5 -35z" />
    <glyph glyph-name="wawar" unicode="&#x648;" horiz-adv-x="462" arabic-form="isolated" 
d="M236 397q175 0 175 -246q0 -97 -20.5 -165t-63.5 -112t-100 -69t-141 -41l-16 63q124 25 185.5 73t77.5 143q-44 -47 -111 -47q-80 0 -126 50.5t-46 144.5q0 97 50.5 151.5t135.5 54.5zM229 61q113 0 113 130q0 65 -29.5 101.5t-83.5 36.5q-53 0 -82.5 -36t-29.5 -102
q0 -62 28 -96t84 -34z" />
    <glyph glyph-name="alefMaksuraar" unicode="&#x649;" horiz-adv-x="866" arabic-form="isolated" 
d="M779 447l-47 -49q-23 27 -49 37.5t-66 10.5h-33q-52 0 -80 -30t-28 -86v-83h148q86 0 139 -50t53 -139q0 -91 -54.5 -142t-138.5 -51h-330q-68 0 -117.5 19.5t-75.5 54t-37.5 73.5t-11.5 86v49h65v-49q0 -71 42 -118.5t141 -47.5h322q128 0 128 123q0 126 -127 126h-214
v149q0 80 46 131.5t131 51.5h32q54 0 92.5 -14.5t69.5 -51.5z" />
    <glyph glyph-name="yehar" unicode="&#x64a;" horiz-adv-x="866" arabic-form="isolated" 
d="M779 447l-47 -49q-23 27 -49 37.5t-66 10.5h-33q-52 0 -80 -30t-28 -86v-83h148q86 0 139 -50t53 -139q0 -91 -54.5 -142t-138.5 -51h-330q-68 0 -117.5 19.5t-75.5 54t-37.5 73.5t-11.5 86v49h65v-49q0 -71 42 -118.5t141 -47.5h322q128 0 128 123q0 126 -127 126h-214
v149q0 80 46 131.5t131 51.5h32q54 0 92.5 -14.5t69.5 -51.5zM350 -211h72v-77h-72v77zM492 -211h72v-77h-72v77z" />
    <glyph glyph-name="dotlessbehar.init" unicode="&#x66e;" horiz-adv-x="269" 
d="M-20 0v67h39q113 0 113 114v147h66v-147q0 -87 -45.5 -134t-132.5 -47h-40z" />
    <glyph glyph-name="dotlessbehar.medi" unicode="&#x66e;" 
d="M320 67h21v-67h-54q-48 0 -83.5 22t-50.5 58q-37 -80 -132 -80h-41v67h21q66 0 96 27.5t30 87.5v146h67v-145q0 -55 27 -85.5t99 -30.5z" />
    <glyph glyph-name="dotlessbehar.fina" unicode="&#x66e;" horiz-adv-x="894" 
d="M892 67h22v-67h-44q-58 0 -92 19.5t-54 60.5q-36 -80 -162 -80h-260q-242 0 -242 241v88h65v-88q0 -174 185 -174h263q65 0 95.5 30.5t30.5 82.5v149h67v-147q0 -54 26.5 -84.5t99.5 -30.5z" />
    <glyph glyph-name="dotlessqafar.fina" unicode="&#x66f;" horiz-adv-x="811" 
d="M831 67v-67h-88q-5 -86 -53 -140.5t-141 -54.5h-265q-116 0 -174.5 66t-58.5 168v107h65v-107q0 -74 43.5 -120.5t137.5 -46.5h249q117 0 129 128h-84q-109 0 -162 57q-47 50 -47 138q0 89 47 145.5t138 56.5q67 0 110 -34q66 -52 66 -204v-92h88zM478 106
q34 -39 122 -39h76v83q0 122 -43 159q-26 22 -69 22q-53 0 -83.5 -36.5t-30.5 -98.5q0 -57 28 -90z" />
    <glyph glyph-name="alefWaslaar" unicode="&#x671;" horiz-adv-x="208" arabic-form="isolated" 
d="M71 0v548h67v-548h-67zM132 764q31 0 50 -17t19 -49q0 -37 -19 -56t-58 -27l-128 -25v40l34 7q3 59 31 93t71 34zM69 644l58 11q36 7 36 39t-31 32q-26 0 -42.5 -22.5t-20.5 -59.5z" />
    <glyph glyph-name="alefWavyhamzaabovear.fina" unicode="&#x672;" horiz-adv-x="264" 
d="M284 0h-40q-100 0 -144 74q-29 46 -29 135v339h67v-337q0 -66 22 -99q30 -45 101 -45h23v-67zM165 659l39 7v-39l-111 -18q-21 -4 -39 -4q-58 0 -93 38l23 32q25 -32 71 -32q8 0 26 2q-39 28 -39 71q0 38 22 60t58 22q30 0 53 -18l-16 -33q-19 12 -37 12q-20 0 -31 -13
t-11 -34q0 -24 16.5 -39.5t46.5 -15.5q12 0 22 2z" />
    <glyph glyph-name="alefWavyhamzabelowar.fina" unicode="&#x673;" horiz-adv-x="264" 
d="M284 0h-40q-99 0 -145 75q-28 46 -28 134v503h67v-501q0 -66 22 -99q29 -45 101 -45h23v-67zM187 -206l39 7v-39l-111 -18q-21 -4 -39 -4q-58 0 -93 38l23 32q25 -32 71 -32q8 0 26 2q-39 28 -39 71q0 39 22 60.5t58 21.5q30 0 53 -18l-16 -33q-19 12 -37 12
q-20 0 -31 -13t-11 -34q0 -24 16.5 -39.5t46.5 -15.5q12 0 22 2z" />
    <glyph glyph-name="highhamzaAlefar.fina" unicode="&#x675;" horiz-adv-x="264" 
d="M284 0h-40q-100 0 -144 74q-29 46 -29 135v339h67v-337q0 -66 22 -99q30 -45 101 -45h23v-67zM153 658l51 8v-39l-204 -35v39l70 12q-40 27 -40 71q0 39 22 60.5t59 21.5q30 0 53 -18l-17 -33q-19 12 -36 12q-20 0 -31.5 -12.5t-11.5 -33.5q0 -29 22.5 -44.5t62.5 -8.5z
" />
    <glyph glyph-name="highhamzaWawar.fina" unicode="&#x676;" horiz-adv-x="494" 
d="M514 67v-67h-109q-11 -57 -42.5 -100t-79.5 -69t-96.5 -41t-110.5 -26l-16 65q242 38 277 171h-78q-109 0 -162 57q-47 50 -47 138q0 89 47 145.5t138 56.5q69 0 110 -34q66 -53 66 -204v-92h103zM146 106q33 -39 122 -39h76v83q0 122 -43 159q-26 22 -69 22
q-53 0 -83.5 -36.5t-30.5 -98.5q0 -57 28 -90zM386 541l51 8v-39l-204 -35v39l70 12q-40 27 -40 71q0 39 22 60.5t59 21.5q30 0 53 -18l-17 -33q-19 12 -36 12q-20 0 -31.5 -12.5t-11.5 -33.5q0 -29 22.5 -44.5t62.5 -8.5z" />
    <glyph glyph-name="uHamzaabovear" unicode="&#x677;" horiz-adv-x="462" arabic-form="isolated" 
d="M236 397q175 0 175 -246q0 -97 -20.5 -165t-63.5 -112t-100 -69t-141 -41l-16 63q124 25 185.5 73t77.5 143q-44 -47 -111 -47q-80 0 -126 50.5t-46 144.5q0 97 50.5 151.5t135.5 54.5zM229 61q113 0 113 130q0 65 -29.5 101.5t-83.5 36.5q-53 0 -82.5 -36t-29.5 -102
q0 -62 28 -96t84 -34zM386 540l51 8v-39l-204 -35v39l70 12q-40 27 -40 71q0 39 22 60.5t59 21.5q30 0 53 -18l-17 -33q-19 12 -36 12q-20 0 -31.5 -12.5t-11.5 -33.5q0 -29 22.5 -44.5t62.5 -8.5zM142 672q38 0 58.5 -21.5t20.5 -57.5q0 -39 -21.5 -59.5t-65.5 -29.5
l-112 -22v38l70 14q-31 22 -31 60q0 36 22.5 57t58.5 21zM140 545q19 0 31.5 12t12.5 33t-12 32.5t-31 11.5t-30.5 -11.5t-11.5 -32.5t11 -33t30 -12z" />
    <glyph glyph-name="highhamzaYehar.init" unicode="&#x678;" horiz-adv-x="269" 
d="M287 487l51 8v-39l-204 -35v39l70 12q-40 27 -40 71q0 39 22 60.5t59 21.5q30 0 53 -18l-17 -33q-19 12 -36 12q-20 0 -31.5 -12.5t-11.5 -33.5q0 -29 22.5 -44.5t62.5 -8.5zM-20 0v67h39q113 0 113 114v147h66v-147q0 -87 -45.5 -134t-132.5 -47h-40z" />
    <glyph glyph-name="highhamzaYehar.medi" unicode="&#x678;" 
d="M282 487l51 8v-39l-204 -35v39l70 12q-40 27 -40 71q0 39 22 60.5t59 21.5q30 0 53 -18l-17 -33q-19 12 -36 12q-20 0 -31.5 -12.5t-11.5 -33.5q0 -29 22.5 -44.5t62.5 -8.5zM320 67h21v-67h-54q-48 0 -83.5 22t-50.5 58q-37 -80 -132 -80h-41v67h21q66 0 96 27.5
t30 87.5v146h67v-145q0 -55 27 -85.5t99 -30.5z" />
    <glyph glyph-name="highhamzaYehar.fina" unicode="&#x678;" horiz-adv-x="710" 
d="M718 67h12v-67h-40q-25 0 -45 10q3 -12 3 -28q0 -55 -41 -86t-124 -31h-197q-65 0 -112.5 19.5t-73.5 54t-37.5 74t-11.5 85.5v49h65v-49q0 -71 41.5 -118.5t139.5 -47.5h194q95 0 95 75q0 44 -35 91l-71 98h79l59 -81q21 -27 42.5 -37.5t57.5 -10.5zM653 346l51 8v-39
l-204 -35v39l70 12q-40 27 -40 71q0 39 22 60.5t59 21.5q30 0 53 -18l-17 -33q-19 12 -36 12q-20 0 -31.5 -12.5t-11.5 -33.5q0 -29 22.5 -44.5t62.5 -8.5z" />
    <glyph glyph-name="ttehar" unicode="&#x679;" horiz-adv-x="826" arabic-form="isolated" 
d="M766 329v-146q0 -90 -49 -136.5t-144 -46.5h-271q-242 0 -242 242v87h65v-87q0 -81 41 -128t144 -47h263q126 0 126 116v146h67zM463 596q26 0 45.5 -16.5t19.5 -49.5q0 -37 -20 -56.5t-68 -28.5l-116 -23v40l33 6l4 165l39 9l-3 -82q25 36 66 36zM397 476l45 8
q48 8 48 41t-29 33q-28 0 -44.5 -23t-19.5 -59z" />
    <glyph glyph-name="ttehehar" unicode="&#x67a;" horiz-adv-x="826" arabic-form="isolated" 
d="M766 329v-146q0 -90 -49 -136.5t-144 -46.5h-271q-242 0 -242 242v87h65v-87q0 -81 41 -128t144 -47h263q126 0 126 116v146h67zM387 637h72v-77h-72v77zM387 522h72v-77h-72v77z" />
    <glyph glyph-name="beehar" unicode="&#x67b;" horiz-adv-x="826" arabic-form="isolated" 
d="M766 329v-146q0 -90 -49 -136.5t-144 -46.5h-271q-242 0 -242 242v87h65v-87q0 -81 41 -128t144 -47h263q126 0 126 116v146h67zM387 -191h72v-77h-72v77zM387 -76h72v-77h-72v77z" />
    <glyph glyph-name="tehRingar.init" unicode="&#x67c;" horiz-adv-x="269" 
d="M143 38q58 -19 58 -87q0 -41 -26 -66.5t-67 -25.5q-42 0 -67.5 25.5t-25.5 66.5q0 28 12 49h-47v67h39q113 0 113 114v147h66v-147q0 -97 -55 -143zM109 -98q21 0 34.5 14t13.5 35q0 22 -13.5 35.5t-34.5 13.5q-22 0 -36 -13.5t-14 -35.5q0 -21 14 -35t36 -14zM58 520h72
v-77h-72v77zM200 520h72v-77h-72v77z" />
    <glyph glyph-name="tehRingar.medi" unicode="&#x67c;" 
d="M320 67h21v-67h-54q-48 0 -83.5 22t-50.5 58q-11 -23 -29 -41q28 -9 44 -32t16 -56q0 -41 -26 -66.5t-67 -25.5q-42 0 -67.5 25.5t-25.5 66.5q0 28 12 49h-30v67h21q66 0 96 27.5t30 87.5v146h67v-145q0 -55 27 -85.5t99 -30.5zM140 -49q0 22 -13.5 35.5t-34.5 13.5
q-22 0 -36 -13.5t-14 -35.5q0 -21 14 -35t36 -14q21 0 34.5 14t13.5 35zM54 520h72v-77h-72v77zM196 520h72v-77h-72v77z" />
    <glyph glyph-name="tehRingar.fina" unicode="&#x67c;" horiz-adv-x="894" 
d="M892 67h22v-67h-44q-58 0 -92 19.5t-54 60.5q-36 -80 -162 -80h-57q12 -21 12 -49q0 -41 -26 -66.5t-67 -25.5q-42 0 -67.5 25.5t-25.5 66.5q0 28 12 49h-41q-242 0 -242 241v88h65v-88q0 -174 185 -174h263q65 0 95.5 30.5t30.5 82.5v149h67v-147q0 -54 26.5 -84.5
t99.5 -30.5zM473 -49q0 22 -13.5 35.5t-34.5 13.5q-22 0 -36 -13.5t-14 -35.5q0 -21 14 -35t36 -14q21 0 34.5 14t13.5 35zM317 521h72v-77h-72v77zM459 521h72v-77h-72v77z" />
    <glyph glyph-name="tehThreedotsdownar.init" unicode="&#x67d;" horiz-adv-x="269" 
d="M-20 0v67h39q113 0 113 114v147h66v-147q0 -87 -45.5 -134t-132.5 -47h-40zM264 580h-72v77h72v-77zM138 580h-72v77h72v-77zM201 443h-72v77h72v-77z" />
    <glyph glyph-name="tehThreedotsdownar.medi" unicode="&#x67d;" 
d="M320 67h21v-67h-54q-48 0 -83.5 22t-50.5 58q-37 -80 -132 -80h-41v67h21q66 0 96 27.5t30 87.5v146h67v-145q0 -55 27 -85.5t99 -30.5zM260 580h-72v77h72v-77zM134 580h-72v77h72v-77zM197 443h-72v77h72v-77z" />
    <glyph glyph-name="tehThreedotsdownar.fina" unicode="&#x67d;" horiz-adv-x="894" 
d="M892 67h22v-67h-44q-58 0 -92 19.5t-54 60.5q-36 -80 -162 -80h-260q-242 0 -242 241v88h65v-88q0 -174 185 -174h263q65 0 95.5 30.5t30.5 82.5v149h67v-147q0 -54 26.5 -84.5t99.5 -30.5zM523 581h-72v77h72v-77zM397 581h-72v77h72v-77zM460 444h-72v77h72v-77z" />
    <glyph glyph-name="pehar" unicode="&#x67e;" horiz-adv-x="826" arabic-form="isolated" 
d="M766 329v-146q0 -90 -49 -136.5t-144 -46.5h-271q-242 0 -242 242v87h65v-87q0 -81 41 -128t144 -47h263q126 0 126 116v146h67zM523 -153h-72v77h72v-77zM397 -153h-72v77h72v-77zM460 -281h-72v77h72v-77z" />
    <glyph glyph-name="tehehar" unicode="&#x67f;" horiz-adv-x="826" arabic-form="isolated" 
d="M766 329v-146q0 -90 -49 -136.5t-144 -46.5h-271q-242 0 -242 242v87h65v-87q0 -81 41 -128t144 -47h263q126 0 126 116v146h67zM326 522h72v-77h-72v77zM450 522h72v-77h-72v77zM326 649h72v-77h-72v77zM450 649h72v-77h-72v77z" />
    <glyph glyph-name="behehar" unicode="&#x680;" horiz-adv-x="826" arabic-form="isolated" 
d="M766 329v-146q0 -90 -49 -136.5t-144 -46.5h-271q-242 0 -242 242v87h65v-87q0 -81 41 -128t144 -47h263q126 0 126 116v146h67zM326 -202h72v-77h-72v77zM450 -202h72v-77h-72v77zM326 -76h72v-77h-72v77zM450 -76h72v-77h-72v77z" />
    <glyph glyph-name="hahHamzaabovear.init" unicode="&#x681;" horiz-adv-x="546" 
d="M494 213h23v-66h-25q-36 0 -56 -6t-41 -23l-65 -52q-44 -35 -86 -50.5t-108 -15.5h-156v67h157q85 0 146 48l50 40q29 23 53 29q-26 10 -57 46l-49 54q-40 46 -95 46q-48 0 -96 -44l-40 46q56 65 141 65q80 0 135 -61l72 -80q38 -43 97 -43zM241 527l51 8v-39l-204 -35
v39l70 12q-40 27 -40 71q0 39 22 60.5t59 21.5q30 0 53 -18l-17 -33q-19 12 -36 12q-20 0 -31.5 -12.5t-11.5 -33.5q0 -29 22.5 -44.5t62.5 -8.5z" />
    <glyph glyph-name="hahHamzaabovear.medi" unicode="&#x681;" horiz-adv-x="587" 
d="M506 67h101v-67h-104q-125 0 -133 98l-40 -32q-44 -35 -86 -50.5t-108 -15.5h-156v67h157q85 0 146 48l50 40q29 23 53 29q-26 11 -57 46l-49 54q-40 46 -95 46q-48 0 -96 -44l-40 46q56 65 141 65q81 0 135 -61l72 -80q38 -43 97 -43h23v-66h-25q-34 0 -57 -6v-18
q0 -56 71 -56zM241 527l51 8v-39l-204 -35v39l70 12q-40 27 -40 71q0 39 22 60.5t59 21.5q30 0 53 -18l-17 -33q-19 12 -36 12q-20 0 -31.5 -12.5t-11.5 -33.5q0 -29 22.5 -44.5t62.5 -8.5z" />
    <glyph glyph-name="hahHamzaabovear.fina" unicode="&#x681;" horiz-adv-x="601" 
d="M535 67h86v-67h-91q-125 0 -125 126v30h-48q-115 0 -181.5 -50.5t-66.5 -148.5q0 -86 53 -135t143 -49q95 0 162 63l37 -47q-80 -82 -203 -82q-116 0 -188.5 65t-72.5 183q0 123 84.5 194.5t220.5 71.5h27q-28 12 -50 35l-32 33q-40 41 -85 41q-51 0 -90 -42l-41 44
q59 65 137 65q71 0 125 -57l62 -64q19 -20 30.5 -30t28.5 -17.5t37 -7.5h35v-64h-59v-19q0 -38 14 -54.5t51 -16.5zM262 527l51 8v-39l-204 -35v39l70 12q-40 27 -40 71q0 39 22 60.5t59 21.5q30 0 53 -18l-17 -33q-19 12 -36 12q-20 0 -31.5 -12.5t-11.5 -33.5
q0 -29 22.5 -44.5t62.5 -8.5z" />
    <glyph glyph-name="hahTwodotsverticalabovear.init" unicode="&#x682;" horiz-adv-x="546" 
d="M494 213h23v-66h-25q-36 0 -56 -6t-41 -23l-65 -52q-44 -35 -86 -50.5t-108 -15.5h-156v67h157q85 0 146 48l50 40q29 23 53 29q-26 10 -57 46l-49 54q-40 46 -95 46q-48 0 -96 -44l-40 46q56 65 141 65q80 0 135 -61l72 -80q38 -43 97 -43zM153 675h72v-77h-72v77z
M153 560h72v-77h-72v77z" />
    <glyph glyph-name="hahTwodotsverticalabovear.medi" unicode="&#x682;" horiz-adv-x="587" 
d="M506 67h101v-67h-104q-125 0 -133 98l-40 -32q-44 -35 -86 -50.5t-108 -15.5h-156v67h157q85 0 146 48l50 40q29 23 53 29q-26 11 -57 46l-49 54q-40 46 -95 46q-48 0 -96 -44l-40 46q56 65 141 65q81 0 135 -61l72 -80q38 -43 97 -43h23v-66h-25q-34 0 -57 -6v-18
q0 -56 71 -56zM153 675h72v-77h-72v77zM153 560h72v-77h-72v77z" />
    <glyph glyph-name="hahTwodotsverticalabovear.fina" unicode="&#x682;" horiz-adv-x="601" 
d="M535 67h86v-67h-91q-125 0 -125 126v30h-48q-115 0 -181.5 -50.5t-66.5 -148.5q0 -86 53 -135t143 -49q95 0 162 63l37 -47q-80 -82 -203 -82q-116 0 -188.5 65t-72.5 183q0 123 84.5 194.5t220.5 71.5h27q-28 12 -50 35l-32 33q-40 41 -85 41q-51 0 -90 -42l-41 44
q59 65 137 65q71 0 125 -57l62 -64q19 -20 30.5 -30t28.5 -17.5t37 -7.5h35v-64h-59v-19q0 -38 14 -54.5t51 -16.5zM174 675h72v-77h-72v77zM174 560h72v-77h-72v77z" />
    <glyph glyph-name="nyehar" unicode="&#x683;" horiz-adv-x="525" arabic-form="isolated" 
d="M467 -164l37 -47q-80 -82 -203 -82q-116 0 -188.5 65t-72.5 183q0 123 83.5 194.5t217.5 71.5h31q-26 11 -50 35l-31 32q-40 42 -86 42q-51 0 -90 -42l-41 44q59 65 137 65q69 0 125 -57l62 -64q19 -20 30.5 -30t28.5 -17.5t37 -7.5h4v-64h-141q-115 0 -181.5 -51
t-66.5 -149q0 -86 53 -135t143 -49q95 0 162 63zM208 -4h70v-74h-70v74zM332 -4h70v-74h-70v74z" />
    <glyph glyph-name="dyehar" unicode="&#x684;" horiz-adv-x="525" arabic-form="isolated" 
d="M467 -164l37 -47q-80 -82 -203 -82q-116 0 -188.5 65t-72.5 183q0 123 83.5 194.5t217.5 71.5h31q-26 11 -50 35l-31 32q-40 42 -86 42q-51 0 -90 -42l-41 44q59 65 137 65q69 0 125 -57l62 -64q19 -20 30.5 -30t28.5 -17.5t37 -7.5h4v-64h-141q-115 0 -181.5 -51
t-66.5 -149q0 -86 53 -135t143 -49q95 0 162 63zM270 60h70v-74h-70v74zM270 -64h70v-74h-70v74z" />
    <glyph glyph-name="hahThreedotsabovear.init" unicode="&#x685;" horiz-adv-x="546" 
d="M494 213h23v-66h-25q-36 0 -56 -6t-41 -23l-65 -52q-44 -35 -86 -50.5t-108 -15.5h-156v67h157q85 0 146 48l50 40q29 23 53 29q-26 10 -57 46l-49 54q-40 46 -95 46q-48 0 -96 -44l-40 46q56 65 141 65q80 0 135 -61l72 -80q38 -43 97 -43zM91 560h72v-77h-72v77z
M217 560h72v-77h-72v77zM153 697h72v-77h-72v77z" />
    <glyph glyph-name="hahThreedotsabovear.medi" unicode="&#x685;" horiz-adv-x="587" 
d="M506 67h101v-67h-104q-125 0 -133 98l-40 -32q-44 -35 -86 -50.5t-108 -15.5h-156v67h157q85 0 146 48l50 40q29 23 53 29q-26 11 -57 46l-49 54q-40 46 -95 46q-48 0 -96 -44l-40 46q56 65 141 65q81 0 135 -61l72 -80q38 -43 97 -43h23v-66h-25q-34 0 -57 -6v-18
q0 -56 71 -56zM91 560h72v-77h-72v77zM217 560h72v-77h-72v77zM153 697h72v-77h-72v77z" />
    <glyph glyph-name="hahThreedotsabovear.fina" unicode="&#x685;" horiz-adv-x="601" 
d="M535 67h86v-67h-91q-125 0 -125 126v30h-48q-115 0 -181.5 -50.5t-66.5 -148.5q0 -86 53 -135t143 -49q95 0 162 63l37 -47q-80 -82 -203 -82q-116 0 -188.5 65t-72.5 183q0 123 84.5 194.5t220.5 71.5h27q-28 12 -50 35l-32 33q-40 41 -85 41q-51 0 -90 -42l-41 44
q59 65 137 65q71 0 125 -57l62 -64q19 -20 30.5 -30t28.5 -17.5t37 -7.5h35v-64h-59v-19q0 -38 14 -54.5t51 -16.5zM112 560h72v-77h-72v77zM238 560h72v-77h-72v77zM174 697h72v-77h-72v77z" />
    <glyph glyph-name="tchehar" unicode="&#x686;" horiz-adv-x="525" arabic-form="isolated" 
d="M467 -164l37 -47q-80 -82 -203 -82q-116 0 -188.5 65t-72.5 183q0 123 83.5 194.5t217.5 71.5h31q-26 11 -50 35l-31 32q-40 42 -86 42q-51 0 -90 -42l-41 44q59 65 137 65q69 0 125 -57l62 -64q19 -20 30.5 -30t28.5 -17.5t37 -7.5h4v-64h-141q-115 0 -181.5 -51
t-66.5 -149q0 -86 53 -135t143 -49q95 0 162 63zM285 -16h-70v73h70v-73zM409 -16h-70v73h70v-73zM347 -143h-70v74h70v-74z" />
    <glyph glyph-name="tchehehar" unicode="&#x687;" horiz-adv-x="525" arabic-form="isolated" 
d="M467 -164l37 -47q-80 -82 -203 -82q-116 0 -188.5 65t-72.5 183q0 123 83.5 194.5t217.5 71.5h31q-26 11 -50 35l-31 32q-40 42 -86 42q-51 0 -90 -42l-41 44q59 65 137 65q69 0 125 -57l62 -64q19 -20 30.5 -30t28.5 -17.5t37 -7.5h4v-64h-141q-115 0 -181.5 -51
t-66.5 -149q0 -86 53 -135t143 -49q95 0 162 63zM209 64h70v-74h-70v74zM333 64h70v-74h-70v74zM209 -63h70v-74h-70v74zM333 -63h70v-74h-70v74z" />
    <glyph glyph-name="ddalar" unicode="&#x688;" horiz-adv-x="505" arabic-form="isolated" 
d="M318 0h-114q-63 0 -102 14t-71 52l46 49q24 -28 51.5 -38t75.5 -10h112q81 0 81 58q0 31 -23 75l-84 168l62 30l82 -168q30 -61 30 -107q0 -60 -43.5 -91.5t-102.5 -31.5zM337 634q26 0 45.5 -16.5t19.5 -49.5q0 -37 -20 -56.5t-68 -28.5l-116 -23v40l33 6l4 165l39 9
l-3 -82q25 36 66 36zM271 514l45 8q48 8 48 41t-29 33q-28 0 -44.5 -23t-19.5 -59z" />
    <glyph glyph-name="dalRingar.fina" unicode="&#x689;" horiz-adv-x="598" 
d="M597 67h21v-67h-40q-95 0 -136 68q-22 -60 -106 -67q12 -21 12 -50q0 -41 -26 -67t-67 -26q-42 0 -67.5 26t-25.5 67q0 29 12 50q-92 4 -143 65l46 49q24 -28 51.5 -38t75.5 -10h115q78 0 78 60q0 29 -27 81l-80 160l62 31l131 -269q18 -37 42 -50t72 -13zM256 -98
q21 0 34.5 14t13.5 35q0 22 -13.5 35.5t-34.5 13.5q-22 0 -36 -13.5t-14 -35.5q0 -21 14 -35t36 -14z" />
    <glyph glyph-name="dalDotbelowar.fina" unicode="&#x68a;" horiz-adv-x="598" 
d="M597 67h21v-67h-40q-95 0 -136 68q-13 -35 -47 -51.5t-77 -16.5h-114q-63 0 -102 14t-71 52l46 49q24 -28 51.5 -38t75.5 -10h115q78 0 78 60q0 29 -27 81l-80 160l62 31l131 -269q18 -37 42 -50t72 -13zM218 -76h72v-77h-72v77z" />
    <glyph glyph-name="dalDotbelowTahar.fina" unicode="&#x68b;" horiz-adv-x="598" 
d="M597 67h21v-67h-40q-95 0 -136 68q-13 -35 -47 -51.5t-77 -16.5h-114q-63 0 -102 14t-71 52l46 49q24 -28 51.5 -38t75.5 -10h115q78 0 78 60q0 29 -27 81l-80 160l62 31l131 -269q18 -37 42 -50t72 -13zM337 634q26 0 45.5 -16.5t19.5 -49.5q0 -37 -20 -56.5t-68 -28.5
l-116 -23v40l33 6l4 165l39 9l-3 -82q25 36 66 36zM271 514l45 8q48 8 48 41t-29 33q-28 0 -44.5 -23t-19.5 -59zM218 -76h72v-77h-72v77z" />
    <glyph glyph-name="dahalar" unicode="&#x68c;" horiz-adv-x="505" arabic-form="isolated" 
d="M318 0h-114q-63 0 -102 14t-71 52l46 49q24 -28 51.5 -38t75.5 -10h112q81 0 81 58q0 31 -23 75l-84 168l62 30l82 -168q30 -61 30 -107q0 -60 -43.5 -91.5t-102.5 -31.5zM191 559h72v-77h-72v77zM333 559h72v-77h-72v77z" />
    <glyph glyph-name="ddahalar" unicode="&#x68d;" horiz-adv-x="505" arabic-form="isolated" 
d="M318 0h-114q-63 0 -102 14t-71 52l46 49q24 -28 51.5 -38t75.5 -10h112q81 0 81 58q0 31 -23 75l-84 168l62 30l82 -168q30 -61 30 -107q0 -60 -43.5 -91.5t-102.5 -31.5zM148 -76h72v-77h-72v77zM290 -76h72v-77h-72v77z" />
    <glyph glyph-name="dular" unicode="&#x68e;" horiz-adv-x="505" arabic-form="isolated" 
d="M318 0h-114q-63 0 -102 14t-71 52l46 49q24 -28 51.5 -38t75.5 -10h112q81 0 81 58q0 31 -23 75l-84 168l62 30l82 -168q30 -61 30 -107q0 -60 -43.5 -91.5t-102.5 -31.5zM199 560h72v-77h-72v77zM325 560h72v-77h-72v77zM261 697h72v-77h-72v77z" />
    <glyph glyph-name="dalThreedotsdownar.fina" unicode="&#x68f;" horiz-adv-x="598" 
d="M597 67h21v-67h-40q-95 0 -136 68q-13 -35 -47 -51.5t-77 -16.5h-114q-63 0 -102 14t-71 52l46 49q24 -28 51.5 -38t75.5 -10h115q78 0 78 60q0 29 -27 81l-80 160l62 31l131 -269q18 -37 42 -50t72 -13zM397 619h-72v77h72v-77zM271 619h-72v77h72v-77zM334 482h-72v77
h72v-77z" />
    <glyph glyph-name="dalFourdotsar.fina" unicode="&#x690;" horiz-adv-x="598" 
d="M597 67h21v-67h-40q-95 0 -136 68q-13 -35 -47 -51.5t-77 -16.5h-114q-63 0 -102 14t-71 52l46 49q24 -28 51.5 -38t75.5 -10h115q78 0 78 60q0 29 -27 81l-80 160l62 31l131 -269q18 -37 42 -50t72 -13zM200 560h72v-77h-72v77zM324 560h72v-77h-72v77zM200 687h72v-77
h-72v77zM324 687h72v-77h-72v77z" />
    <glyph glyph-name="rrehar" unicode="&#x691;" horiz-adv-x="319" arabic-form="isolated" 
d="M259 328v-290q0 -117 -50.5 -181t-149.5 -94l-24 62q84 25 120.5 72.5t36.5 145.5v285h67zM265 595q26 0 45.5 -16.5t19.5 -49.5q0 -37 -20 -56.5t-68 -28.5l-116 -23v40l33 6l4 165l39 9l-3 -82q25 36 66 36zM199 475l45 8q48 8 48 41t-29 33q-28 0 -44.5 -23t-19.5 -59
z" />
    <glyph glyph-name="rehvar.fina" unicode="&#x692;" horiz-adv-x="387" 
d="M386 67h20v-67h-39q-75 0 -108 44v-6q0 -117 -50.5 -181t-149.5 -94l-24 62q84 25 120.5 72.5t36.5 145.5v285h67v-146q0 -115 127 -115zM228 474l47 103h41l-64 -140h-50l-66 140h43z" />
    <glyph glyph-name="rehRingar.fina" unicode="&#x693;" horiz-adv-x="387" 
d="M387 67h19v-67h-39q-74 0 -108 45v-7q0 -74 -21 -126h5q41 0 67 -25.5t26 -67.5q0 -41 -26 -67t-67 -26q-38 0 -62.5 21.5t-29.5 56.5q-38 -24 -92 -41l-24 62q84 25 120.5 72.5t36.5 145.5v285h67v-145q0 -116 128 -116zM244 -132q-22 0 -36 -13.5t-14 -35.5
q0 -21 14 -35t36 -14q21 0 34.5 14t13.5 35q0 22 -13.5 35.5t-34.5 13.5z" />
    <glyph glyph-name="rehDotbelowar.fina" unicode="&#x694;" horiz-adv-x="387" 
d="M386 67h20v-67h-39q-75 0 -108 44v-6q0 -117 -50.5 -181t-149.5 -94l-24 62q84 25 120.5 72.5t36.5 145.5v285h67v-146q0 -115 127 -115zM118 -293h72v-77h-72v77z" />
    <glyph glyph-name="rehVbelowar.fina" unicode="&#x695;" horiz-adv-x="387" 
d="M386 67h20v-67h-39q-75 0 -108 44v-6q0 -117 -50.5 -181t-149.5 -94l-24 62q84 25 120.5 72.5t36.5 145.5v285h67v-146q0 -115 127 -115zM157 -393l47 103h41l-64 -140h-50l-66 140h43z" />
    <glyph glyph-name="rehDotbelowdotabovear.fina" unicode="&#x696;" horiz-adv-x="387" 
d="M386 67h20v-67h-39q-75 0 -108 44v-6q0 -117 -50.5 -181t-149.5 -94l-24 62q84 25 120.5 72.5t36.5 145.5v285h67v-146q0 -115 127 -115zM189 521h72v-77h-72v77zM118 -293h72v-77h-72v77z" />
    <glyph glyph-name="rehTwodotsar.fina" unicode="&#x697;" horiz-adv-x="387" 
d="M386 67h20v-67h-39q-75 0 -108 44v-6q0 -117 -50.5 -181t-149.5 -94l-24 62q84 25 120.5 72.5t36.5 145.5v285h67v-146q0 -115 127 -115zM119 520h72v-77h-72v77zM261 520h72v-77h-72v77z" />
    <glyph glyph-name="jehar" unicode="&#x698;" horiz-adv-x="319" arabic-form="isolated" 
d="M259 328v-290q0 -117 -50.5 -181t-149.5 -94l-24 62q84 25 120.5 72.5t36.5 145.5v285h67zM127 521h72v-77h-72v77zM253 521h72v-77h-72v77zM189 658h72v-77h-72v77z" />
    <glyph glyph-name="rehFourdotsar.fina" unicode="&#x699;" horiz-adv-x="387" 
d="M386 67h20v-67h-39q-75 0 -108 44v-6q0 -117 -50.5 -181t-149.5 -94l-24 62q84 25 120.5 72.5t36.5 145.5v285h67v-146q0 -115 127 -115zM128 521h72v-77h-72v77zM252 521h72v-77h-72v77zM128 648h72v-77h-72v77zM252 648h72v-77h-72v77z" />
    <glyph glyph-name="seenDotbelowDotabovear.init" unicode="&#x69a;" horiz-adv-x="734" 
d="M607 328h67v-164q0 -49 -13.5 -84t-37 -53t-48.5 -25.5t-54 -7.5q-91 0 -128 73q-34 -73 -121 -73q-93 0 -124 76q-40 -70 -128 -70h-40v67h34q113 0 113 112v72h67v-86q0 -102 88 -102q85 0 85 102v126h67v-126q0 -102 88 -102q85 0 85 101v164zM352 -76h72v-77h-72v77z
M365 464h72v-77h-72v77z" />
    <glyph glyph-name="seenDotbelowDotabovear.medi" unicode="&#x69a;" horiz-adv-x="802" 
d="M801 67h21v-67h-40q-102 0 -145 70q-32 -76 -123 -76q-90 0 -121 72q-34 -72 -122 -72q-91 0 -123 76q-39 -70 -128 -70h-40v67h30q117 0 117 112v72h67v-85q0 -103 88 -103q85 0 85 103v125h67v-125q0 -103 88 -103q85 0 85 103v162h67v-137q0 -62 28 -93t99 -31z
M352 -76h72v-77h-72v77zM365 464h72v-77h-72v77z" />
    <glyph glyph-name="seenDotbelowDotabovear.fina" unicode="&#x69a;" horiz-adv-x="1165" 
d="M1163 67h22v-67h-41q-101 0 -144 70q-32 -76 -123 -76q-89 0 -121 71q-33 -71 -111 -71q-57 0 -90 39q-11 -104 -73 -166t-178 -62q-127 0 -190 77t-63 201v109h67v-110q0 -95 46.5 -152.5t141.5 -57.5t140 57.5t45 152.5v169h67v-103q0 -38 23 -61.5t64 -23.5
q85 0 85 102v126h67v-126q0 -102 88 -102q85 0 85 102v163h67v-137q0 -62 28 -93t98 -31zM716 -76h72v-77h-72v77zM727 464h72v-77h-72v77z" />
    <glyph glyph-name="seenThreedotsbelowar.init" unicode="&#x69b;" horiz-adv-x="734" 
d="M607 328h67v-164q0 -49 -13.5 -84t-37 -53t-48.5 -25.5t-54 -7.5q-91 0 -128 73q-34 -73 -121 -73q-93 0 -124 76q-40 -70 -128 -70h-40v67h34q113 0 113 112v72h67v-86q0 -102 88 -102q85 0 85 102v126h67v-126q0 -102 88 -102q85 0 85 101v164zM488 -153h-72v77h72v-77
zM362 -153h-72v77h72v-77zM425 -281h-72v77h72v-77z" />
    <glyph glyph-name="seenThreedotsbelowar.medi" unicode="&#x69b;" horiz-adv-x="802" 
d="M801 67h21v-67h-40q-102 0 -145 70q-32 -76 -123 -76q-90 0 -121 72q-34 -72 -122 -72q-91 0 -123 76q-39 -70 -128 -70h-40v67h30q117 0 117 112v72h67v-85q0 -103 88 -103q85 0 85 103v125h67v-125q0 -103 88 -103q85 0 85 103v162h67v-137q0 -62 28 -93t99 -31z
M488 -153h-72v77h72v-77zM362 -153h-72v77h72v-77zM425 -281h-72v77h72v-77z" />
    <glyph glyph-name="seenThreedotsbelowar.fina" unicode="&#x69b;" horiz-adv-x="1165" 
d="M1163 67h22v-67h-41q-101 0 -144 70q-32 -76 -123 -76q-89 0 -121 71q-33 -71 -111 -71q-57 0 -90 39q-11 -104 -73 -166t-178 -62q-127 0 -190 77t-63 201v109h67v-110q0 -95 46.5 -152.5t141.5 -57.5t140 57.5t45 152.5v169h67v-103q0 -38 23 -61.5t64 -23.5
q85 0 85 102v126h67v-126q0 -102 88 -102q85 0 85 102v163h67v-137q0 -62 28 -93t98 -31zM852 -153h-72v77h72v-77zM726 -153h-72v77h72v-77zM789 -281h-72v77h72v-77z" />
    <glyph glyph-name="seenThreedotsbelowThreedotsar.init" unicode="&#x69c;" horiz-adv-x="734" 
d="M607 328h67v-164q0 -49 -13.5 -84t-37 -53t-48.5 -25.5t-54 -7.5q-91 0 -128 73q-34 -73 -121 -73q-93 0 -124 76q-40 -70 -128 -70h-40v67h34q113 0 113 112v72h67v-86q0 -102 88 -102q85 0 85 102v126h67v-126q0 -102 88 -102q85 0 85 101v164zM303 464h72v-77h-72v77z
M429 464h72v-77h-72v77zM365 601h72v-77h-72v77zM488 -153h-72v77h72v-77zM362 -153h-72v77h72v-77zM425 -281h-72v77h72v-77z" />
    <glyph glyph-name="seenThreedotsbelowThreedotsar.medi" unicode="&#x69c;" horiz-adv-x="802" 
d="M801 67h21v-67h-40q-102 0 -145 70q-32 -76 -123 -76q-90 0 -121 72q-34 -72 -122 -72q-91 0 -123 76q-39 -70 -128 -70h-40v67h30q117 0 117 112v72h67v-85q0 -103 88 -103q85 0 85 103v125h67v-125q0 -103 88 -103q85 0 85 103v162h67v-137q0 -62 28 -93t99 -31z
M303 464h72v-77h-72v77zM429 464h72v-77h-72v77zM365 601h72v-77h-72v77zM488 -153h-72v77h72v-77zM362 -153h-72v77h72v-77zM425 -281h-72v77h72v-77z" />
    <glyph glyph-name="seenThreedotsbelowThreedotsar.fina" unicode="&#x69c;" horiz-adv-x="1165" 
d="M1163 67h22v-67h-41q-101 0 -144 70q-32 -76 -123 -76q-89 0 -121 71q-33 -71 -111 -71q-57 0 -90 39q-11 -104 -73 -166t-178 -62q-127 0 -190 77t-63 201v109h67v-110q0 -95 46.5 -152.5t141.5 -57.5t140 57.5t45 152.5v169h67v-103q0 -38 23 -61.5t64 -23.5
q85 0 85 102v126h67v-126q0 -102 88 -102q85 0 85 102v163h67v-137q0 -62 28 -93t98 -31zM665 464h72v-77h-72v77zM791 464h72v-77h-72v77zM727 601h72v-77h-72v77zM852 -153h-72v77h72v-77zM726 -153h-72v77h72v-77zM789 -281h-72v77h72v-77z" />
    <glyph glyph-name="sadTwodotsbelowar.init" unicode="&#x69d;" horiz-adv-x="790" 
d="M546 397q92 0 147.5 -54.5t55.5 -143.5q0 -90 -57.5 -144.5t-155.5 -54.5h-199v-68h-67v68q-104 0 -132 67q-30 -67 -118 -67h-40v67h29q52 0 77 22t25 82v53h67v-54q0 -58 20.5 -79.5t71.5 -23.5q4 165 84 247.5t192 82.5zM337 67h199q68 0 106.5 35t38.5 97
q0 61 -36.5 96t-99.5 35q-38 0 -72.5 -13.5t-65 -42.5t-49.5 -82.5t-21 -124.5zM197 -145h72v-77h-72v77zM339 -145h72v-77h-72v77z" />
    <glyph glyph-name="sadTwodotsbelowar.medi" unicode="&#x69d;" horiz-adv-x="843" 
d="M809 67h54v-67h-55q-88 0 -132 41q-57 -41 -140 -41h-199v-68h-67v68q-104 0 -132 67q-30 -67 -118 -67h-40v67h29q52 0 77 22t25 82v53h67v-54q0 -58 20.5 -79.5t71.5 -23.5q4 165 84 247.5t192 82.5q92 0 147.5 -54.5t55.5 -143.5q0 -60 -28 -107q29 -25 88 -25z
M337 67h199q68 0 106.5 35t38.5 97q0 61 -36.5 96t-99.5 35q-38 0 -72.5 -13.5t-65 -42.5t-49.5 -82.5t-21 -124.5zM197 -145h72v-77h-72v77zM339 -145h72v-77h-72v77z" />
    <glyph glyph-name="sadTwodotsbelowar.fina" unicode="&#x69d;" horiz-adv-x="1223" 
d="M1188 67h54v-67h-55q-85 0 -131 41q-57 -41 -141 -41h-199v-68h-67v68q-64 0 -93 35q-11 -105 -73 -167.5t-179 -62.5q-127 0 -190 77t-63 201v109h67v-110q0 -95 46.5 -152.5t141.5 -57.5t140 57.5t45 152.5v168h67v-86q0 -93 91 -97q2 85 26.5 150.5t64.5 103.5t87 57
t99 19q89 0 146 -54.5t57 -146.5q0 -59 -27 -105q28 -24 86 -24zM716 67h199q68 0 107 34t39 96t-38 97.5t-98 35.5q-39 0 -73.5 -13.5t-65 -42.5t-49.5 -82.5t-21 -124.5zM577 -145h72v-77h-72v77zM719 -145h72v-77h-72v77z" />
    <glyph glyph-name="sadThreedotsar.init" unicode="&#x69e;" horiz-adv-x="790" 
d="M546 397q92 0 147.5 -54.5t55.5 -143.5q0 -90 -57.5 -144.5t-155.5 -54.5h-199v-68h-67v68q-104 0 -132 67q-30 -67 -118 -67h-40v67h29q52 0 77 22t25 82v53h67v-54q0 -58 20.5 -79.5t71.5 -23.5q4 165 84 247.5t192 82.5zM337 67h199q68 0 106.5 35t38.5 97
q0 61 -36.5 96t-99.5 35q-38 0 -72.5 -13.5t-65 -42.5t-49.5 -82.5t-21 -124.5zM444 560h72v-77h-72v77zM570 560h72v-77h-72v77zM506 697h72v-77h-72v77z" />
    <glyph glyph-name="sadThreedotsar.medi" unicode="&#x69e;" horiz-adv-x="843" 
d="M809 67h54v-67h-55q-88 0 -132 41q-57 -41 -140 -41h-199v-68h-67v68q-104 0 -132 67q-30 -67 -118 -67h-40v67h29q52 0 77 22t25 82v53h67v-54q0 -58 20.5 -79.5t71.5 -23.5q4 165 84 247.5t192 82.5q92 0 147.5 -54.5t55.5 -143.5q0 -60 -28 -107q29 -25 88 -25z
M337 67h199q68 0 106.5 35t38.5 97q0 61 -36.5 96t-99.5 35q-38 0 -72.5 -13.5t-65 -42.5t-49.5 -82.5t-21 -124.5zM444 560h72v-77h-72v77zM570 560h72v-77h-72v77zM506 697h72v-77h-72v77z" />
    <glyph glyph-name="sadThreedotsar.fina" unicode="&#x69e;" horiz-adv-x="1223" 
d="M1188 67h54v-67h-55q-85 0 -131 41q-57 -41 -141 -41h-199v-68h-67v68q-64 0 -93 35q-11 -105 -73 -167.5t-179 -62.5q-127 0 -190 77t-63 201v109h67v-110q0 -95 46.5 -152.5t141.5 -57.5t140 57.5t45 152.5v168h67v-86q0 -93 91 -97q2 85 26.5 150.5t64.5 103.5t87 57
t99 19q89 0 146 -54.5t57 -146.5q0 -59 -27 -105q28 -24 86 -24zM716 67h199q68 0 107 34t39 96t-38 97.5t-98 35.5q-39 0 -73.5 -13.5t-65 -42.5t-49.5 -82.5t-21 -124.5zM824 560h72v-77h-72v77zM950 560h72v-77h-72v77zM886 697h72v-77h-72v77z" />
    <glyph glyph-name="tahThreedotsar.init" unicode="&#x69f;" horiz-adv-x="630" 
d="M288 560h72v-77h-72v77zM414 560h72v-77h-72v77zM350 697h72v-77h-72v77zM380 396q92 0 146 -54.5t54 -142.5q0 -91 -59 -145t-174 -54h-367v67h118v645h67v-453q29 68 86.5 102.5t128.5 34.5zM158 67h205q73 0 111.5 34.5t38.5 96.5q0 59 -36 95t-100 36
q-37 0 -71 -12.5t-66 -40.5t-54 -81.5t-28 -127.5z" />
    <glyph glyph-name="tahThreedotsar.medi" unicode="&#x69f;" horiz-adv-x="661" 
d="M626 67h54v-67h-55q-82 0 -127 37q-57 -37 -151 -37h-367v67h118v645h67v-453q29 68 86.5 102.5t128.5 34.5q92 0 146 -54.5t54 -142.5q0 -69 -32 -114q28 -18 78 -18zM158 67h205q73 0 111.5 34.5t38.5 96.5q0 59 -36 95t-100 36q-37 0 -71 -12.5t-66 -40.5t-54 -81.5
t-28 -127.5zM288 560h72v-77h-72v77zM414 560h72v-77h-72v77zM350 697h72v-77h-72v77z" />
    <glyph glyph-name="tahThreedotsar.fina" unicode="&#x69f;" horiz-adv-x="712" 
d="M677 67h54v-67h-55q-78 0 -123 34q-57 -34 -146 -34h-367v67h118v645h67v-453q29 68 86.5 102.5t128.5 34.5q92 0 146 -54.5t54 -142.5q0 -71 -35 -118q28 -14 72 -14zM218 67h205q73 0 111.5 34.5t38.5 96.5q0 59 -36 95t-100 36q-37 0 -71 -12.5t-66 -40.5t-54 -81.5
t-28 -127.5zM348 560h72v-77h-72v77zM474 560h72v-77h-72v77zM410 697h72v-77h-72v77z" />
    <glyph glyph-name="ainThreedotsar.init" unicode="&#x6a0;" horiz-adv-x="454" 
d="M310 67h109v-67h-439v67h148q-65 54 -65 146q0 84 52 134t133 50q77 0 136 -45l-34 -54q-40 32 -94 32q-55 0 -90 -32.5t-35 -93.5q0 -57 34 -92q40 -45 145 -45zM146 560h72v-77h-72v77zM272 560h72v-77h-72v77zM208 697h72v-77h-72v77z" />
    <glyph glyph-name="ainThreedotsar.medi" unicode="&#x6a0;" horiz-adv-x="527" 
d="M376 67h171v-67h-567v67h201l-77 185q-17 40 -35 56t-53 16v63h290q72 0 114 -38t42 -104q0 -49 -30 -107q-9 -19 -22 -37q-16 -25 -34 -34zM252 67h14q43 0 70 39q14 20 35 60q23 46 23 76q0 37 -25.5 57.5t-68.5 20.5h-160q18 -21 31 -52zM140 560h72v-77h-72v77z
M266 560h72v-77h-72v77zM202 697h72v-77h-72v77z" />
    <glyph glyph-name="ainThreedotsar.fina" unicode="&#x6a0;" horiz-adv-x="587" 
d="M607 0h-355q-67 0 -109.5 -24t-42.5 -91q0 -60 42 -86t123 -26q115 0 196 50l30 -57q-95 -60 -230 -60q-107 0 -168.5 44t-61.5 133q0 91 59 136t146 48l-77 185q-18 43 -35 57.5t-53 14.5v63h290q72 0 114 -38t42 -104q0 -45 -31 -107q-12 -24 -21 -37q-16 -25 -34 -34
h176v-67zM355 320h-159q20 -27 32 -57l80 -196h13q43 0 70 39q14 20 35 60q23 46 23 76q0 37 -25.5 57.5t-68.5 20.5zM194 560h72v-77h-72v77zM320 560h72v-77h-72v77zM256 697h72v-77h-72v77z" />
    <glyph glyph-name="dotlessfehar.init" unicode="&#x6a1;" horiz-adv-x="477" 
d="M241 518q81 0 128 -53t47 -153v-118q0 -86 -49.5 -140t-157.5 -54h-229v67h232q69 0 103 31.5t34 87.5v9q-34 -63 -121 -63q-80 0 -126 50.5t-46 137.5q0 91 51 144.5t134 53.5zM235 195q53 0 83 32t30 93t-30 96.5t-83 35.5q-52 0 -82 -35t-30 -97q0 -58 28 -91.5
t84 -33.5z" />
    <glyph glyph-name="dotlessfehar.medi" unicode="&#x6a1;" horiz-adv-x="517" 
d="M372 67h165v-67h-188q-70 0 -116 26q-43 -26 -106 -26h-147v67h162q-60 45 -60 142q0 84 49 136t130 52q82 0 128 -50.5t46 -131.5q0 -99 -63 -148zM259 66q51 0 81 38t30 98t-30 94t-81 34t-81.5 -35t-30.5 -93q0 -59 30 -97.5t82 -38.5z" />
    <glyph glyph-name="dotlessfehar.fina" unicode="&#x6a1;" horiz-adv-x="968" 
d="M823 67h165v-67h-188q-71 0 -115 26q-43 -26 -105 -26h-279q-67 0 -114.5 19.5t-72 54t-35 72.5t-10.5 85v96h65v-96q0 -70 41 -117t139 -47h279q-61 46 -61 142q0 85 49 136.5t131 51.5t128 -51t46 -131q0 -99 -63 -148zM711 66q50 0 80 38t30 98q0 59 -30 93.5
t-80 34.5q-51 0 -82 -35t-31 -94t30.5 -97t82.5 -38z" />
    <glyph glyph-name="fehDotbelowar.init" unicode="&#x6a2;" horiz-adv-x="477" 
d="M241 518q81 0 128 -53t47 -153v-118q0 -86 -49.5 -140t-157.5 -54h-229v67h232q69 0 103 31.5t34 87.5v9q-34 -63 -121 -63q-80 0 -126 50.5t-46 137.5q0 91 51 144.5t134 53.5zM235 195q53 0 83 32t30 93t-30 96.5t-83 35.5q-52 0 -82 -35t-30 -97q0 -58 28 -91.5
t84 -33.5zM184 -76h72v-77h-72v77z" />
    <glyph glyph-name="fehDotbelowar.medi" unicode="&#x6a2;" horiz-adv-x="517" 
d="M372 67h165v-67h-188q-70 0 -116 26q-43 -26 -106 -26h-147v67h162q-60 45 -60 142q0 84 49 136t130 52q82 0 128 -50.5t46 -131.5q0 -99 -63 -148zM259 66q51 0 81 38t30 98t-30 94t-81 34t-81.5 -35t-30.5 -93q0 -59 30 -97.5t82 -38.5zM211 -76h72v-77h-72v77z" />
    <glyph glyph-name="fehDotbelowar.fina" unicode="&#x6a2;" horiz-adv-x="968" 
d="M823 67h165v-67h-188q-71 0 -115 26q-43 -26 -105 -26h-279q-67 0 -114.5 19.5t-72 54t-35 72.5t-10.5 85v96h65v-96q0 -70 41 -117t139 -47h279q-61 46 -61 142q0 85 49 136.5t131 51.5t128 -51t46 -131q0 -99 -63 -148zM711 66q50 0 80 38t30 98q0 59 -30 93.5
t-80 34.5q-51 0 -82 -35t-31 -94t30.5 -97t82.5 -38zM662 -76h72v-77h-72v77z" />
    <glyph glyph-name="fehDotaboveDotbelowar.init" unicode="&#x6a3;" horiz-adv-x="477" 
d="M241 518q81 0 128 -53t47 -153v-118q0 -86 -49.5 -140t-157.5 -54h-229v67h232q69 0 103 31.5t34 87.5v9q-34 -63 -121 -63q-80 0 -126 50.5t-46 137.5q0 91 51 144.5t134 53.5zM235 195q53 0 83 32t30 93t-30 96.5t-83 35.5q-52 0 -82 -35t-30 -97q0 -58 28 -91.5
t84 -33.5zM202 680h72v-77h-72v77zM184 -76h72v-77h-72v77z" />
    <glyph glyph-name="fehDotaboveDotbelowar.medi" unicode="&#x6a3;" horiz-adv-x="517" 
d="M372 67h165v-67h-188q-70 0 -116 26q-43 -26 -106 -26h-147v67h162q-60 45 -60 142q0 84 49 136t130 52q82 0 128 -50.5t46 -131.5q0 -99 -63 -148zM259 66q51 0 81 38t30 98t-30 94t-81 34t-81.5 -35t-30.5 -93q0 -59 30 -97.5t82 -38.5zM223 560h72v-77h-72v77z
M211 -76h72v-77h-72v77z" />
    <glyph glyph-name="fehDotaboveDotbelowar.fina" unicode="&#x6a3;" horiz-adv-x="968" 
d="M823 67h165v-67h-188q-71 0 -115 26q-43 -26 -105 -26h-279q-67 0 -114.5 19.5t-72 54t-35 72.5t-10.5 85v96h65v-96q0 -70 41 -117t139 -47h279q-61 46 -61 142q0 85 49 136.5t131 51.5t128 -51t46 -131q0 -99 -63 -148zM711 66q50 0 80 38t30 98q0 59 -30 93.5
t-80 34.5q-51 0 -82 -35t-31 -94t30.5 -97t82.5 -38zM675 560h72v-77h-72v77zM662 -76h72v-77h-72v77z" />
    <glyph glyph-name="vehar" unicode="&#x6a4;" horiz-adv-x="938" arabic-form="isolated" 
d="M702 518q81 0 128 -53t47 -153v-118q0 -86 -49.5 -140t-157.5 -54h-370q-67 0 -114 19.5t-71.5 54t-35 72.5t-10.5 85v96h65v-96q0 -70 41 -117t139 -47h359q69 0 103 31.5t34 87.5v9q-34 -63 -121 -63q-80 0 -126 50.5t-46 137.5q0 91 51 144.5t134 53.5zM696 195
q53 0 83 32t30 93t-30 96.5t-83 35.5q-52 0 -82 -35t-30 -97q0 -58 28 -91.5t84 -33.5zM601 680h72v-77h-72v77zM727 680h72v-77h-72v77zM663 817h72v-77h-72v77z" />
    <glyph glyph-name="fehThreedotsbelowar.init" unicode="&#x6a5;" horiz-adv-x="477" 
d="M241 518q81 0 128 -53t47 -153v-118q0 -86 -49.5 -140t-157.5 -54h-229v67h232q69 0 103 31.5t34 87.5v9q-34 -63 -121 -63q-80 0 -126 50.5t-46 137.5q0 91 51 144.5t134 53.5zM235 195q53 0 83 32t30 93t-30 96.5t-83 35.5q-52 0 -82 -35t-30 -97q0 -58 28 -91.5
t84 -33.5zM320 -153h-72v77h72v-77zM194 -153h-72v77h72v-77zM257 -281h-72v77h72v-77z" />
    <glyph glyph-name="fehThreedotsbelowar.medi" unicode="&#x6a5;" horiz-adv-x="517" 
d="M372 67h165v-67h-188q-70 0 -116 26q-43 -26 -106 -26h-147v67h162q-60 45 -60 142q0 84 49 136t130 52q82 0 128 -50.5t46 -131.5q0 -99 -63 -148zM259 66q51 0 81 38t30 98t-30 94t-81 34t-81.5 -35t-30.5 -93q0 -59 30 -97.5t82 -38.5zM347 -153h-72v77h72v-77z
M221 -153h-72v77h72v-77zM284 -281h-72v77h72v-77z" />
    <glyph glyph-name="fehThreedotsbelowar.fina" unicode="&#x6a5;" horiz-adv-x="968" 
d="M823 67h165v-67h-188q-71 0 -115 26q-43 -26 -105 -26h-279q-67 0 -114.5 19.5t-72 54t-35 72.5t-10.5 85v96h65v-96q0 -70 41 -117t139 -47h279q-61 46 -61 142q0 85 49 136.5t131 51.5t128 -51t46 -131q0 -99 -63 -148zM711 66q50 0 80 38t30 98q0 59 -30 93.5
t-80 34.5q-51 0 -82 -35t-31 -94t30.5 -97t82.5 -38zM798 -153h-72v77h72v-77zM672 -153h-72v77h72v-77zM735 -281h-72v77h72v-77z" />
    <glyph glyph-name="pehehar" unicode="&#x6a6;" horiz-adv-x="938" arabic-form="isolated" 
d="M702 518q81 0 128 -53t47 -153v-118q0 -86 -49.5 -140t-157.5 -54h-370q-67 0 -114 19.5t-71.5 54t-35 72.5t-10.5 85v96h65v-96q0 -70 41 -117t139 -47h359q69 0 103 31.5t34 87.5v9q-34 -63 -121 -63q-80 0 -126 50.5t-46 137.5q0 91 51 144.5t134 53.5zM696 195
q53 0 83 32t30 93t-30 96.5t-83 35.5q-52 0 -82 -35t-30 -97q0 -58 28 -91.5t84 -33.5zM602 680h72v-77h-72v77zM726 680h72v-77h-72v77zM602 807h72v-77h-72v77zM726 807h72v-77h-72v77z" />
    <glyph glyph-name="qafDotabovear.init" unicode="&#x6a7;" horiz-adv-x="477" 
d="M241 518q81 0 128 -53t47 -153v-118q0 -86 -49.5 -140t-157.5 -54h-229v67h232q69 0 103 31.5t34 87.5v9q-34 -63 -121 -63q-80 0 -126 50.5t-46 137.5q0 91 51 144.5t134 53.5zM235 195q53 0 83 32t30 93t-30 96.5t-83 35.5q-52 0 -82 -35t-30 -97q0 -58 28 -91.5
t84 -33.5zM202 680h72v-77h-72v77z" />
    <glyph glyph-name="qafDotabovear.medi" unicode="&#x6a7;" horiz-adv-x="517" 
d="M372 67h165v-67h-188q-70 0 -116 26q-43 -26 -106 -26h-147v67h162q-60 45 -60 142q0 84 49 136t130 52q82 0 128 -50.5t46 -131.5q0 -99 -63 -148zM259 66q51 0 81 38t30 98t-30 94t-81 34t-81.5 -35t-30.5 -93q0 -59 30 -97.5t82 -38.5zM223 560h72v-77h-72v77z" />
    <glyph glyph-name="qafDotabovear.fina" unicode="&#x6a7;" horiz-adv-x="811" 
d="M831 67v-67h-88q-5 -86 -53 -140.5t-141 -54.5h-265q-116 0 -174.5 66t-58.5 168v107h65v-107q0 -74 43.5 -120.5t137.5 -46.5h249q117 0 129 128h-84q-109 0 -162 57q-47 50 -47 138q0 89 47 145.5t138 56.5q67 0 110 -34q66 -52 66 -204v-92h88zM478 106
q34 -39 122 -39h76v83q0 122 -43 159q-26 22 -69 22q-53 0 -83.5 -36.5t-30.5 -98.5q0 -57 28 -90zM531 560h72v-77h-72v77z" />
    <glyph glyph-name="qafThreedotsabovear.init" unicode="&#x6a8;" horiz-adv-x="477" 
d="M241 518q81 0 128 -53t47 -153v-118q0 -86 -49.5 -140t-157.5 -54h-229v67h232q69 0 103 31.5t34 87.5v9q-34 -63 -121 -63q-80 0 -126 50.5t-46 137.5q0 91 51 144.5t134 53.5zM235 195q53 0 83 32t30 93t-30 96.5t-83 35.5q-52 0 -82 -35t-30 -97q0 -58 28 -91.5
t84 -33.5zM140 680h72v-77h-72v77zM266 680h72v-77h-72v77zM202 817h72v-77h-72v77z" />
    <glyph glyph-name="qafThreedotsabovear.medi" unicode="&#x6a8;" horiz-adv-x="517" 
d="M372 67h165v-67h-188q-70 0 -116 26q-43 -26 -106 -26h-147v67h162q-60 45 -60 142q0 84 49 136t130 52q82 0 128 -50.5t46 -131.5q0 -99 -63 -148zM259 66q51 0 81 38t30 98t-30 94t-81 34t-81.5 -35t-30.5 -93q0 -59 30 -97.5t82 -38.5zM161 560h72v-77h-72v77z
M287 560h72v-77h-72v77zM223 697h72v-77h-72v77z" />
    <glyph glyph-name="qafThreedotsabovear.fina" unicode="&#x6a8;" horiz-adv-x="811" 
d="M831 67v-67h-88q-5 -86 -53 -140.5t-141 -54.5h-265q-116 0 -174.5 66t-58.5 168v107h65v-107q0 -74 43.5 -120.5t137.5 -46.5h249q117 0 129 128h-84q-109 0 -162 57q-47 50 -47 138q0 89 47 145.5t138 56.5q67 0 110 -34q66 -52 66 -204v-92h88zM478 106
q34 -39 122 -39h76v83q0 122 -43 159q-26 22 -69 22q-53 0 -83.5 -36.5t-30.5 -98.5q0 -57 28 -90zM469 560h72v-77h-72v77zM595 560h72v-77h-72v77zM531 697h72v-77h-72v77z" />
    <glyph glyph-name="kehehar" unicode="&#x6a9;" horiz-adv-x="924" arabic-form="isolated" 
d="M892 720v-73l-306 -106l101 -266q26 -68 26 -120q0 -65 -36.5 -110t-110.5 -45h-274q-232 0 -232 233v94h65v-94q0 -70 41 -118t139 -48h254q42 0 64.5 25t22.5 68q0 38 -22 95l-105 272v60z" />
    <glyph glyph-name="kafswashar.init" unicode="&#x6aa;" horiz-adv-x="1312" 
d="M1198 277q54 -49 54 -160v-117h-1272v67h1204v48q0 81 -34 112t-121 31h-970v43q0 146 59 225q46 61 124.5 85t204.5 24h102v-67h-96q-114 0 -178 -17t-102 -66q-43 -57 -46 -160h901q118 0 170 -48z" />
    <glyph glyph-name="kafswashar.medi" unicode="&#x6aa;" horiz-adv-x="1377" 
d="M1373 67h24v-67h-42q-100 0 -128 76q-5 -13 -13 -24q-39 -52 -153 -52h-1081v67h1079q91 0 120 29q25 25 25 66q0 37 -21 61q-29 35 -123 35h-1001v43q0 146 59 225q46 61 124.5 85t204.5 24h102v-67h-96q-114 0 -178 -17t-102 -66q-43 -57 -46 -159h943q123 0 170 -59
q26 -33 31 -90.5t20 -76.5q25 -33 82 -33z" />
    <glyph glyph-name="kafswashar.fina" unicode="&#x6aa;" horiz-adv-x="1835" 
d="M1831 67h24v-67h-42q-100 0 -128 76q-5 -13 -13 -24q-39 -52 -153 -52h-1227q-232 0 -232 233v59h65v-59q0 -70 41 -118t139 -48h1212q91 0 120 29q25 25 25 66q0 37 -21 61q-29 35 -123 35h-1001v43q0 146 59 225q46 61 124.5 85t204.5 24h102v-67h-96q-114 0 -178 -17
t-102 -66q-43 -57 -46 -159h943q123 0 170 -59q26 -33 31 -90.5t20 -76.5q25 -33 82 -33z" />
    <glyph glyph-name="kafRingar.init" unicode="&#x6ab;" horiz-adv-x="464" 
d="M432 720v-73l-90 -31q35 -25 35 -76q0 -41 -26 -66.5t-67 -25.5q-42 0 -67.5 25.5t-25.5 66.5q0 14 3 24l-68 -23l101 -266q26 -68 26 -120q0 -65 -36.5 -110t-110.5 -45h-126v67h119q42 0 64.5 25t22.5 68q0 38 -22 95l-105 272v60zM285 491q21 0 34.5 14t13.5 35
q0 22 -13.5 35.5t-34.5 13.5q-22 0 -36 -13.5t-14 -35.5q0 -21 14 -35t36 -14z" />
    <glyph glyph-name="kafRingar.medi" unicode="&#x6ab;" horiz-adv-x="472" 
d="M382 67h110v-67h-142q-46 0 -75 21t-49 66q-11 -39 -42.5 -63t-77.5 -24h-126v67h119q43 0 65 25t22 69q0 37 -22 94l-105 272v60l373 133v-73l-90 -31q35 -25 35 -76q0 -41 -26 -66.5t-67 -25.5q-42 0 -67.5 25.5t-25.5 66.5q0 14 3 24l-68 -23l153 -401
q16 -43 37.5 -58t65.5 -15zM285 491q21 0 34.5 14t13.5 35q0 22 -13.5 35.5t-34.5 13.5q-22 0 -36 -13.5t-14 -35.5q0 -21 14 -35t36 -14z" />
    <glyph glyph-name="kafRingar.fina" unicode="&#x6ab;" horiz-adv-x="932" 
d="M842 67h110v-67h-142q-46 0 -75 21t-49 66q-11 -39 -42.5 -63t-77.5 -24h-274q-232 0 -232 233v94h65v-94q0 -70 41 -118t139 -48h254q43 0 65 25t22 69q0 37 -22 94l-105 272v60l373 133v-73l-90 -31q35 -25 35 -76q0 -41 -26 -66.5t-67 -25.5q-42 0 -67.5 25.5
t-25.5 66.5q0 14 3 24l-68 -23l153 -401q16 -43 37.5 -58t65.5 -15zM745 491q21 0 34.5 14t13.5 35q0 22 -13.5 35.5t-34.5 13.5q-22 0 -36 -13.5t-14 -35.5q0 -21 14 -35t36 -14z" />
    <glyph glyph-name="kafDotabovear.init" unicode="&#x6ac;" horiz-adv-x="464" 
d="M126 541l101 -266q26 -68 26 -120q0 -65 -36.5 -110t-110.5 -45h-126v67h119q42 0 64.5 25t22.5 68q0 38 -22 95l-105 272v60l373 133v-73zM177 827h72v-77h-72v77z" />
    <glyph glyph-name="kafDotabovear.medi" unicode="&#x6ac;" horiz-adv-x="472" 
d="M381 67h111v-67h-142q-46 0 -75 21t-49 66q-11 -39 -42.5 -63t-77.5 -24h-126v67h119q43 0 65 25t22 69q0 37 -22 94l-105 272v60l373 133v-73l-306 -106l152 -399q17 -44 38.5 -59.5t64.5 -15.5zM177 827h72v-77h-72v77z" />
    <glyph glyph-name="kafDotabovear.fina" unicode="&#x6ac;" horiz-adv-x="894" 
d="M892 67h22v-67h-44q-58 0 -92 19.5t-54 60.5q-36 -80 -162 -80h-260q-242 0 -242 241v88h65v-88q0 -174 185 -174h263q65 0 95.5 30.5t30.5 82.5v532h67v-530q0 -54 26.5 -84.5t99.5 -30.5zM526 345v-66h-200v48h148v18q0 36 -37 36h-91v43l72 110h56l-68 -105h38
q37 0 59.5 -22t22.5 -62zM394 689h72v-77h-72v77z" />
    <glyph glyph-name="ngar" unicode="&#x6ad;" horiz-adv-x="826" arabic-form="isolated" 
d="M766 712v-529q0 -90 -49 -136.5t-144 -46.5h-271q-242 0 -242 242v87h65v-87q0 -81 41 -128t144 -47h263q126 0 126 116v529h67zM474 327v18q0 36 -37 36h-91v43l72 110h56l-68 -105h38q37 0 59.5 -22t22.5 -62v-66h-200v48h148zM332 689h72v-77h-72v77zM458 689h72v-77
h-72v77zM394 826h72v-77h-72v77z" />
    <glyph glyph-name="kafThreedotsbelowar.init" unicode="&#x6ae;" horiz-adv-x="464" 
d="M126 541l101 -266q26 -68 26 -120q0 -65 -36.5 -110t-110.5 -45h-126v67h119q42 0 64.5 25t22.5 68q0 38 -22 95l-105 272v60l373 133v-73zM225 -153h-72v77h72v-77zM99 -153h-72v77h72v-77zM162 -281h-72v77h72v-77z" />
    <glyph glyph-name="kafThreedotsbelowar.medi" unicode="&#x6ae;" horiz-adv-x="472" 
d="M381 67h111v-67h-142q-46 0 -75 21t-49 66q-11 -39 -42.5 -63t-77.5 -24h-126v67h119q43 0 65 25t22 69q0 37 -22 94l-105 272v60l373 133v-73l-306 -106l152 -399q17 -44 38.5 -59.5t64.5 -15.5zM294 -153h-72v77h72v-77zM168 -153h-72v77h72v-77zM231 -281h-72v77h72
v-77z" />
    <glyph glyph-name="kafThreedotsbelowar.fina" unicode="&#x6ae;" horiz-adv-x="894" 
d="M892 67h22v-67h-44q-58 0 -92 19.5t-54 60.5q-36 -80 -162 -80h-260q-242 0 -242 241v88h65v-88q0 -174 185 -174h263q65 0 95.5 30.5t30.5 82.5v532h67v-530q0 -54 26.5 -84.5t99.5 -30.5zM526 345v-66h-200v48h148v18q0 36 -37 36h-91v43l72 110h56l-68 -105h38
q37 0 59.5 -22t22.5 -62zM533 -153h-72v77h72v-77zM407 -153h-72v77h72v-77zM470 -281h-72v77h72v-77z" />
    <glyph glyph-name="gafar" unicode="&#x6af;" horiz-adv-x="924" arabic-form="isolated" 
d="M892 720v-73l-306 -106l101 -266q26 -68 26 -120q0 -65 -36.5 -110t-110.5 -45h-274q-232 0 -232 233v94h65v-94q0 -70 41 -118t139 -48h254q42 0 64.5 25t22.5 68q0 38 -22 95l-105 272v60zM879 859v-60l-370 -129v58z" />
    <glyph glyph-name="gafRingar.init" unicode="&#x6b0;" horiz-adv-x="464" 
d="M432 720v-73l-90 -31q35 -25 35 -76q0 -41 -26 -66.5t-67 -25.5q-42 0 -67.5 25.5t-25.5 66.5q0 14 3 24l-68 -23l101 -266q26 -68 26 -120q0 -65 -36.5 -110t-110.5 -45h-126v67h119q42 0 64.5 25t22.5 68q0 38 -22 95l-105 272v60zM285 491q21 0 34.5 14t13.5 35
q0 22 -13.5 35.5t-34.5 13.5q-22 0 -36 -13.5t-14 -35.5q0 -21 14 -35t36 -14zM419 859v-60l-370 -129v58z" />
    <glyph glyph-name="gafRingar.medi" unicode="&#x6b0;" horiz-adv-x="472" 
d="M382 67h110v-67h-142q-46 0 -75 21t-49 66q-11 -39 -42.5 -63t-77.5 -24h-126v67h119q43 0 65 25t22 69q0 37 -22 94l-105 272v60l373 133v-73l-90 -31q35 -25 35 -76q0 -41 -26 -66.5t-67 -25.5q-42 0 -67.5 25.5t-25.5 66.5q0 14 3 24l-68 -23l153 -401
q16 -43 37.5 -58t65.5 -15zM285 491q21 0 34.5 14t13.5 35q0 22 -13.5 35.5t-34.5 13.5q-22 0 -36 -13.5t-14 -35.5q0 -21 14 -35t36 -14zM419 859v-60l-370 -129v58z" />
    <glyph glyph-name="gafRingar.fina" unicode="&#x6b0;" horiz-adv-x="932" 
d="M842 67h110v-67h-142q-46 0 -75 21t-49 66q-11 -39 -42.5 -63t-77.5 -24h-274q-232 0 -232 233v94h65v-94q0 -70 41 -118t139 -48h254q43 0 65 25t22 69q0 37 -22 94l-105 272v60l373 133v-73l-90 -31q35 -25 35 -76q0 -41 -26 -66.5t-67 -25.5q-42 0 -67.5 25.5
t-25.5 66.5q0 14 3 24l-68 -23l153 -401q16 -43 37.5 -58t65.5 -15zM745 491q21 0 34.5 14t13.5 35q0 22 -13.5 35.5t-34.5 13.5q-22 0 -36 -13.5t-14 -35.5q0 -21 14 -35t36 -14zM879 859v-60l-370 -129v58z" />
    <glyph glyph-name="ngoehar" unicode="&#x6b1;" horiz-adv-x="924" arabic-form="isolated" 
d="M564 954h72v-77h-72v77zM706 954h72v-77h-72v77zM892 720v-73l-306 -106l101 -266q26 -68 26 -120q0 -65 -36.5 -110t-110.5 -45h-274q-232 0 -232 233v94h65v-94q0 -70 41 -118t139 -48h254q42 0 64.5 25t22.5 68q0 38 -22 95l-105 272v60zM879 859v-60l-370 -129v58z
" />
    <glyph glyph-name="gafTwodotsbelowar.init" unicode="&#x6b2;" horiz-adv-x="464" 
d="M19 -76h72v-77h-72v77zM161 -76h72v-77h-72v77zM126 541l101 -266q26 -68 26 -120q0 -65 -36.5 -110t-110.5 -45h-126v67h119q42 0 64.5 25t22.5 68q0 38 -22 95l-105 272v60l373 133v-73zM419 859v-60l-370 -129v58z" />
    <glyph glyph-name="gafTwodotsbelowar.medi" unicode="&#x6b2;" horiz-adv-x="472" 
d="M88 -76h72v-77h-72v77zM230 -76h72v-77h-72v77zM381 67h111v-67h-142q-46 0 -75 21t-49 66q-11 -39 -42.5 -63t-77.5 -24h-126v67h119q43 0 65 25t22 69q0 37 -22 94l-105 272v60l373 133v-73l-306 -106l152 -399q17 -44 38.5 -59.5t64.5 -15.5zM419 859v-60l-370 -129
v58z" />
    <glyph glyph-name="gafTwodotsbelowar.fina" unicode="&#x6b2;" horiz-adv-x="932" 
d="M278 -76h72v-77h-72v77zM420 -76h72v-77h-72v77zM842 67h110v-67h-142q-46 0 -75 21t-49 66q-11 -39 -42.5 -63t-77.5 -24h-274q-232 0 -232 233v94h65v-94q0 -70 41 -118t139 -48h254q43 0 65 25t22 69q0 37 -22 94l-105 272v60l373 133v-73l-306 -106l152 -398
q17 -44 38 -60t66 -16zM879 859v-60l-370 -129v58z" />
    <glyph glyph-name="guehar" unicode="&#x6b3;" horiz-adv-x="924" arabic-form="isolated" 
d="M348 -191h72v-77h-72v77zM348 -76h72v-77h-72v77zM892 720v-73l-306 -106l101 -266q26 -68 26 -120q0 -65 -36.5 -110t-110.5 -45h-274q-232 0 -232 233v94h65v-94q0 -70 41 -118t139 -48h254q42 0 64.5 25t22.5 68q0 38 -22 95l-105 272v60zM879 859v-60l-370 -129v58z
" />
    <glyph glyph-name="gafThreedotsar.init" unicode="&#x6b4;" horiz-adv-x="464" 
d="M112 955h72v-77h-72v77zM238 955h72v-77h-72v77zM174 1092h72v-77h-72v77zM126 541l101 -266q26 -68 26 -120q0 -65 -36.5 -110t-110.5 -45h-126v67h119q42 0 64.5 25t22.5 68q0 38 -22 95l-105 272v60l373 133v-73zM419 859v-60l-370 -129v58z" />
    <glyph glyph-name="gafThreedotsar.medi" unicode="&#x6b4;" horiz-adv-x="472" 
d="M112 955h72v-77h-72v77zM238 955h72v-77h-72v77zM174 1092h72v-77h-72v77zM381 67h111v-67h-142q-46 0 -75 21t-49 66q-11 -39 -42.5 -63t-77.5 -24h-126v67h119q43 0 65 25t22 69q0 37 -22 94l-105 272v60l373 133v-73l-306 -106l152 -399q17 -44 38.5 -59.5t64.5 -15.5
zM419 859v-60l-370 -129v58z" />
    <glyph glyph-name="gafThreedotsar.fina" unicode="&#x6b4;" horiz-adv-x="932" 
d="M572 955h72v-77h-72v77zM698 955h72v-77h-72v77zM634 1092h72v-77h-72v77zM842 67h110v-67h-142q-46 0 -75 21t-49 66q-11 -39 -42.5 -63t-77.5 -24h-274q-232 0 -232 233v94h65v-94q0 -70 41 -118t139 -48h254q43 0 65 25t22 69q0 37 -22 94l-105 272v60l373 133v-73
l-306 -106l152 -398q17 -44 38 -60t66 -16zM879 859v-60l-370 -129v58z" />
    <glyph glyph-name="lamVabovear.init" unicode="&#x6b5;" horiz-adv-x="257" 
d="M-20 0v67h23q71 0 95 32q21 30 21 112v337h67v-339q0 -103 -31 -148q-41 -61 -135 -61h-40zM155 644l47 103h41l-64 -140h-50l-66 140h43z" />
    <glyph glyph-name="lamVabovear.medi" unicode="&#x6b5;" 
d="M319 67h22v-67h-46q-107 0 -142 82q-34 -82 -133 -82h-40v67h29q118 0 118 117v364h67v-363q0 -56 26 -87t99 -31zM163 644l47 103h41l-64 -140h-50l-66 140h43z" />
    <glyph glyph-name="lamVabovear.fina" unicode="&#x6b5;" horiz-adv-x="674" 
d="M674 67h20v-67h-40q-77 0 -110 46q-13 -241 -246 -241q-127 0 -182.5 67.5t-55.5 192.5v34h65v-31q0 -96 40 -146t136 -50q99 0 139 52t40 158v466h65v-365q0 -116 129 -116zM515 644l47 103h41l-64 -140h-50l-66 140h43z" />
    <glyph glyph-name="lamDotabovear.init" unicode="&#x6b6;" horiz-adv-x="257" 
d="M-20 0v67h23q71 0 95 32q21 30 21 112v337h67v-339q0 -103 -31 -148q-41 -61 -135 -61h-40zM116 691h72v-77h-72v77z" />
    <glyph glyph-name="lamDotabovear.medi" unicode="&#x6b6;" 
d="M319 67h22v-67h-46q-107 0 -142 82q-34 -82 -133 -82h-40v67h29q118 0 118 117v364h67v-363q0 -56 26 -87t99 -31zM124 691h72v-77h-72v77z" />
    <glyph glyph-name="lamDotabovear.fina" unicode="&#x6b6;" horiz-adv-x="674" 
d="M674 67h20v-67h-40q-77 0 -110 46q-13 -241 -246 -241q-127 0 -182.5 67.5t-55.5 192.5v34h65v-31q0 -96 40 -146t136 -50q99 0 139 52t40 158v466h65v-365q0 -116 129 -116zM476 691h72v-77h-72v77z" />
    <glyph glyph-name="lamThreedotsabovear.init" unicode="&#x6b7;" horiz-adv-x="257" 
d="M-20 0v67h23q71 0 95 32q21 30 21 112v337h67v-339q0 -103 -31 -148q-41 -61 -135 -61h-40zM54 691h72v-77h-72v77zM180 691h72v-77h-72v77zM116 828h72v-77h-72v77z" />
    <glyph glyph-name="lamThreedotsabovear.medi" unicode="&#x6b7;" 
d="M319 67h22v-67h-46q-107 0 -142 82q-34 -82 -133 -82h-40v67h29q118 0 118 117v364h67v-363q0 -56 26 -87t99 -31zM62 691h72v-77h-72v77zM188 691h72v-77h-72v77zM124 828h72v-77h-72v77z" />
    <glyph glyph-name="lamThreedotsabovear.fina" unicode="&#x6b7;" horiz-adv-x="674" 
d="M674 67h20v-67h-40q-77 0 -110 46q-13 -241 -246 -241q-127 0 -182.5 67.5t-55.5 192.5v34h65v-31q0 -96 40 -146t136 -50q99 0 139 52t40 158v466h65v-365q0 -116 129 -116zM414 691h72v-77h-72v77zM540 691h72v-77h-72v77zM476 828h72v-77h-72v77z" />
    <glyph glyph-name="lamThreedotsbelowar.init" unicode="&#x6b8;" horiz-adv-x="257" 
d="M-20 0v67h23q71 0 95 32q21 28 21 112v501h67v-503q0 -103 -31 -148q-41 -61 -135 -61h-40zM226 -153h-72v77h72v-77zM100 -153h-72v77h72v-77zM163 -281h-72v77h72v-77z" />
    <glyph glyph-name="lamThreedotsbelowar.medi" unicode="&#x6b8;" 
d="M319 67h22v-67h-46q-107 0 -142 82q-34 -82 -133 -82h-40v67h29q118 0 118 117v528h67v-527q0 -56 26 -87t99 -31zM250 -153h-72v77h72v-77zM124 -153h-72v77h72v-77zM187 -281h-72v77h72v-77z" />
    <glyph glyph-name="lamThreedotsbelowar.fina" unicode="&#x6b8;" horiz-adv-x="674" 
d="M674 67h19v-67h-39q-76 0 -110 47q-13 -242 -243 -242q-241 0 -241 260v34h65v-31q0 -96 41 -146t138 -50q99 0 137.5 51.5t38.5 158.5v553h65v-452q0 -116 129 -116zM397 -348h-72v77h72v-77zM271 -348h-72v77h72v-77zM334 -476h-72v77h72v-77z" />
    <glyph glyph-name="noonDotbelowar.init" unicode="&#x6b9;" horiz-adv-x="269" 
d="M102 -76h72v-77h-72v77zM-20 0v67h39q113 0 113 114v147h66v-147q0 -87 -45.5 -134t-132.5 -47h-40zM128 521h72v-77h-72v77z" />
    <glyph glyph-name="noonDotbelowar.medi" unicode="&#x6b9;" 
d="M116 -76h72v-77h-72v77zM320 67h21v-67h-54q-48 0 -83.5 22t-50.5 58q-37 -80 -132 -80h-41v67h21q66 0 96 27.5t30 87.5v146h67v-145q0 -55 27 -85.5t99 -30.5zM124 521h72v-77h-72v77z" />
    <glyph glyph-name="noonDotbelowar.fina" unicode="&#x6b9;" horiz-adv-x="686" 
d="M267 -271h72v-77h-72v77zM686 67h20v-67h-40q-74 0 -109 46q-9 -110 -71 -175.5t-182 -65.5q-127 0 -190 77t-63 201v245h67v-246q0 -95 46.5 -152.5t141.5 -57.5t140 57.5t45 152.5v246h67v-145q0 -116 128 -116zM267 501h72v-77h-72v77z" />
    <glyph glyph-name="noonghunnaar" unicode="&#x6ba;" horiz-adv-x="608" arabic-form="isolated" 
d="M306 -128q95 0 140 57.5t45 152.5v246h67v-246q0 -125 -62 -201t-192 -76q-127 0 -190 77t-63 201v245h67v-246q0 -95 46.5 -152.5t141.5 -57.5z" />
    <glyph glyph-name="rnoonar" unicode="&#x6bb;" horiz-adv-x="608" arabic-form="isolated" 
d="M306 -128q95 0 140 57.5t45 152.5v246h67v-246q0 -125 -62 -201t-192 -76q-127 0 -190 77t-63 201v245h67v-246q0 -95 46.5 -152.5t141.5 -57.5zM343 575q26 0 45.5 -16.5t19.5 -49.5q0 -37 -20 -56.5t-68 -28.5l-116 -23v40l33 6l4 165l39 9l-3 -82q25 36 66 36z
M277 455l45 8q48 8 48 41t-29 33q-28 0 -44.5 -23t-19.5 -59z" />
    <glyph glyph-name="noonRingar.init" unicode="&#x6bc;" horiz-adv-x="269" 
d="M143 38q58 -19 58 -87q0 -41 -26 -66.5t-67 -25.5q-42 0 -67.5 25.5t-25.5 66.5q0 28 12 49h-47v67h39q113 0 113 114v147h66v-147q0 -97 -55 -143zM109 -98q21 0 34.5 14t13.5 35q0 22 -13.5 35.5t-34.5 13.5q-22 0 -36 -13.5t-14 -35.5q0 -21 14 -35t36 -14zM128 521
h72v-77h-72v77z" />
    <glyph glyph-name="noonRingar.medi" unicode="&#x6bc;" 
d="M320 67h21v-67h-54q-48 0 -83.5 22t-50.5 58q-11 -23 -29 -41q28 -9 44 -32t16 -56q0 -41 -26 -66.5t-67 -25.5q-42 0 -67.5 25.5t-25.5 66.5q0 28 12 49h-30v67h21q66 0 96 27.5t30 87.5v146h67v-145q0 -55 27 -85.5t99 -30.5zM140 -49q0 22 -13.5 35.5t-34.5 13.5
q-22 0 -36 -13.5t-14 -35.5q0 -21 14 -35t36 -14q21 0 34.5 14t13.5 35zM124 521h72v-77h-72v77z" />
    <glyph glyph-name="noonRingar.fina" unicode="&#x6bc;" horiz-adv-x="686" 
d="M686 67h20v-67h-40q-74 0 -109 46q-7 -90 -50.5 -152t-126.5 -81q17 -23 17 -57q0 -41 -26 -66.5t-67 -25.5q-42 0 -67.5 25.5t-25.5 66.5q0 33 17 58q-89 22 -133 93.5t-44 175.5v245h67v-246q0 -95 46.5 -152.5t141.5 -57.5t140 57.5t45 152.5v246h67v-145
q0 -116 128 -116zM305 -293q21 0 34.5 14t13.5 35q0 22 -13.5 35.5t-34.5 13.5q-22 0 -36 -13.5t-14 -35.5q0 -21 14 -35t36 -14zM267 501h72v-77h-72v77z" />
    <glyph glyph-name="noonThreedotsabovear.init" unicode="&#x6bd;" horiz-adv-x="269" 
d="M-20 0v67h39q113 0 113 114v147h66v-147q0 -87 -45.5 -134t-132.5 -47h-40zM66 521h72v-77h-72v77zM192 521h72v-77h-72v77zM128 658h72v-77h-72v77z" />
    <glyph glyph-name="noonThreedotsabovear.medi" unicode="&#x6bd;" 
d="M320 67h21v-67h-54q-48 0 -83.5 22t-50.5 58q-37 -80 -132 -80h-41v67h21q66 0 96 27.5t30 87.5v146h67v-145q0 -55 27 -85.5t99 -30.5zM62 521h72v-77h-72v77zM188 521h72v-77h-72v77zM124 658h72v-77h-72v77z" />
    <glyph glyph-name="noonThreedotsabovear.fina" unicode="&#x6bd;" horiz-adv-x="686" 
d="M686 67h20v-67h-40q-74 0 -109 46q-9 -110 -71 -175.5t-182 -65.5q-127 0 -190 77t-63 201v245h67v-246q0 -95 46.5 -152.5t141.5 -57.5t140 57.5t45 152.5v246h67v-145q0 -116 128 -116zM205 501h72v-77h-72v77zM331 501h72v-77h-72v77zM267 638h72v-77h-72v77z" />
    <glyph glyph-name="hehDoachashmeear" unicode="&#x6be;" horiz-adv-x="669" arabic-form="isolated" 
d="M386 486q103 0 163 -67.5t60 -177.5v-82q0 -78 -46.5 -118.5t-123.5 -40.5h-78q-63 0 -99 24q-32 -24 -100 -24h-127v67h130q-41 41 -41 103q0 71 44 112t119 41q73 0 114.5 -39.5t41.5 -110.5q0 -38 -14.5 -67t-31.5 -39h48q45 0 71 23t26 65v94q0 79 -42.5 125
t-116.5 46q-77 0 -131 -54l-42 44q71 76 176 76zM284 65q45 0 69.5 26.5t24.5 70.5q0 46 -24.5 71t-68.5 25q-45 0 -70.5 -26.5t-25.5 -69.5q0 -42 24.5 -69.5t70.5 -27.5z" />
    <glyph glyph-name="tchehDotabovear.init" unicode="&#x6bf;" horiz-adv-x="546" 
d="M153 560h72v-77h-72v77zM494 213h23v-66h-25q-36 0 -56 -6t-41 -23l-65 -52q-44 -35 -86 -50.5t-108 -15.5h-156v67h157q85 0 146 48l50 40q29 23 53 29q-26 10 -57 46l-49 54q-40 46 -95 46q-48 0 -96 -44l-40 46q56 65 141 65q80 0 135 -61l72 -80q38 -43 97 -43z
M294 -153h-72v77h72v-77zM168 -153h-72v77h72v-77zM231 -281h-72v77h72v-77z" />
    <glyph glyph-name="tchehDotabovear.medi" unicode="&#x6bf;" horiz-adv-x="587" 
d="M153 560h72v-77h-72v77zM506 67h101v-67h-104q-125 0 -133 98l-40 -32q-44 -35 -86 -50.5t-108 -15.5h-156v67h157q85 0 146 48l50 40q29 23 53 29q-26 11 -57 46l-49 54q-40 46 -95 46q-48 0 -96 -44l-40 46q56 65 141 65q81 0 135 -61l72 -80q38 -43 97 -43h23v-66h-25
q-34 0 -57 -6v-18q0 -56 71 -56zM317 -153h-72v77h72v-77zM191 -153h-72v77h72v-77zM254 -281h-72v77h72v-77z" />
    <glyph glyph-name="tchehDotabovear.fina" unicode="&#x6bf;" horiz-adv-x="601" 
d="M174 560h72v-77h-72v77zM535 67h86v-67h-91q-125 0 -125 126v30h-48q-115 0 -181.5 -50.5t-66.5 -148.5q0 -86 53 -135t143 -49q95 0 162 63l37 -47q-80 -82 -203 -82q-116 0 -188.5 65t-72.5 183q0 123 84.5 194.5t220.5 71.5h27q-28 12 -50 35l-32 33q-40 41 -85 41
q-51 0 -90 -42l-41 44q59 65 137 65q71 0 125 -57l62 -64q19 -20 30.5 -30t28.5 -17.5t37 -7.5h35v-64h-59v-19q0 -38 14 -54.5t51 -16.5zM265 -28h-70v73h70v-73zM381 -28h-70v73h70v-73zM323 -146h-70v74h70v-74z" />
    <glyph glyph-name="hehHamzaabovear" unicode="&#x6c0;" horiz-adv-x="469" arabic-form="isolated" 
d="M349 352q70 -54 70 -162q0 -90 -50.5 -142.5t-134.5 -52.5q-82 0 -132 50t-50 133q0 87 52 142h-53v67h157q95 0 141 -35zM234 61q57 0 87 35.5t30 93.5t-30.5 94t-86.5 36q-55 0 -85 -36.5t-30 -94.5t30.5 -93t84.5 -35zM285 527l51 8v-39l-204 -35v39l70 12
q-40 27 -40 71q0 39 22 60.5t59 21.5q30 0 53 -18l-17 -33q-19 12 -36 12q-20 0 -31.5 -12.5t-11.5 -33.5q0 -29 22.5 -44.5t62.5 -8.5z" />
    <glyph glyph-name="hehgoalar" unicode="&#x6c1;" horiz-adv-x="469" arabic-form="isolated" 
d="M349 352q70 -54 70 -162q0 -90 -50.5 -142.5t-134.5 -52.5q-82 0 -132 50t-50 133q0 87 52 142h-53v67h157q95 0 141 -35zM234 61q57 0 87 35.5t30 93.5t-30.5 94t-86.5 36q-55 0 -85 -36.5t-30 -94.5t30.5 -93t84.5 -35z" />
    <glyph glyph-name="hehgoalHamzaabovear.fina" unicode="&#x6c2;" horiz-adv-x="537" 
d="M532 67h25v-67h-41q-174 0 -174 181v79h-97q-126 0 -126 -127v-133h-68v133q0 92 51.5 143.5t142.5 51.5h164v-148q0 -64 28.5 -88.5t94.5 -24.5zM314 467l51 8v-39l-204 -35v39l70 12q-40 27 -40 71q0 39 22 60.5t59 21.5q30 0 53 -18l-17 -33q-19 12 -36 12
q-20 0 -31.5 -12.5t-11.5 -33.5q0 -29 22.5 -44.5t62.5 -8.5z" />
    <glyph glyph-name="tehMarbutagoalar.fina" unicode="&#x6c3;" horiz-adv-x="537" 
d="M532 67h25v-67h-41q-174 0 -174 181v79h-97q-126 0 -126 -127v-133h-68v133q0 92 51.5 143.5t142.5 51.5h164v-148q0 -64 28.5 -88.5t94.5 -24.5zM156 499h72v-77h-72v77zM298 499h72v-77h-72v77z" />
    <glyph glyph-name="wawringar.fina" unicode="&#x6c4;" horiz-adv-x="494" 
d="M514 67v-67h-109q-11 -57 -42.5 -100t-79.5 -69t-96.5 -41t-110.5 -26l-16 65l32 6q-23 21 -23 59t23 61t61 23t61 -23t23 -61q0 -8 -1 -12q81 44 101 118h-78q-109 0 -162 57q-47 50 -47 138q0 89 47 145.5t138 56.5q67 0 110 -34q66 -52 66 -204v-92h103zM146 106
q33 -39 122 -39h76v83q0 122 -43 159q-26 22 -69 22q-53 0 -83.5 -36.5t-30.5 -98.5q0 -57 28 -90zM153 -147q18 0 29 11.5t11 29.5q0 19 -11 30t-29 11q-19 0 -30.5 -11t-11.5 -30q0 -18 11.5 -29.5t30.5 -11.5z" />
    <glyph glyph-name="kirghizoear" unicode="&#x6c5;" horiz-adv-x="481" arabic-form="isolated" 
d="M236 397q175 0 175 -246q0 -97 -20.5 -165t-63.5 -112t-100 -69t-141 -41l-16 63q122 25 180 69h-117v62h172q21 39 28 85q-44 -47 -111 -47q-80 0 -126 50.5t-46 144.5q0 97 50.5 151.5t135.5 54.5zM229 61q113 0 113 130q0 65 -29.5 101.5t-83.5 36.5q-53 0 -82.5 -36
t-29.5 -102q0 -62 28 -96t84 -34z" />
    <glyph glyph-name="oear" unicode="&#x6c6;" horiz-adv-x="462" arabic-form="isolated" 
d="M236 397q175 0 175 -246q0 -97 -20.5 -165t-63.5 -112t-100 -69t-141 -41l-16 63q124 25 185.5 73t77.5 143q-44 -47 -111 -47q-80 0 -126 50.5t-46 144.5q0 97 50.5 151.5t135.5 54.5zM229 61q113 0 113 130q0 65 -29.5 101.5t-83.5 36.5q-53 0 -82.5 -36t-29.5 -102
q0 -62 28 -96t84 -34zM237 513l47 103h41l-64 -140h-50l-66 140h43z" />
    <glyph glyph-name="uar" unicode="&#x6c7;" horiz-adv-x="462" arabic-form="isolated" 
d="M236 397q175 0 175 -246q0 -97 -20.5 -165t-63.5 -112t-100 -69t-141 -41l-16 63q124 25 185.5 73t77.5 143q-44 -47 -111 -47q-80 0 -126 50.5t-46 144.5q0 97 50.5 151.5t135.5 54.5zM229 61q113 0 113 130q0 65 -29.5 101.5t-83.5 36.5q-53 0 -82.5 -36t-29.5 -102
q0 -62 28 -96t84 -34zM253 659q38 0 58.5 -21.5t20.5 -57.5q0 -39 -21.5 -59.5t-65.5 -29.5l-112 -22v38l70 14q-31 22 -31 60q0 36 22.5 57t58.5 21zM251 532q19 0 31.5 12t12.5 33t-12 32.5t-31 11.5t-30.5 -11.5t-11.5 -32.5t11 -33t30 -12z" />
    <glyph glyph-name="yuar" unicode="&#x6c8;" horiz-adv-x="462" arabic-form="isolated" 
d="M236 397q175 0 175 -246q0 -97 -20.5 -165t-63.5 -112t-100 -69t-141 -41l-16 63q124 25 185.5 73t77.5 143q-44 -47 -111 -47q-80 0 -126 50.5t-46 144.5q0 97 50.5 151.5t135.5 54.5zM229 61q113 0 113 130q0 65 -29.5 101.5t-83.5 36.5q-53 0 -82.5 -36t-29.5 -102
q0 -62 28 -96t84 -34zM255 477l-40 -6v137l40 7v-138z" />
    <glyph glyph-name="kirghizyuar" unicode="&#x6c9;" horiz-adv-x="462" arabic-form="isolated" 
d="M236 397q175 0 175 -246q0 -97 -20.5 -165t-63.5 -112t-100 -69t-141 -41l-16 63q124 25 185.5 73t77.5 143q-44 -47 -111 -47q-80 0 -126 50.5t-46 144.5q0 97 50.5 151.5t135.5 54.5zM229 61q113 0 113 130q0 65 -29.5 101.5t-83.5 36.5q-53 0 -82.5 -36t-29.5 -102
q0 -62 28 -96t84 -34zM233 579l-47 -103h-41l64 140h50l66 -140h-43z" />
    <glyph glyph-name="wawTwodotsar.fina" unicode="&#x6ca;" horiz-adv-x="494" 
d="M514 67v-67h-109q-11 -57 -42.5 -100t-79.5 -69t-96.5 -41t-110.5 -26l-16 65q242 38 277 171h-78q-109 0 -162 57q-47 50 -47 138q0 89 47 145.5t138 56.5q69 0 110 -34q66 -53 66 -204v-92h103zM146 106q33 -39 122 -39h76v83q0 122 -43 159q-26 22 -69 22
q-53 0 -83.5 -36.5t-30.5 -98.5q0 -57 28 -90zM128 559h72v-77h-72v77zM270 559h72v-77h-72v77z" />
    <glyph glyph-name="vear" unicode="&#x6cb;" horiz-adv-x="462" arabic-form="isolated" 
d="M236 397q175 0 175 -246q0 -97 -20.5 -165t-63.5 -112t-100 -69t-141 -41l-16 63q124 25 185.5 73t77.5 143q-44 -47 -111 -47q-80 0 -126 50.5t-46 144.5q0 97 50.5 151.5t135.5 54.5zM229 61q113 0 113 130q0 65 -29.5 101.5t-83.5 36.5q-53 0 -82.5 -36t-29.5 -102
q0 -62 28 -96t84 -34zM136 560h72v-77h-72v77zM262 560h72v-77h-72v77zM198 697h72v-77h-72v77z" />
    <glyph glyph-name="yehfarsi" unicode="&#x6cc;" horiz-adv-x="866" arabic-form="isolated" 
d="M779 447l-47 -49q-23 27 -49 37.5t-66 10.5h-33q-52 0 -80 -30t-28 -86v-83h148q86 0 139 -50t53 -139q0 -91 -54.5 -142t-138.5 -51h-330q-68 0 -117.5 19.5t-75.5 54t-37.5 73.5t-11.5 86v49h65v-49q0 -71 42 -118.5t141 -47.5h322q128 0 128 123q0 126 -127 126h-214
v149q0 80 46 131.5t131 51.5h32q54 0 92.5 -14.5t69.5 -51.5z" />
    <glyph glyph-name="yehTailar.fina" unicode="&#x6cd;" horiz-adv-x="786" 
d="M795 67h12v-67h-40q-24 0 -45 9q3 -12 3 -27q0 -55 -41 -86t-124 -31h-197q-119 0 -174.5 60.5t-60.5 154.5h-98v67h163v-49q0 -71 41.5 -118.5t139.5 -47.5h194q95 0 95 75q0 44 -35 91l-71 98h79l59 -81q21 -27 42.5 -37.5t57.5 -10.5z" />
    <glyph glyph-name="yehVabovear.init" unicode="&#x6ce;" horiz-adv-x="269" 
d="M167 474l47 103h41l-64 -140h-50l-66 140h43zM-20 0v67h39q113 0 113 114v147h66v-147q0 -87 -45.5 -134t-132.5 -47h-40zM32 -76h72v-77h-72v77zM174 -76h72v-77h-72v77z" />
    <glyph glyph-name="yehVabovear.medi" unicode="&#x6ce;" 
d="M163 474l47 103h41l-64 -140h-50l-66 140h43zM320 67h21v-67h-54q-48 0 -83.5 22t-50.5 58q-37 -80 -132 -80h-41v67h21q66 0 96 27.5t30 87.5v146h67v-145q0 -55 27 -85.5t99 -30.5zM46 -76h72v-77h-72v77zM188 -76h72v-77h-72v77z" />
    <glyph glyph-name="yehVabovear.fina" unicode="&#x6ce;" horiz-adv-x="710" 
d="M286 263l47 103h41l-64 -140h-50l-66 140h43zM718 67h12v-67h-40q-25 0 -45 10q3 -12 3 -28q0 -55 -41 -86t-124 -31h-197q-65 0 -112.5 19.5t-73.5 54t-37.5 74t-11.5 85.5v49h65v-49q0 -71 41.5 -118.5t139.5 -47.5h194q95 0 95 75q0 44 -35 91l-71 98h79l59 -81
q21 -27 42.5 -37.5t57.5 -10.5z" />
    <glyph glyph-name="wawDotabovear.fina" unicode="&#x6cf;" horiz-adv-x="494" 
d="M514 67v-67h-109q-11 -57 -42.5 -100t-79.5 -69t-96.5 -41t-110.5 -26l-16 65q242 38 277 171h-78q-109 0 -162 57q-47 50 -47 138q0 89 47 145.5t138 56.5q69 0 110 -34q66 -53 66 -204v-92h103zM146 106q33 -39 122 -39h76v83q0 122 -43 159q-26 22 -69 22
q-53 0 -83.5 -36.5t-30.5 -98.5q0 -57 28 -90zM198 560h72v-77h-72v77z" />
    <glyph glyph-name="ear" unicode="&#x6d0;" horiz-adv-x="866" arabic-form="isolated" 
d="M779 447l-47 -49q-23 27 -49 37.5t-66 10.5h-33q-52 0 -80 -30t-28 -86v-83h148q86 0 139 -50t53 -139q0 -91 -54.5 -142t-138.5 -51h-330q-68 0 -117.5 19.5t-75.5 54t-37.5 73.5t-11.5 86v49h65v-49q0 -71 42 -118.5t141 -47.5h322q128 0 128 123q0 126 -127 126h-214
v149q0 80 46 131.5t131 51.5h32q54 0 92.5 -14.5t69.5 -51.5zM420 -326h72v-77h-72v77zM420 -211h72v-77h-72v77z" />
    <glyph glyph-name="yehThreedotsbelowar.init" unicode="&#x6d1;" horiz-adv-x="269" 
d="M238 -153h-72v77h72v-77zM112 -153h-72v77h72v-77zM175 -281h-72v77h72v-77zM-20 0v67h39q113 0 113 114v147h66v-147q0 -87 -45.5 -134t-132.5 -47h-40z" />
    <glyph glyph-name="yehThreedotsbelowar.medi" unicode="&#x6d1;" 
d="M252 -153h-72v77h72v-77zM126 -153h-72v77h72v-77zM189 -281h-72v77h72v-77zM320 67h21v-67h-54q-48 0 -83.5 22t-50.5 58q-37 -80 -132 -80h-41v67h21q66 0 96 27.5t30 87.5v146h67v-145q0 -55 27 -85.5t99 -30.5z" />
    <glyph glyph-name="yehThreedotsbelowar.fina" unicode="&#x6d1;" horiz-adv-x="710" 
d="M718 67h12v-67h-40q-25 0 -45 10q3 -12 3 -28q0 -55 -41 -86t-124 -31h-197q-65 0 -112.5 19.5t-73.5 54t-37.5 74t-11.5 85.5v49h65v-49q0 -71 41.5 -118.5t139.5 -47.5h194q95 0 95 75q0 44 -35 91l-71 98h79l59 -81q21 -27 42.5 -37.5t57.5 -10.5zM459 -288h-72v77h72
v-77zM333 -288h-72v77h72v-77zM396 -416h-72v77h72v-77z" />
    <glyph glyph-name="yehbarreear" unicode="&#x6d2;" horiz-adv-x="684" arabic-form="isolated" 
d="M400 387h72l-33 -85q-19 -48 -47.5 -66t-89.5 -18h-101q-84 0 -84 -77q0 -74 84 -74h442v-67h-433q-75 0 -118 38t-43 103t43.5 104t117.5 39h95q34 0 50 10.5t26 40.5z" />
    <glyph glyph-name="yehbarreeHamzaabovear" unicode="&#x6d3;" horiz-adv-x="684" arabic-form="isolated" 
d="M400 387h72l-33 -85q-19 -48 -47.5 -66t-89.5 -18h-101q-84 0 -84 -77q0 -74 84 -74h442v-67h-433q-75 0 -118 38t-43 103t43.5 104t117.5 39h95q34 0 50 10.5t26 40.5zM237 428l51 8v-39l-204 -35v39l70 12q-40 27 -40 71q0 39 22 60.5t59 21.5q30 0 53 -18l-17 -33
q-19 12 -36 12q-20 0 -31.5 -12.5t-11.5 -33.5q0 -29 22.5 -44.5t62.5 -8.5z" />
    <glyph glyph-name="aear.fina" unicode="&#x6d5;" horiz-adv-x="514" 
d="M514 67h20v-67h-40q-112 0 -149 95q-41 -55 -139 -55q-77 0 -121.5 43t-44.5 121q0 100 71 147q51 36 157 36h63v36h67v-228q0 -128 116 -128zM305 135q26 24 26 98v87h-72q-76 0 -112 -25q-41 -30 -41 -89q0 -51 30.5 -76.5t80.5 -25.5q56 0 88 31z" />
    <glyph glyph-name="dalVinvertedabovear.fina" unicode="&#x6ee;" horiz-adv-x="598" 
d="M597 67h21v-67h-40q-95 0 -136 68q-13 -35 -47 -51.5t-77 -16.5h-114q-63 0 -102 14t-71 52l46 49q24 -28 51.5 -38t75.5 -10h115q78 0 78 60q0 29 -27 81l-80 160l62 31l131 -269q18 -37 42 -50t72 -13zM296 579l-47 -103h-41l64 140h50l66 -140h-43z" />
    <glyph glyph-name="rehVinvertedabovear.fina" unicode="&#x6ef;" horiz-adv-x="387" 
d="M386 67h20v-67h-39q-75 0 -108 44v-6q0 -117 -50.5 -181t-149.5 -94l-24 62q84 25 120.5 72.5t36.5 145.5v285h67v-146q0 -115 127 -115zM224 540l-47 -103h-41l64 140h50l66 -140h-43z" />
    <glyph glyph-name="sheenDotbelowar.init" unicode="&#x6fa;" horiz-adv-x="734" 
d="M607 328h67v-164q0 -49 -13.5 -84t-37 -53t-48.5 -25.5t-54 -7.5q-91 0 -128 73q-34 -73 -121 -73q-93 0 -124 76q-40 -70 -128 -70h-40v67h34q113 0 113 112v72h67v-86q0 -102 88 -102q85 0 85 102v126h67v-126q0 -102 88 -102q85 0 85 101v164zM303 464h72v-77h-72v77z
M429 464h72v-77h-72v77zM365 601h72v-77h-72v77zM352 -76h72v-77h-72v77z" />
    <glyph glyph-name="sheenDotbelowar.medi" unicode="&#x6fa;" horiz-adv-x="802" 
d="M801 67h21v-67h-40q-102 0 -145 70q-32 -76 -123 -76q-90 0 -121 72q-34 -72 -122 -72q-91 0 -123 76q-39 -70 -128 -70h-40v67h30q117 0 117 112v72h67v-85q0 -103 88 -103q85 0 85 103v125h67v-125q0 -103 88 -103q85 0 85 103v162h67v-137q0 -62 28 -93t99 -31z
M303 464h72v-77h-72v77zM429 464h72v-77h-72v77zM365 601h72v-77h-72v77zM352 -76h72v-77h-72v77z" />
    <glyph glyph-name="sheenDotbelowar.fina" unicode="&#x6fa;" horiz-adv-x="1165" 
d="M1163 67h22v-67h-41q-101 0 -144 70q-32 -76 -123 -76q-89 0 -121 71q-33 -71 -111 -71q-57 0 -90 39q-11 -104 -73 -166t-178 -62q-127 0 -190 77t-63 201v109h67v-110q0 -95 46.5 -152.5t141.5 -57.5t140 57.5t45 152.5v169h67v-103q0 -38 23 -61.5t64 -23.5
q85 0 85 102v126h67v-126q0 -102 88 -102q85 0 85 102v163h67v-137q0 -62 28 -93t98 -31zM665 464h72v-77h-72v77zM791 464h72v-77h-72v77zM727 601h72v-77h-72v77zM716 -76h72v-77h-72v77z" />
    <glyph glyph-name="dadDotbelowar.init" unicode="&#x6fb;" horiz-adv-x="790" 
d="M267 -145h72v-77h-72v77zM546 397q92 0 147.5 -54.5t55.5 -143.5q0 -90 -57.5 -144.5t-155.5 -54.5h-199v-68h-67v68q-104 0 -132 67q-30 -67 -118 -67h-40v67h29q52 0 77 22t25 82v53h67v-54q0 -58 20.5 -79.5t71.5 -23.5q4 165 84 247.5t192 82.5zM337 67h199
q68 0 106.5 35t38.5 97q0 61 -36.5 96t-99.5 35q-38 0 -72.5 -13.5t-65 -42.5t-49.5 -82.5t-21 -124.5zM506 560h72v-77h-72v77z" />
    <glyph glyph-name="dadDotbelowar.medi" unicode="&#x6fb;" horiz-adv-x="843" 
d="M267 -145h72v-77h-72v77zM809 67h54v-67h-55q-88 0 -132 41q-57 -41 -140 -41h-199v-68h-67v68q-104 0 -132 67q-30 -67 -118 -67h-40v67h29q52 0 77 22t25 82v53h67v-54q0 -58 20.5 -79.5t71.5 -23.5q4 165 84 247.5t192 82.5q92 0 147.5 -54.5t55.5 -143.5
q0 -60 -28 -107q29 -25 88 -25zM337 67h199q68 0 106.5 35t38.5 97q0 61 -36.5 96t-99.5 35q-38 0 -72.5 -13.5t-65 -42.5t-49.5 -82.5t-21 -124.5zM506 560h72v-77h-72v77z" />
    <glyph glyph-name="dadDotbelowar.fina" unicode="&#x6fb;" horiz-adv-x="1223" 
d="M647 -145h72v-77h-72v77zM1188 67h54v-67h-55q-85 0 -131 41q-57 -41 -141 -41h-199v-68h-67v68q-64 0 -93 35q-11 -105 -73 -167.5t-179 -62.5q-127 0 -190 77t-63 201v109h67v-110q0 -95 46.5 -152.5t141.5 -57.5t140 57.5t45 152.5v168h67v-86q0 -93 91 -97
q2 85 26.5 150.5t64.5 103.5t87 57t99 19q89 0 146 -54.5t57 -146.5q0 -59 -27 -105q28 -24 86 -24zM716 67h199q68 0 107 34t39 96t-38 97.5t-98 35.5q-39 0 -73.5 -13.5t-65 -42.5t-49.5 -82.5t-21 -124.5zM886 560h72v-77h-72v77z" />
    <glyph glyph-name="ghainDotbelowar.init" unicode="&#x6fc;" horiz-adv-x="454" 
d="M209 -76h72v-77h-72v77zM310 67h109v-67h-439v67h148q-65 54 -65 146q0 84 52 134t133 50q77 0 136 -45l-34 -54q-40 32 -94 32q-55 0 -90 -32.5t-35 -93.5q0 -57 34 -92q40 -45 145 -45zM208 560h72v-77h-72v77z" />
    <glyph glyph-name="ghainDotbelowar.medi" unicode="&#x6fc;" horiz-adv-x="527" 
d="M221 -76h72v-77h-72v77zM376 67h171v-67h-567v67h201l-77 185q-17 40 -35 56t-53 16v63h290q72 0 114 -38t42 -104q0 -49 -30 -107q-9 -19 -22 -37q-16 -25 -34 -34zM252 67h14q43 0 70 39q14 20 35 60q23 46 23 76q0 37 -25.5 57.5t-68.5 20.5h-160q18 -21 31 -52z
M202 560h72v-77h-72v77z" />
    <glyph glyph-name="ghainDotbelowar.fina" unicode="&#x6fc;" horiz-adv-x="587" 
d="M235 -377h72v-77h-72v77zM607 0h-355q-67 0 -109.5 -24t-42.5 -91q0 -60 42 -86t123 -26q115 0 196 50l30 -57q-95 -60 -230 -60q-107 0 -168.5 44t-61.5 133q0 91 59 136t146 48l-77 185q-18 43 -35 57.5t-53 14.5v63h290q72 0 114 -38t42 -104q0 -45 -31 -107
q-12 -24 -21 -37q-16 -25 -34 -34h176v-67zM355 320h-159q20 -27 32 -57l80 -196h13q43 0 70 39q14 20 35 60q23 46 23 76q0 37 -25.5 57.5t-68.5 20.5zM256 560h72v-77h-72v77z" />
    <glyph glyph-name="hehVinvertedabovear.init" unicode="&#x6ff;" horiz-adv-x="614" 
d="M329 658l-47 -103h-41l64 140h50l66 -140h-43zM331 486q103 0 163 -67.5t60 -177.5v-82q0 -78 -46.5 -118.5t-123.5 -40.5h-78q-63 0 -99 24q-32 -24 -100 -24h-127v67h130q-41 41 -41 103q0 71 44 112t119 41q73 0 114.5 -39.5t41.5 -110.5q0 -38 -14.5 -67t-31.5 -39
h48q45 0 71 23t26 65v94q0 79 -42.5 125t-116.5 46q-77 0 -131 -54l-42 44q71 76 176 76zM229 65q45 0 69.5 26.5t24.5 70.5q0 46 -24.5 71t-68.5 25q-45 0 -70.5 -26.5t-25.5 -69.5q0 -42 24.5 -69.5t70.5 -27.5z" />
    <glyph glyph-name="hehVinvertedabovear.medi" unicode="&#x6ff;" horiz-adv-x="619" 
d="M619 67h20v-67h-39q-70 0 -111 27q-42 -27 -105 -27h-78q-63 0 -99 24q-32 -24 -100 -24h-127v67h130q-41 41 -41 103q0 71 44 112t119 41q73 0 114.5 -39.5t41.5 -110.5q0 -38 -14.5 -67t-31.5 -39h48q45 0 71 23t26 65v94q0 79 -42.5 125t-116.5 46q-77 0 -131 -54
l-42 44q71 76 176 76q103 0 163 -67.5t60 -177.5v-82q0 -46 -17 -80q27 -12 82 -12zM229 65q45 0 69.5 26.5t24.5 70.5q0 46 -24.5 71t-68.5 25q-45 0 -70.5 -26.5t-25.5 -69.5q0 -42 24.5 -69.5t70.5 -27.5zM329 658l-47 -103h-41l64 140h50l66 -140h-43z" />
    <glyph glyph-name="hehVinvertedabovear.fina" unicode="&#x6ff;" horiz-adv-x="674" 
d="M674 67h21v-67h-40q-71 0 -111 27q-42 -27 -105 -27h-78q-63 0 -99 24q-32 -24 -100 -24h-127v67h130q-41 41 -41 103q0 71 44 112t119 41q73 0 114.5 -39.5t41.5 -110.5q0 -38 -14.5 -67t-31.5 -39h48q45 0 71 23t26 65v94q0 79 -42.5 125t-116.5 46q-77 0 -131 -54
l-42 44q71 76 176 76q103 0 163 -67.5t60 -177.5v-82q0 -46 -17 -80q27 -12 82 -12zM284 65q45 0 69.5 26.5t24.5 70.5q0 46 -24.5 71t-68.5 25q-45 0 -70.5 -26.5t-25.5 -69.5q0 -42 24.5 -69.5t70.5 -27.5zM384 658l-47 -103h-41l64 140h50l66 -140h-43z" />
    <glyph glyph-name="alefWaslaar.fina" unicode="&#x671;" horiz-adv-x="264" arabic-form="final" 
d="M284 0h-40q-100 0 -144 74q-29 46 -29 135v339h67v-337q0 -66 22 -99q30 -45 101 -45h23v-67zM134 764q31 0 50 -17t19 -49q0 -37 -19 -56t-58 -27l-128 -25v40l34 7q3 59 31 93t71 34zM71 644l58 11q36 7 36 39t-31 32q-26 0 -42.5 -22.5t-20.5 -59.5z" />
    <glyph glyph-name="beehar.fina" unicode="&#x67b;" horiz-adv-x="894" arabic-form="final" 
d="M892 67h22v-67h-44q-58 0 -92 19.5t-54 60.5q-36 -80 -162 -80h-260q-242 0 -242 241v88h65v-88q0 -174 185 -174h263q65 0 95.5 30.5t30.5 82.5v149h67v-147q0 -54 26.5 -84.5t99.5 -30.5zM387 -191h72v-77h-72v77zM387 -76h72v-77h-72v77z" />
    <glyph glyph-name="beehar.init" unicode="&#x67b;" horiz-adv-x="269" arabic-form="initial" 
d="M-20 0v67h39q113 0 113 114v147h66v-147q0 -87 -45.5 -134t-132.5 -47h-40zM102 -191h72v-77h-72v77zM102 -76h72v-77h-72v77z" />
    <glyph glyph-name="beehar.medi" unicode="&#x67b;" arabic-form="medial" 
d="M320 67h21v-67h-54q-48 0 -83.5 22t-50.5 58q-37 -80 -132 -80h-41v67h21q66 0 96 27.5t30 87.5v146h67v-145q0 -55 27 -85.5t99 -30.5zM116 -191h72v-77h-72v77zM116 -76h72v-77h-72v77z" />
    <glyph glyph-name="pehar.fina" unicode="&#x67e;" horiz-adv-x="894" arabic-form="final" 
d="M892 67h22v-67h-44q-58 0 -92 19.5t-54 60.5q-36 -80 -162 -80h-260q-242 0 -242 241v88h65v-88q0 -174 185 -174h263q65 0 95.5 30.5t30.5 82.5v149h67v-147q0 -54 26.5 -84.5t99.5 -30.5zM523 -153h-72v77h72v-77zM397 -153h-72v77h72v-77zM460 -281h-72v77h72v-77z
" />
    <glyph glyph-name="pehar.init" unicode="&#x67e;" horiz-adv-x="269" arabic-form="initial" 
d="M-20 0v67h39q113 0 113 114v147h66v-147q0 -87 -45.5 -134t-132.5 -47h-40zM238 -153h-72v77h72v-77zM112 -153h-72v77h72v-77zM175 -281h-72v77h72v-77z" />
    <glyph glyph-name="pehar.medi" unicode="&#x67e;" arabic-form="medial" 
d="M320 67h21v-67h-54q-48 0 -83.5 22t-50.5 58q-37 -80 -132 -80h-41v67h21q66 0 96 27.5t30 87.5v146h67v-145q0 -55 27 -85.5t99 -30.5zM252 -153h-72v77h72v-77zM126 -153h-72v77h72v-77zM189 -281h-72v77h72v-77z" />
    <glyph glyph-name="behehar.fina" unicode="&#x680;" horiz-adv-x="894" arabic-form="final" 
d="M892 67h22v-67h-44q-58 0 -92 19.5t-54 60.5q-36 -80 -162 -80h-260q-242 0 -242 241v88h65v-88q0 -174 185 -174h263q65 0 95.5 30.5t30.5 82.5v149h67v-147q0 -54 26.5 -84.5t99.5 -30.5zM326 -202h72v-77h-72v77zM450 -202h72v-77h-72v77zM326 -76h72v-77h-72v77z
M450 -76h72v-77h-72v77z" />
    <glyph glyph-name="behehar.init" unicode="&#x680;" horiz-adv-x="269" arabic-form="initial" 
d="M-20 0v67h39q113 0 113 114v147h66v-147q0 -87 -45.5 -134t-132.5 -47h-40zM41 -202h72v-77h-72v77zM165 -202h72v-77h-72v77zM41 -76h72v-77h-72v77zM165 -76h72v-77h-72v77z" />
    <glyph glyph-name="behehar.medi" unicode="&#x680;" arabic-form="medial" 
d="M320 67h21v-67h-54q-48 0 -83.5 22t-50.5 58q-37 -80 -132 -80h-41v67h21q66 0 96 27.5t30 87.5v146h67v-145q0 -55 27 -85.5t99 -30.5zM55 -202h72v-77h-72v77zM179 -202h72v-77h-72v77zM55 -76h72v-77h-72v77zM179 -76h72v-77h-72v77z" />
    <glyph glyph-name="ttehehar.fina" unicode="&#x67a;" horiz-adv-x="894" arabic-form="final" 
d="M892 67h22v-67h-44q-58 0 -92 19.5t-54 60.5q-36 -80 -162 -80h-260q-242 0 -242 241v88h65v-88q0 -174 185 -174h263q65 0 95.5 30.5t30.5 82.5v149h67v-147q0 -54 26.5 -84.5t99.5 -30.5zM387 637h72v-77h-72v77zM387 522h72v-77h-72v77z" />
    <glyph glyph-name="ttehehar.init" unicode="&#x67a;" horiz-adv-x="269" arabic-form="initial" 
d="M-20 0v67h39q113 0 113 114v147h66v-147q0 -87 -45.5 -134t-132.5 -47h-40zM128 636h72v-77h-72v77zM128 521h72v-77h-72v77z" />
    <glyph glyph-name="ttehehar.medi" unicode="&#x67a;" arabic-form="medial" 
d="M320 67h21v-67h-54q-48 0 -83.5 22t-50.5 58q-37 -80 -132 -80h-41v67h21q66 0 96 27.5t30 87.5v146h67v-145q0 -55 27 -85.5t99 -30.5zM124 636h72v-77h-72v77zM124 521h72v-77h-72v77z" />
    <glyph glyph-name="tehehar.fina" unicode="&#x67f;" horiz-adv-x="894" arabic-form="final" 
d="M892 67h22v-67h-44q-58 0 -92 19.5t-54 60.5q-36 -80 -162 -80h-260q-242 0 -242 241v88h65v-88q0 -174 185 -174h263q65 0 95.5 30.5t30.5 82.5v149h67v-147q0 -54 26.5 -84.5t99.5 -30.5zM326 522h72v-77h-72v77zM450 522h72v-77h-72v77zM326 649h72v-77h-72v77z
M450 649h72v-77h-72v77z" />
    <glyph glyph-name="tehehar.init" unicode="&#x67f;" horiz-adv-x="269" arabic-form="initial" 
d="M-20 0v67h39q113 0 113 114v147h66v-147q0 -87 -45.5 -134t-132.5 -47h-40zM67 521h72v-77h-72v77zM191 521h72v-77h-72v77zM67 648h72v-77h-72v77zM191 648h72v-77h-72v77z" />
    <glyph glyph-name="tehehar.medi" unicode="&#x67f;" arabic-form="medial" 
d="M320 67h21v-67h-54q-48 0 -83.5 22t-50.5 58q-37 -80 -132 -80h-41v67h21q66 0 96 27.5t30 87.5v146h67v-145q0 -55 27 -85.5t99 -30.5zM63 521h72v-77h-72v77zM187 521h72v-77h-72v77zM63 648h72v-77h-72v77zM187 648h72v-77h-72v77z" />
    <glyph glyph-name="ttehar.fina" unicode="&#x679;" horiz-adv-x="894" arabic-form="final" 
d="M892 67h22v-67h-44q-58 0 -92 19.5t-54 60.5q-36 -80 -162 -80h-260q-242 0 -242 241v88h65v-88q0 -174 185 -174h263q65 0 95.5 30.5t30.5 82.5v149h67v-147q0 -54 26.5 -84.5t99.5 -30.5zM463 596q26 0 45.5 -16.5t19.5 -49.5q0 -37 -20 -56.5t-68 -28.5l-116 -23v40
l33 6l4 165l39 9l-3 -82q25 36 66 36zM397 476l45 8q48 8 48 41t-29 33q-28 0 -44.5 -23t-19.5 -59z" />
    <glyph glyph-name="ttehar.init" unicode="&#x679;" horiz-adv-x="269" arabic-form="initial" 
d="M-20 0v67h39q113 0 113 114v147h66v-147q0 -87 -45.5 -134t-132.5 -47h-40zM204 595q26 0 45.5 -16.5t19.5 -49.5q0 -37 -20 -56.5t-68 -28.5l-116 -23v40l33 6l4 165l39 9l-3 -82q25 36 66 36zM138 475l45 8q48 8 48 41t-29 33q-28 0 -44.5 -23t-19.5 -59z" />
    <glyph glyph-name="ttehar.medi" unicode="&#x679;" arabic-form="medial" 
d="M320 67h21v-67h-54q-48 0 -83.5 22t-50.5 58q-37 -80 -132 -80h-41v67h21q66 0 96 27.5t30 87.5v146h67v-145q0 -55 27 -85.5t99 -30.5zM200 595q26 0 45.5 -16.5t19.5 -49.5q0 -37 -20 -56.5t-68 -28.5l-116 -23v40l33 6l4 165l39 9l-3 -82q25 36 66 36zM134 475l45 8
q48 8 48 41t-29 33q-28 0 -44.5 -23t-19.5 -59z" />
    <glyph glyph-name="vehar.fina" unicode="&#x6a4;" horiz-adv-x="968" arabic-form="final" 
d="M823 67h165v-67h-188q-71 0 -115 26q-43 -26 -105 -26h-279q-67 0 -114.5 19.5t-72 54t-35 72.5t-10.5 85v96h65v-96q0 -70 41 -117t139 -47h279q-61 46 -61 142q0 85 49 136.5t131 51.5t128 -51t46 -131q0 -99 -63 -148zM711 66q50 0 80 38t30 98q0 59 -30 93.5
t-80 34.5q-51 0 -82 -35t-31 -94t30.5 -97t82.5 -38zM613 560h72v-77h-72v77zM739 560h72v-77h-72v77zM675 697h72v-77h-72v77z" />
    <glyph glyph-name="vehar.init" unicode="&#x6a4;" horiz-adv-x="477" arabic-form="initial" 
d="M241 518q81 0 128 -53t47 -153v-118q0 -86 -49.5 -140t-157.5 -54h-229v67h232q69 0 103 31.5t34 87.5v9q-34 -63 -121 -63q-80 0 -126 50.5t-46 137.5q0 91 51 144.5t134 53.5zM235 195q53 0 83 32t30 93t-30 96.5t-83 35.5q-52 0 -82 -35t-30 -97q0 -58 28 -91.5
t84 -33.5zM140 680h72v-77h-72v77zM266 680h72v-77h-72v77zM202 817h72v-77h-72v77z" />
    <glyph glyph-name="vehar.medi" unicode="&#x6a4;" horiz-adv-x="517" arabic-form="medial" 
d="M372 67h165v-67h-188q-70 0 -116 26q-43 -26 -106 -26h-147v67h162q-60 45 -60 142q0 84 49 136t130 52q82 0 128 -50.5t46 -131.5q0 -99 -63 -148zM259 66q51 0 81 38t30 98t-30 94t-81 34t-81.5 -35t-30.5 -93q0 -59 30 -97.5t82 -38.5zM161 560h72v-77h-72v77z
M287 560h72v-77h-72v77zM223 697h72v-77h-72v77z" />
    <glyph glyph-name="pehehar.fina" unicode="&#x6a6;" horiz-adv-x="968" arabic-form="final" 
d="M823 67h165v-67h-188q-71 0 -115 26q-43 -26 -105 -26h-279q-67 0 -114.5 19.5t-72 54t-35 72.5t-10.5 85v96h65v-96q0 -70 41 -117t139 -47h279q-61 46 -61 142q0 85 49 136.5t131 51.5t128 -51t46 -131q0 -99 -63 -148zM711 66q50 0 80 38t30 98q0 59 -30 93.5
t-80 34.5q-51 0 -82 -35t-31 -94t30.5 -97t82.5 -38zM614 560h72v-77h-72v77zM738 560h72v-77h-72v77zM614 687h72v-77h-72v77zM738 687h72v-77h-72v77z" />
    <glyph glyph-name="pehehar.init" unicode="&#x6a6;" horiz-adv-x="477" arabic-form="initial" 
d="M241 518q81 0 128 -53t47 -153v-118q0 -86 -49.5 -140t-157.5 -54h-229v67h232q69 0 103 31.5t34 87.5v9q-34 -63 -121 -63q-80 0 -126 50.5t-46 137.5q0 91 51 144.5t134 53.5zM235 195q53 0 83 32t30 93t-30 96.5t-83 35.5q-52 0 -82 -35t-30 -97q0 -58 28 -91.5
t84 -33.5zM141 680h72v-77h-72v77zM265 680h72v-77h-72v77zM141 807h72v-77h-72v77zM265 807h72v-77h-72v77z" />
    <glyph glyph-name="pehehar.medi" unicode="&#x6a6;" horiz-adv-x="517" arabic-form="medial" 
d="M372 67h165v-67h-188q-70 0 -116 26q-43 -26 -106 -26h-147v67h162q-60 45 -60 142q0 84 49 136t130 52q82 0 128 -50.5t46 -131.5q0 -99 -63 -148zM259 66q51 0 81 38t30 98t-30 94t-81 34t-81.5 -35t-30.5 -93q0 -59 30 -97.5t82 -38.5zM162 560h72v-77h-72v77z
M286 560h72v-77h-72v77zM162 687h72v-77h-72v77zM286 687h72v-77h-72v77z" />
    <glyph glyph-name="dyehar.fina" unicode="&#x684;" horiz-adv-x="601" arabic-form="final" 
d="M535 67h86v-67h-91q-125 0 -125 126v30h-48q-115 0 -181.5 -50.5t-66.5 -148.5q0 -86 53 -135t143 -49q95 0 162 63l37 -47q-80 -82 -203 -82q-116 0 -188.5 65t-72.5 183q0 123 84.5 194.5t220.5 71.5h27q-28 12 -50 35l-32 33q-40 41 -85 41q-51 0 -90 -42l-41 44
q59 65 137 65q71 0 125 -57l62 -64q19 -20 30.5 -30t28.5 -17.5t37 -7.5h35v-64h-59v-19q0 -38 14 -54.5t51 -16.5zM260 60h70v-74h-70v74zM260 -64h70v-74h-70v74z" />
    <glyph glyph-name="dyehar.init" unicode="&#x684;" horiz-adv-x="546" arabic-form="initial" 
d="M494 213h23v-66h-25q-36 0 -56 -6t-41 -23l-65 -52q-44 -35 -86 -50.5t-108 -15.5h-156v67h157q85 0 146 48l50 40q29 23 53 29q-26 10 -57 46l-49 54q-40 46 -95 46q-48 0 -96 -44l-40 46q56 65 141 65q80 0 135 -61l72 -80q38 -43 97 -43zM158 -191h72v-77h-72v77z
M158 -76h72v-77h-72v77z" />
    <glyph glyph-name="dyehar.medi" unicode="&#x684;" horiz-adv-x="587" arabic-form="medial" 
d="M506 67h101v-67h-104q-125 0 -133 98l-40 -32q-44 -35 -86 -50.5t-108 -15.5h-156v67h157q85 0 146 48l50 40q29 23 53 29q-26 11 -57 46l-49 54q-40 46 -95 46q-48 0 -96 -44l-40 46q56 65 141 65q81 0 135 -61l72 -80q38 -43 97 -43h23v-66h-25q-34 0 -57 -6v-18
q0 -56 71 -56zM181 -191h72v-77h-72v77zM181 -76h72v-77h-72v77z" />
    <glyph glyph-name="nyehar.fina" unicode="&#x683;" horiz-adv-x="601" arabic-form="final" 
d="M535 67h86v-67h-91q-125 0 -125 126v30h-48q-115 0 -181.5 -50.5t-66.5 -148.5q0 -86 53 -135t143 -49q95 0 162 63l37 -47q-80 -82 -203 -82q-116 0 -188.5 65t-72.5 183q0 123 84.5 194.5t220.5 71.5h27q-28 12 -50 35l-32 33q-40 41 -85 41q-51 0 -90 -42l-41 44
q59 65 137 65q71 0 125 -57l62 -64q19 -20 30.5 -30t28.5 -17.5t37 -7.5h35v-64h-59v-19q0 -38 14 -54.5t51 -16.5zM198 -4h70v-74h-70v74zM322 -4h70v-74h-70v74z" />
    <glyph glyph-name="nyehar.init" unicode="&#x683;" horiz-adv-x="546" arabic-form="initial" 
d="M494 213h23v-66h-25q-36 0 -56 -6t-41 -23l-65 -52q-44 -35 -86 -50.5t-108 -15.5h-156v67h157q85 0 146 48l50 40q29 23 53 29q-26 10 -57 46l-49 54q-40 46 -95 46q-48 0 -96 -44l-40 46q56 65 141 65q80 0 135 -61l72 -80q38 -43 97 -43zM88 -76h72v-77h-72v77z
M230 -76h72v-77h-72v77z" />
    <glyph glyph-name="nyehar.medi" unicode="&#x683;" horiz-adv-x="587" arabic-form="medial" 
d="M506 67h101v-67h-104q-125 0 -133 98l-40 -32q-44 -35 -86 -50.5t-108 -15.5h-156v67h157q85 0 146 48l50 40q29 23 53 29q-26 11 -57 46l-49 54q-40 46 -95 46q-48 0 -96 -44l-40 46q56 65 141 65q81 0 135 -61l72 -80q38 -43 97 -43h23v-66h-25q-34 0 -57 -6v-18
q0 -56 71 -56zM111 -76h72v-77h-72v77zM253 -76h72v-77h-72v77z" />
    <glyph glyph-name="tchehar.fina" unicode="&#x686;" horiz-adv-x="601" arabic-form="final" 
d="M535 67h86v-67h-91q-125 0 -125 126v30h-48q-115 0 -181.5 -50.5t-66.5 -148.5q0 -86 53 -135t143 -49q95 0 162 63l37 -47q-80 -82 -203 -82q-116 0 -188.5 65t-72.5 183q0 123 84.5 194.5t220.5 71.5h27q-28 12 -50 35l-32 33q-40 41 -85 41q-51 0 -90 -42l-41 44
q59 65 137 65q71 0 125 -57l62 -64q19 -20 30.5 -30t28.5 -17.5t37 -7.5h35v-64h-59v-19q0 -38 14 -54.5t51 -16.5zM265 -28h-70v73h70v-73zM381 -28h-70v73h70v-73zM323 -146h-70v74h70v-74z" />
    <glyph glyph-name="tchehar.init" unicode="&#x686;" horiz-adv-x="546" arabic-form="initial" 
d="M494 213h23v-66h-25q-36 0 -56 -6t-41 -23l-65 -52q-44 -35 -86 -50.5t-108 -15.5h-156v67h157q85 0 146 48l50 40q29 23 53 29q-26 10 -57 46l-49 54q-40 46 -95 46q-48 0 -96 -44l-40 46q56 65 141 65q80 0 135 -61l72 -80q38 -43 97 -43zM294 -153h-72v77h72v-77z
M168 -153h-72v77h72v-77zM231 -281h-72v77h72v-77z" />
    <glyph glyph-name="tchehar.medi" unicode="&#x686;" horiz-adv-x="587" arabic-form="medial" 
d="M506 67h101v-67h-104q-125 0 -133 98l-40 -32q-44 -35 -86 -50.5t-108 -15.5h-156v67h157q85 0 146 48l50 40q29 23 53 29q-26 11 -57 46l-49 54q-40 46 -95 46q-48 0 -96 -44l-40 46q56 65 141 65q81 0 135 -61l72 -80q38 -43 97 -43h23v-66h-25q-34 0 -57 -6v-18
q0 -56 71 -56zM317 -153h-72v77h72v-77zM191 -153h-72v77h72v-77zM254 -281h-72v77h72v-77z" />
    <glyph glyph-name="tchehehar.fina" unicode="&#x687;" horiz-adv-x="601" arabic-form="final" 
d="M535 67h86v-67h-91q-125 0 -125 126v30h-48q-115 0 -181.5 -50.5t-66.5 -148.5q0 -86 53 -135t143 -49q95 0 162 63l37 -47q-80 -82 -203 -82q-116 0 -188.5 65t-72.5 183q0 123 84.5 194.5t220.5 71.5h27q-28 12 -50 35l-32 33q-40 41 -85 41q-51 0 -90 -42l-41 44
q59 65 137 65q71 0 125 -57l62 -64q19 -20 30.5 -30t28.5 -17.5t37 -7.5h35v-64h-59v-19q0 -38 14 -54.5t51 -16.5zM190 64h70v-74h-70v74zM314 64h70v-74h-70v74zM190 -63h70v-74h-70v74zM314 -63h70v-74h-70v74z" />
    <glyph glyph-name="tchehehar.init" unicode="&#x687;" horiz-adv-x="546" arabic-form="initial" 
d="M494 213h23v-66h-25q-36 0 -56 -6t-41 -23l-65 -52q-44 -35 -86 -50.5t-108 -15.5h-156v67h157q85 0 146 48l50 40q29 23 53 29q-26 10 -57 46l-49 54q-40 46 -95 46q-48 0 -96 -44l-40 46q56 65 141 65q80 0 135 -61l72 -80q38 -43 97 -43zM97 -202h72v-77h-72v77z
M221 -202h72v-77h-72v77zM97 -76h72v-77h-72v77zM221 -76h72v-77h-72v77z" />
    <glyph glyph-name="tchehehar.medi" unicode="&#x687;" horiz-adv-x="587" arabic-form="medial" 
d="M506 67h101v-67h-104q-125 0 -133 98l-40 -32q-44 -35 -86 -50.5t-108 -15.5h-156v67h157q85 0 146 48l50 40q29 23 53 29q-26 11 -57 46l-49 54q-40 46 -95 46q-48 0 -96 -44l-40 46q56 65 141 65q81 0 135 -61l72 -80q38 -43 97 -43h23v-66h-25q-34 0 -57 -6v-18
q0 -56 71 -56zM120 -202h72v-77h-72v77zM244 -202h72v-77h-72v77zM120 -76h72v-77h-72v77zM244 -76h72v-77h-72v77z" />
    <glyph glyph-name="ddahalar.fina" unicode="&#x68d;" horiz-adv-x="598" arabic-form="final" 
d="M597 67h21v-67h-40q-95 0 -136 68q-13 -35 -47 -51.5t-77 -16.5h-114q-63 0 -102 14t-71 52l46 49q24 -28 51.5 -38t75.5 -10h115q78 0 78 60q0 29 -27 81l-80 160l62 31l131 -269q18 -37 42 -50t72 -13zM148 -76h72v-77h-72v77zM290 -76h72v-77h-72v77z" />
    <glyph glyph-name="dahalar.fina" unicode="&#x68c;" horiz-adv-x="598" arabic-form="final" 
d="M597 67h21v-67h-40q-95 0 -136 68q-13 -35 -47 -51.5t-77 -16.5h-114q-63 0 -102 14t-71 52l46 49q24 -28 51.5 -38t75.5 -10h115q78 0 78 60q0 29 -27 81l-80 160l62 31l131 -269q18 -37 42 -50t72 -13zM191 559h72v-77h-72v77zM333 559h72v-77h-72v77z" />
    <glyph glyph-name="dular.fina" unicode="&#x68e;" horiz-adv-x="598" arabic-form="final" 
d="M597 67h21v-67h-40q-95 0 -136 68q-13 -35 -47 -51.5t-77 -16.5h-114q-63 0 -102 14t-71 52l46 49q24 -28 51.5 -38t75.5 -10h115q78 0 78 60q0 29 -27 81l-80 160l62 31l131 -269q18 -37 42 -50t72 -13zM199 560h72v-77h-72v77zM325 560h72v-77h-72v77zM261 697h72v-77
h-72v77z" />
    <glyph glyph-name="ddalar.fina" unicode="&#x688;" horiz-adv-x="598" arabic-form="final" 
d="M597 67h21v-67h-40q-95 0 -136 68q-13 -35 -47 -51.5t-77 -16.5h-114q-63 0 -102 14t-71 52l46 49q24 -28 51.5 -38t75.5 -10h115q78 0 78 60q0 29 -27 81l-80 160l62 31l131 -269q18 -37 42 -50t72 -13zM337 634q26 0 45.5 -16.5t19.5 -49.5q0 -37 -20 -56.5t-68 -28.5
l-116 -23v40l33 6l4 165l39 9l-3 -82q25 36 66 36zM271 514l45 8q48 8 48 41t-29 33q-28 0 -44.5 -23t-19.5 -59z" />
    <glyph glyph-name="jehar.fina" unicode="&#x698;" horiz-adv-x="387" arabic-form="final" 
d="M386 67h20v-67h-39q-75 0 -108 44v-6q0 -117 -50.5 -181t-149.5 -94l-24 62q84 25 120.5 72.5t36.5 145.5v285h67v-146q0 -115 127 -115zM127 521h72v-77h-72v77zM253 521h72v-77h-72v77zM189 658h72v-77h-72v77z" />
    <glyph glyph-name="rrehar.fina" unicode="&#x691;" horiz-adv-x="387" arabic-form="final" 
d="M386 67h20v-67h-39q-75 0 -108 44v-6q0 -117 -50.5 -181t-149.5 -94l-24 62q84 25 120.5 72.5t36.5 145.5v285h67v-146q0 -115 127 -115zM265 595q26 0 45.5 -16.5t19.5 -49.5q0 -37 -20 -56.5t-68 -28.5l-116 -23v40l33 6l4 165l39 9l-3 -82q25 36 66 36zM199 475l45 8
q48 8 48 41t-29 33q-28 0 -44.5 -23t-19.5 -59z" />
    <glyph glyph-name="kehehar.fina" unicode="&#x6a9;" horiz-adv-x="932" arabic-form="final" 
d="M842 67h110v-67h-142q-46 0 -75 21t-49 66q-11 -39 -42.5 -63t-77.5 -24h-274q-232 0 -232 233v94h65v-94q0 -70 41 -118t139 -48h254q43 0 65 25t22 69q0 37 -22 94l-105 272v60l373 133v-73l-306 -106l152 -398q17 -44 38 -60t66 -16z" />
    <glyph glyph-name="kehehar.init" unicode="&#x6a9;" horiz-adv-x="464" arabic-form="initial" 
d="M126 541l101 -266q26 -68 26 -120q0 -65 -36.5 -110t-110.5 -45h-126v67h119q42 0 64.5 25t22.5 68q0 38 -22 95l-105 272v60l373 133v-73z" />
    <glyph glyph-name="kehehar.medi" unicode="&#x6a9;" horiz-adv-x="472" arabic-form="medial" 
d="M381 67h111v-67h-142q-46 0 -75 21t-49 66q-11 -39 -42.5 -63t-77.5 -24h-126v67h119q43 0 65 25t22 69q0 37 -22 94l-105 272v60l373 133v-73l-306 -106l152 -399q17 -44 38.5 -59.5t64.5 -15.5z" />
    <glyph glyph-name="gafar.fina" unicode="&#x6af;" horiz-adv-x="932" arabic-form="final" 
d="M842 67h110v-67h-142q-46 0 -75 21t-49 66q-11 -39 -42.5 -63t-77.5 -24h-274q-232 0 -232 233v94h65v-94q0 -70 41 -118t139 -48h254q43 0 65 25t22 69q0 37 -22 94l-105 272v60l373 133v-73l-306 -106l152 -398q17 -44 38 -60t66 -16zM879 859v-60l-370 -129v58z" />
    <glyph glyph-name="gafar.init" unicode="&#x6af;" horiz-adv-x="464" arabic-form="initial" 
d="M126 541l101 -266q26 -68 26 -120q0 -65 -36.5 -110t-110.5 -45h-126v67h119q42 0 64.5 25t22.5 68q0 38 -22 95l-105 272v60l373 133v-73zM419 859v-60l-370 -129v58z" />
    <glyph glyph-name="gafar.medi" unicode="&#x6af;" horiz-adv-x="472" arabic-form="medial" 
d="M381 67h111v-67h-142q-46 0 -75 21t-49 66q-11 -39 -42.5 -63t-77.5 -24h-126v67h119q43 0 65 25t22 69q0 37 -22 94l-105 272v60l373 133v-73l-306 -106l152 -399q17 -44 38.5 -59.5t64.5 -15.5zM419 859v-60l-370 -129v58z" />
    <glyph glyph-name="guehar.fina" unicode="&#x6b3;" horiz-adv-x="932" arabic-form="final" 
d="M348 -191h72v-77h-72v77zM348 -76h72v-77h-72v77zM842 67h110v-67h-142q-46 0 -75 21t-49 66q-11 -39 -42.5 -63t-77.5 -24h-274q-232 0 -232 233v94h65v-94q0 -70 41 -118t139 -48h254q43 0 65 25t22 69q0 37 -22 94l-105 272v60l373 133v-73l-306 -106l152 -398
q17 -44 38 -60t66 -16zM879 859v-60l-370 -129v58z" />
    <glyph glyph-name="guehar.init" unicode="&#x6b3;" horiz-adv-x="464" arabic-form="initial" 
d="M89 -191h72v-77h-72v77zM89 -76h72v-77h-72v77zM126 541l101 -266q26 -68 26 -120q0 -65 -36.5 -110t-110.5 -45h-126v67h119q42 0 64.5 25t22.5 68q0 38 -22 95l-105 272v60l373 133v-73zM419 859v-60l-370 -129v58z" />
    <glyph glyph-name="guehar.medi" unicode="&#x6b3;" horiz-adv-x="472" arabic-form="medial" 
d="M158 -191h72v-77h-72v77zM158 -76h72v-77h-72v77zM381 67h111v-67h-142q-46 0 -75 21t-49 66q-11 -39 -42.5 -63t-77.5 -24h-126v67h119q43 0 65 25t22 69q0 37 -22 94l-105 272v60l373 133v-73l-306 -106l152 -399q17 -44 38.5 -59.5t64.5 -15.5zM419 859v-60l-370 -129
v58z" />
    <glyph glyph-name="ngoehar.fina" unicode="&#x6b1;" horiz-adv-x="932" arabic-form="final" 
d="M564 954h72v-77h-72v77zM706 954h72v-77h-72v77zM842 67h110v-67h-142q-46 0 -75 21t-49 66q-11 -39 -42.5 -63t-77.5 -24h-274q-232 0 -232 233v94h65v-94q0 -70 41 -118t139 -48h254q43 0 65 25t22 69q0 37 -22 94l-105 272v60l373 133v-73l-306 -106l152 -398
q17 -44 38 -60t66 -16zM879 859v-60l-370 -129v58z" />
    <glyph glyph-name="ngoehar.init" unicode="&#x6b1;" horiz-adv-x="464" arabic-form="initial" 
d="M104 954h72v-77h-72v77zM246 954h72v-77h-72v77zM126 541l101 -266q26 -68 26 -120q0 -65 -36.5 -110t-110.5 -45h-126v67h119q42 0 64.5 25t22.5 68q0 38 -22 95l-105 272v60l373 133v-73zM419 859v-60l-370 -129v58z" />
    <glyph glyph-name="ngoehar.medi" unicode="&#x6b1;" horiz-adv-x="472" arabic-form="medial" 
d="M104 954h72v-77h-72v77zM246 954h72v-77h-72v77zM381 67h111v-67h-142q-46 0 -75 21t-49 66q-11 -39 -42.5 -63t-77.5 -24h-126v67h119q43 0 65 25t22 69q0 37 -22 94l-105 272v60l373 133v-73l-306 -106l152 -399q17 -44 38.5 -59.5t64.5 -15.5zM419 859v-60l-370 -129
v58z" />
    <glyph glyph-name="noonghunnaar.fina" unicode="&#x6ba;" horiz-adv-x="686" arabic-form="final" 
d="M686 67h20v-67h-40q-74 0 -109 46q-9 -110 -71 -175.5t-182 -65.5q-127 0 -190 77t-63 201v245h67v-246q0 -95 46.5 -152.5t141.5 -57.5t140 57.5t45 152.5v246h67v-145q0 -116 128 -116z" />
    <glyph glyph-name="rnoonar.fina" unicode="&#x6bb;" horiz-adv-x="686" arabic-form="final" 
d="M686 67h20v-67h-40q-74 0 -109 46q-9 -110 -71 -175.5t-182 -65.5q-127 0 -190 77t-63 201v245h67v-246q0 -95 46.5 -152.5t141.5 -57.5t140 57.5t45 152.5v246h67v-145q0 -116 128 -116zM343 575q26 0 45.5 -16.5t19.5 -49.5q0 -37 -20 -56.5t-68 -28.5l-116 -23v40
l33 6l4 165l39 9l-3 -82q25 36 66 36zM277 455l45 8q48 8 48 41t-29 33q-28 0 -44.5 -23t-19.5 -59z" />
    <glyph glyph-name="rnoonar.init" unicode="&#x6bb;" horiz-adv-x="269" arabic-form="initial" 
d="M-20 0v67h39q113 0 113 114v147h66v-147q0 -87 -45.5 -134t-132.5 -47h-40zM204 595q26 0 45.5 -16.5t19.5 -49.5q0 -37 -20 -56.5t-68 -28.5l-116 -23v40l33 6l4 165l39 9l-3 -82q25 36 66 36zM138 475l45 8q48 8 48 41t-29 33q-28 0 -44.5 -23t-19.5 -59z" />
    <glyph glyph-name="rnoonar.medi" unicode="&#x6bb;" arabic-form="medial" 
d="M320 67h21v-67h-54q-48 0 -83.5 22t-50.5 58q-37 -80 -132 -80h-41v67h21q66 0 96 27.5t30 87.5v146h67v-145q0 -55 27 -85.5t99 -30.5zM200 595q26 0 45.5 -16.5t19.5 -49.5q0 -37 -20 -56.5t-68 -28.5l-116 -23v40l33 6l4 165l39 9l-3 -82q25 36 66 36zM134 475l45 8
q48 8 48 41t-29 33q-28 0 -44.5 -23t-19.5 -59z" />
    <glyph glyph-name="hehHamzaabovear.fina" unicode="&#x6c0;" horiz-adv-x="514" arabic-form="final" 
d="M514 67h20v-67h-40q-112 0 -149 95q-41 -55 -139 -55q-77 0 -121.5 43t-44.5 121q0 100 71 147q51 36 157 36h63v36h67v-228q0 -128 116 -128zM305 135q26 24 26 98v87h-72q-76 0 -112 -25q-41 -30 -41 -89q0 -51 30.5 -76.5t80.5 -25.5q56 0 88 31zM298 527l51 8v-39
l-204 -35v39l70 12q-40 27 -40 71q0 39 22 60.5t59 21.5q30 0 53 -18l-17 -33q-19 12 -36 12q-20 0 -31.5 -12.5t-11.5 -33.5q0 -29 22.5 -44.5t62.5 -8.5z" />
    <glyph glyph-name="hehgoalar.fina" unicode="&#x6c1;" horiz-adv-x="537" arabic-form="final" 
d="M532 67h25v-67h-41q-174 0 -174 181v79h-97q-126 0 -126 -127v-133h-68v133q0 92 51.5 143.5t142.5 51.5h164v-148q0 -64 28.5 -88.5t94.5 -24.5z" />
    <glyph glyph-name="hehgoalar.init" unicode="&#x6c1;" horiz-adv-x="292" arabic-form="initial" 
d="M155 328h67v-172q0 -103 -82 -140q-39 -52 -39 -101q0 -55 57 -111l-48 -46q-71 60 -71 143q0 55 29 99h-88v67h72q103 0 103 96v165z" />
    <glyph glyph-name="hehgoalar.medi" unicode="&#x6c1;" horiz-adv-x="472" arabic-form="medial" 
d="M434 67h58v-67h-48q-43 0 -61.5 -19.5t-18.5 -65.5v-139h-92q-77 0 -120 42.5t-43 121.5v95q-33 -35 -93 -35h-36v67h36q43 0 68 23.5t25 71.5v50h67v-272q0 -52 24 -74t72 -22h25v82q0 64 36.5 102.5t100.5 38.5z" />
    <glyph glyph-name="hehDoachashmeear.fina" unicode="&#x6be;" horiz-adv-x="674" arabic-form="final" 
d="M674 67h21v-67h-40q-71 0 -111 27q-42 -27 -105 -27h-78q-63 0 -99 24q-32 -24 -100 -24h-127v67h130q-41 41 -41 103q0 71 44 112t119 41q73 0 114.5 -39.5t41.5 -110.5q0 -38 -14.5 -67t-31.5 -39h48q45 0 71 23t26 65v94q0 79 -42.5 125t-116.5 46q-77 0 -131 -54
l-42 44q71 76 176 76q103 0 163 -67.5t60 -177.5v-82q0 -46 -17 -80q27 -12 82 -12zM284 65q45 0 69.5 26.5t24.5 70.5q0 46 -24.5 71t-68.5 25q-45 0 -70.5 -26.5t-25.5 -69.5q0 -42 24.5 -69.5t70.5 -27.5z" />
    <glyph glyph-name="hehDoachashmeear.init" unicode="&#x6be;" horiz-adv-x="614" arabic-form="initial" 
d="M331 486q103 0 163 -67.5t60 -177.5v-82q0 -78 -46.5 -118.5t-123.5 -40.5h-78q-63 0 -99 24q-32 -24 -100 -24h-127v67h130q-41 41 -41 103q0 71 44 112t119 41q73 0 114.5 -39.5t41.5 -110.5q0 -38 -14.5 -67t-31.5 -39h48q45 0 71 23t26 65v94q0 79 -42.5 125
t-116.5 46q-77 0 -131 -54l-42 44q71 76 176 76zM229 65q45 0 69.5 26.5t24.5 70.5q0 46 -24.5 71t-68.5 25q-45 0 -70.5 -26.5t-25.5 -69.5q0 -42 24.5 -69.5t70.5 -27.5z" />
    <glyph glyph-name="hehDoachashmeear.medi" unicode="&#x6be;" horiz-adv-x="619" arabic-form="medial" 
d="M619 67h20v-67h-39q-70 0 -111 27q-42 -27 -105 -27h-78q-63 0 -99 24q-32 -24 -100 -24h-127v67h130q-41 41 -41 103q0 71 44 112t119 41q73 0 114.5 -39.5t41.5 -110.5q0 -38 -14.5 -67t-31.5 -39h48q45 0 71 23t26 65v94q0 79 -42.5 125t-116.5 46q-77 0 -131 -54
l-42 44q71 76 176 76q103 0 163 -67.5t60 -177.5v-82q0 -46 -17 -80q27 -12 82 -12zM229 65q45 0 69.5 26.5t24.5 70.5q0 46 -24.5 71t-68.5 25q-45 0 -70.5 -26.5t-25.5 -69.5q0 -42 24.5 -69.5t70.5 -27.5z" />
    <glyph glyph-name="yehbarreear.fina" unicode="&#x6d2;" horiz-adv-x="447" arabic-form="final" 
d="M467 0h-267q-40 0 -61.5 -20.5t-21.5 -56.5q0 -74 84 -74h344v-67h-336q-77 0 -118.5 37.5t-41.5 102.5q0 66 44 105.5t118 39.5h256v-67z" />
    <glyph glyph-name="yehbarreeHamzaabovear.fina" unicode="&#x6d3;" horiz-adv-x="447" arabic-form="final" 
d="M467 0h-267q-40 0 -61.5 -20.5t-21.5 -56.5q0 -74 84 -74h344v-67h-336q-77 0 -118.5 37.5t-41.5 102.5q0 66 44 105.5t118 39.5h256v-67zM239 197l51 8v-39l-204 -35v39l70 12q-40 27 -40 71q0 39 22 60.5t59 21.5q30 0 53 -18l-17 -33q-19 12 -36 12q-20 0 -31.5 -12.5
t-11.5 -33.5q0 -29 22.5 -44.5t62.5 -8.5z" />
    <glyph glyph-name="ngar.fina" unicode="&#x6ad;" horiz-adv-x="894" arabic-form="final" 
d="M892 67h22v-67h-44q-58 0 -92 19.5t-54 60.5q-36 -80 -162 -80h-260q-242 0 -242 241v88h65v-88q0 -174 185 -174h263q65 0 95.5 30.5t30.5 82.5v532h67v-530q0 -54 26.5 -84.5t99.5 -30.5zM526 345v-66h-200v48h148v18q0 36 -37 36h-91v43l72 110h56l-68 -105h38
q37 0 59.5 -22t22.5 -62zM332 689h72v-77h-72v77zM458 689h72v-77h-72v77zM394 826h72v-77h-72v77z" />
    <glyph glyph-name="ngar.init" unicode="&#x6ad;" horiz-adv-x="464" arabic-form="initial" 
d="M126 541l101 -266q26 -68 26 -120q0 -65 -36.5 -110t-110.5 -45h-126v67h119q42 0 64.5 25t22.5 68q0 38 -22 95l-105 272v60l373 133v-73zM115 827h72v-77h-72v77zM241 827h72v-77h-72v77zM177 964h72v-77h-72v77z" />
    <glyph glyph-name="ngar.medi" unicode="&#x6ad;" horiz-adv-x="472" arabic-form="medial" 
d="M381 67h111v-67h-142q-46 0 -75 21t-49 66q-11 -39 -42.5 -63t-77.5 -24h-126v67h119q43 0 65 25t22 69q0 37 -22 94l-105 272v60l373 133v-73l-306 -106l152 -399q17 -44 38.5 -59.5t64.5 -15.5zM115 827h72v-77h-72v77zM241 827h72v-77h-72v77zM177 964h72v-77h-72v77z
" />
    <glyph glyph-name="uar.fina" unicode="&#x6c7;" horiz-adv-x="494" arabic-form="final" 
d="M514 67v-67h-109q-11 -57 -42.5 -100t-79.5 -69t-96.5 -41t-110.5 -26l-16 65q242 38 277 171h-78q-109 0 -162 57q-47 50 -47 138q0 89 47 145.5t138 56.5q69 0 110 -34q66 -53 66 -204v-92h103zM146 106q33 -39 122 -39h76v83q0 122 -43 159q-26 22 -69 22
q-53 0 -83.5 -36.5t-30.5 -98.5q0 -57 28 -90zM253 659q38 0 58.5 -21.5t20.5 -57.5q0 -39 -21.5 -59.5t-65.5 -29.5l-112 -22v38l70 14q-31 22 -31 60q0 36 22.5 57t58.5 21zM251 532q19 0 31.5 12t12.5 33t-12 32.5t-31 11.5t-30.5 -11.5t-11.5 -32.5t11 -33t30 -12z" />
    <glyph glyph-name="oear.fina" unicode="&#x6c6;" horiz-adv-x="494" arabic-form="final" 
d="M514 67v-67h-109q-11 -57 -42.5 -100t-79.5 -69t-96.5 -41t-110.5 -26l-16 65q242 38 277 171h-78q-109 0 -162 57q-47 50 -47 138q0 89 47 145.5t138 56.5q69 0 110 -34q66 -53 66 -204v-92h103zM146 106q33 -39 122 -39h76v83q0 122 -43 159q-26 22 -69 22
q-53 0 -83.5 -36.5t-30.5 -98.5q0 -57 28 -90zM237 513l47 103h41l-64 -140h-50l-66 140h43z" />
    <glyph glyph-name="yuar.fina" unicode="&#x6c8;" horiz-adv-x="494" arabic-form="final" 
d="M514 67v-67h-109q-11 -57 -42.5 -100t-79.5 -69t-96.5 -41t-110.5 -26l-16 65q242 38 277 171h-78q-109 0 -162 57q-47 50 -47 138q0 89 47 145.5t138 56.5q69 0 110 -34q66 -53 66 -204v-92h103zM146 106q33 -39 122 -39h76v83q0 122 -43 159q-26 22 -69 22
q-53 0 -83.5 -36.5t-30.5 -98.5q0 -57 28 -90zM255 477l-40 -6v137l40 7v-138z" />
    <glyph glyph-name="vear.fina" unicode="&#x6cb;" horiz-adv-x="494" arabic-form="final" 
d="M514 67v-67h-109q-11 -57 -42.5 -100t-79.5 -69t-96.5 -41t-110.5 -26l-16 65q242 38 277 171h-78q-109 0 -162 57q-47 50 -47 138q0 89 47 145.5t138 56.5q69 0 110 -34q66 -53 66 -204v-92h103zM146 106q33 -39 122 -39h76v83q0 122 -43 159q-26 22 -69 22
q-53 0 -83.5 -36.5t-30.5 -98.5q0 -57 28 -90zM136 560h72v-77h-72v77zM262 560h72v-77h-72v77zM198 697h72v-77h-72v77z" />
    <glyph glyph-name="kirghizoear.fina" unicode="&#x6c5;" horiz-adv-x="494" arabic-form="final" 
d="M514 67v-67h-109q-11 -57 -42.5 -100t-79.5 -69t-96.5 -41t-110.5 -26l-16 65q131 20 199 67h-127v62h188q11 21 17 42h-78q-109 0 -162 57q-47 50 -47 138q0 89 47 145.5t138 56.5q67 0 110 -34q66 -52 66 -204v-92h103zM146 106q33 -39 122 -39h76v83q0 122 -43 159
q-26 22 -69 22q-53 0 -83.5 -36.5t-30.5 -98.5q0 -57 28 -90z" />
    <glyph glyph-name="kirghizyuar.fina" unicode="&#x6c9;" horiz-adv-x="494" arabic-form="final" 
d="M514 67v-67h-109q-11 -57 -42.5 -100t-79.5 -69t-96.5 -41t-110.5 -26l-16 65q242 38 277 171h-78q-109 0 -162 57q-47 50 -47 138q0 89 47 145.5t138 56.5q69 0 110 -34q66 -53 66 -204v-92h103zM146 106q33 -39 122 -39h76v83q0 122 -43 159q-26 22 -69 22
q-53 0 -83.5 -36.5t-30.5 -98.5q0 -57 28 -90zM233 579l-47 -103h-41l64 140h50l66 -140h-43z" />
    <glyph glyph-name="ear.fina" unicode="&#x6d0;" horiz-adv-x="710" arabic-form="final" 
d="M718 67h12v-67h-40q-25 0 -45 10q3 -12 3 -28q0 -55 -41 -86t-124 -31h-197q-65 0 -112.5 19.5t-73.5 54t-37.5 74t-11.5 85.5v49h65v-49q0 -71 41.5 -118.5t139.5 -47.5h194q95 0 95 75q0 44 -35 91l-71 98h79l59 -81q21 -27 42.5 -37.5t57.5 -10.5zM323 -326h72v-77
h-72v77zM323 -211h72v-77h-72v77z" />
    <glyph glyph-name="ear.init" unicode="&#x6d0;" horiz-adv-x="269" arabic-form="initial" 
d="M-20 0v67h39q113 0 113 114v147h66v-147q0 -87 -45.5 -134t-132.5 -47h-40zM102 -191h72v-77h-72v77zM102 -76h72v-77h-72v77z" />
    <glyph glyph-name="ear.medi" unicode="&#x6d0;" arabic-form="medial" 
d="M320 67h21v-67h-54q-48 0 -83.5 22t-50.5 58q-37 -80 -132 -80h-41v67h21q66 0 96 27.5t30 87.5v146h67v-145q0 -55 27 -85.5t99 -30.5zM116 -191h72v-77h-72v77zM116 -76h72v-77h-72v77z" />
    <glyph glyph-name="alefMaksuraar.init" unicode="&#x649;" horiz-adv-x="269" arabic-form="initial" 
d="M-20 0v67h39q113 0 113 114v147h66v-147q0 -87 -45.5 -134t-132.5 -47h-40z" />
    <glyph glyph-name="alefMaksuraar.medi" unicode="&#x649;" arabic-form="medial" 
d="M320 67h21v-67h-54q-48 0 -83.5 22t-50.5 58q-37 -80 -132 -80h-41v67h21q66 0 96 27.5t30 87.5v146h67v-145q0 -55 27 -85.5t99 -30.5z" />
    <glyph glyph-name="yehfarsi.fina" unicode="&#x6cc;" horiz-adv-x="710" arabic-form="final" 
d="M718 67h12v-67h-40q-25 0 -45 10q3 -12 3 -28q0 -55 -41 -86t-124 -31h-197q-65 0 -112.5 19.5t-73.5 54t-37.5 74t-11.5 85.5v49h65v-49q0 -71 41.5 -118.5t139.5 -47.5h194q95 0 95 75q0 44 -35 91l-71 98h79l59 -81q21 -27 42.5 -37.5t57.5 -10.5z" />
    <glyph glyph-name="yehfarsi.init" unicode="&#x6cc;" horiz-adv-x="269" arabic-form="initial" 
d="M-20 0v67h39q113 0 113 114v147h66v-147q0 -87 -45.5 -134t-132.5 -47h-40zM32 -76h72v-77h-72v77zM174 -76h72v-77h-72v77z" />
    <glyph glyph-name="yehfarsi.medi" unicode="&#x6cc;" arabic-form="medial" 
d="M320 67h21v-67h-54q-48 0 -83.5 22t-50.5 58q-37 -80 -132 -80h-41v67h21q66 0 96 27.5t30 87.5v146h67v-145q0 -55 27 -85.5t99 -30.5zM46 -76h72v-77h-72v77zM188 -76h72v-77h-72v77z" />
    <glyph glyph-name="rial" unicode="&#xfdfc;" horiz-adv-x="1429" arabic-form="isolated" 
d="M1369 328v-290q0 -117 -50.5 -181t-149.5 -94l-24 62q84 25 120.5 72.5t36.5 145.5v285h67zM865 -77h72v-77h-72v77zM1007 -77h72v-77h-72v77zM304 -128q99 0 137.5 51.5t38.5 158.5v553h65v-557q0 -273 -244 -273q-241 0 -241 260v34h65v-31q0 -96 41 -146t138 -50z
M1060 328h67v-172q0 -77 -46.5 -116.5t-124.5 -39.5h-77q-99 0 -145 75q-28 46 -28 134v503h67v-501q0 -66 22 -99q29 -45 101 -45h61q103 0 103 96v165z" />
    <glyph glyph-name="alefMaddaar.fina" unicode="&#x622;" horiz-adv-x="264" arabic-form="final" 
d="M284 0h-40q-100 0 -144 74q-29 46 -29 135v339h67v-337q0 -66 22 -99q30 -45 101 -45h23v-67zM193 671l27 -21q-24 -47 -73 -47q-31 0 -60 25q-18 15 -34 15q-24 0 -42 -27l-28 25q31 43 72 43q31 0 59 -23q17 -17 38 -17q22 0 41 27z" />
    <glyph glyph-name="alefHamzaabovear.fina" unicode="&#x623;" horiz-adv-x="264" arabic-form="final" 
d="M284 0h-40q-100 0 -144 74q-29 46 -29 135v339h67v-337q0 -66 22 -99q30 -45 101 -45h23v-67zM153 658l51 8v-39l-204 -35v39l70 12q-40 27 -40 71q0 39 22 60.5t59 21.5q30 0 53 -18l-17 -33q-19 12 -36 12q-20 0 -31.5 -12.5t-11.5 -33.5q0 -29 22.5 -44.5t62.5 -8.5z
" />
    <glyph glyph-name="wawHamzaabovear.fina" unicode="&#x624;" horiz-adv-x="494" arabic-form="final" 
d="M514 67v-67h-109q-11 -57 -42.5 -100t-79.5 -69t-96.5 -41t-110.5 -26l-16 65q242 38 277 171h-78q-109 0 -162 57q-47 50 -47 138q0 89 47 145.5t138 56.5q69 0 110 -34q66 -53 66 -204v-92h103zM146 106q33 -39 122 -39h76v83q0 122 -43 159q-26 22 -69 22
q-53 0 -83.5 -36.5t-30.5 -98.5q0 -57 28 -90zM286 527l51 8v-39l-204 -35v39l70 12q-40 27 -40 71q0 39 22 60.5t59 21.5q30 0 53 -18l-17 -33q-19 12 -36 12q-20 0 -31.5 -12.5t-11.5 -33.5q0 -29 22.5 -44.5t62.5 -8.5z" />
    <glyph glyph-name="alefHamzabelowar.fina" unicode="&#x625;" horiz-adv-x="264" arabic-form="final" 
d="M284 0h-40q-99 0 -145 75q-28 46 -28 134v503h67v-501q0 -66 22 -99q29 -45 101 -45h23v-67zM175 -203l51 8v-39l-204 -35v39l70 12q-40 27 -40 71q0 39 22 60.5t59 21.5q30 0 53 -18l-17 -33q-19 12 -36 12q-20 0 -31.5 -12.5t-11.5 -33.5q0 -29 22.5 -44.5t62.5 -8.5z
" />
    <glyph glyph-name="yehHamzaabovear.fina" unicode="&#x626;" horiz-adv-x="710" arabic-form="final" 
d="M718 67h12v-67h-40q-25 0 -45 10q3 -12 3 -28q0 -55 -41 -86t-124 -31h-197q-65 0 -112.5 19.5t-73.5 54t-37.5 74t-11.5 85.5v49h65v-49q0 -71 41.5 -118.5t139.5 -47.5h194q95 0 95 75q0 44 -35 91l-71 98h79l59 -81q21 -27 42.5 -37.5t57.5 -10.5zM335 277l51 8v-39
l-204 -35v39l70 12q-40 27 -40 71q0 39 22 60.5t59 21.5q30 0 53 -18l-17 -33q-19 12 -36 12q-20 0 -31.5 -12.5t-11.5 -33.5q0 -29 22.5 -44.5t62.5 -8.5z" />
    <glyph glyph-name="yehHamzaabovear.init" unicode="&#x626;" horiz-adv-x="269" arabic-form="initial" 
d="M-20 0v67h39q113 0 113 114v147h66v-147q0 -87 -45.5 -134t-132.5 -47h-40zM216 488l51 8v-39l-204 -35v39l70 12q-40 27 -40 71q0 39 22 60.5t59 21.5q30 0 53 -18l-17 -33q-19 12 -36 12q-20 0 -31.5 -12.5t-11.5 -33.5q0 -29 22.5 -44.5t62.5 -8.5z" />
    <glyph glyph-name="yehHamzaabovear.medi" unicode="&#x626;" arabic-form="medial" 
d="M320 67h21v-67h-54q-48 0 -83.5 22t-50.5 58q-37 -80 -132 -80h-41v67h21q66 0 96 27.5t30 87.5v146h67v-145q0 -55 27 -85.5t99 -30.5zM212 488l51 8v-39l-204 -35v39l70 12q-40 27 -40 71q0 39 22 60.5t59 21.5q30 0 53 -18l-17 -33q-19 12 -36 12q-20 0 -31.5 -12.5
t-11.5 -33.5q0 -29 22.5 -44.5t62.5 -8.5z" />
    <glyph glyph-name="alefar.fina" unicode="&#x627;" horiz-adv-x="264" arabic-form="final" 
d="M284 0h-40q-99 0 -145 75q-28 46 -28 134v503h67v-501q0 -66 22 -99q29 -45 101 -45h23v-67z" />
    <glyph glyph-name="behar.fina" unicode="&#x628;" horiz-adv-x="894" arabic-form="final" 
d="M892 67h22v-67h-44q-58 0 -92 19.5t-54 60.5q-36 -80 -162 -80h-260q-242 0 -242 241v88h65v-88q0 -174 185 -174h263q65 0 95.5 30.5t30.5 82.5v149h67v-147q0 -54 26.5 -84.5t99.5 -30.5zM387 -76h72v-77h-72v77z" />
    <glyph glyph-name="behar.init" unicode="&#x628;" horiz-adv-x="269" arabic-form="initial" 
d="M-20 0v67h39q113 0 113 114v147h66v-147q0 -87 -45.5 -134t-132.5 -47h-40zM102 -76h72v-77h-72v77z" />
    <glyph glyph-name="behar.medi" unicode="&#x628;" arabic-form="medial" 
d="M320 67h21v-67h-54q-48 0 -83.5 22t-50.5 58q-37 -80 -132 -80h-41v67h21q66 0 96 27.5t30 87.5v146h67v-145q0 -55 27 -85.5t99 -30.5zM116 -76h72v-77h-72v77z" />
    <glyph glyph-name="tehMarbutaar.fina" unicode="&#x629;" horiz-adv-x="514" arabic-form="final" 
d="M514 67h20v-67h-40q-112 0 -149 95q-41 -55 -139 -55q-77 0 -121.5 43t-44.5 121q0 100 71 147q51 36 157 36h63v36h67v-228q0 -128 116 -128zM305 135q26 24 26 98v87h-72q-76 0 -112 -25q-41 -30 -41 -89q0 -51 30.5 -76.5t80.5 -25.5q56 0 88 31zM140 559h72v-77h-72
v77zM282 559h72v-77h-72v77z" />
    <glyph glyph-name="tehar.fina" unicode="&#x62a;" horiz-adv-x="894" arabic-form="final" 
d="M892 67h22v-67h-44q-58 0 -92 19.5t-54 60.5q-36 -80 -162 -80h-260q-242 0 -242 241v88h65v-88q0 -174 185 -174h263q65 0 95.5 30.5t30.5 82.5v149h67v-147q0 -54 26.5 -84.5t99.5 -30.5zM317 521h72v-77h-72v77zM459 521h72v-77h-72v77z" />
    <glyph glyph-name="tehar.init" unicode="&#x62a;" horiz-adv-x="269" arabic-form="initial" 
d="M-20 0v67h39q113 0 113 114v147h66v-147q0 -87 -45.5 -134t-132.5 -47h-40zM58 520h72v-77h-72v77zM200 520h72v-77h-72v77z" />
    <glyph glyph-name="tehar.medi" unicode="&#x62a;" arabic-form="medial" 
d="M320 67h21v-67h-54q-48 0 -83.5 22t-50.5 58q-37 -80 -132 -80h-41v67h21q66 0 96 27.5t30 87.5v146h67v-145q0 -55 27 -85.5t99 -30.5zM54 520h72v-77h-72v77zM196 520h72v-77h-72v77z" />
    <glyph glyph-name="thehar.fina" unicode="&#x62b;" horiz-adv-x="894" arabic-form="final" 
d="M892 67h22v-67h-44q-58 0 -92 19.5t-54 60.5q-36 -80 -162 -80h-260q-242 0 -242 241v88h65v-88q0 -174 185 -174h263q65 0 95.5 30.5t30.5 82.5v149h67v-147q0 -54 26.5 -84.5t99.5 -30.5zM325 522h72v-77h-72v77zM451 522h72v-77h-72v77zM387 659h72v-77h-72v77z" />
    <glyph glyph-name="thehar.init" unicode="&#x62b;" horiz-adv-x="269" arabic-form="initial" 
d="M-20 0v67h39q113 0 113 114v147h66v-147q0 -87 -45.5 -134t-132.5 -47h-40zM66 521h72v-77h-72v77zM192 521h72v-77h-72v77zM128 658h72v-77h-72v77z" />
    <glyph glyph-name="thehar.medi" unicode="&#x62b;" arabic-form="medial" 
d="M320 67h21v-67h-54q-48 0 -83.5 22t-50.5 58q-37 -80 -132 -80h-41v67h21q66 0 96 27.5t30 87.5v146h67v-145q0 -55 27 -85.5t99 -30.5zM62 521h72v-77h-72v77zM188 521h72v-77h-72v77zM124 658h72v-77h-72v77z" />
    <glyph glyph-name="jeemar.fina" unicode="&#x62c;" horiz-adv-x="601" arabic-form="final" 
d="M535 67h86v-67h-91q-125 0 -125 126v30h-48q-115 0 -181.5 -50.5t-66.5 -148.5q0 -86 53 -135t143 -49q95 0 162 63l37 -47q-80 -82 -203 -82q-116 0 -188.5 65t-72.5 183q0 123 84.5 194.5t220.5 71.5h27q-28 12 -50 35l-32 33q-40 41 -85 41q-51 0 -90 -42l-41 44
q59 65 137 65q71 0 125 -57l62 -64q19 -20 30.5 -30t28.5 -17.5t37 -7.5h35v-64h-59v-19q0 -38 14 -54.5t51 -16.5zM249 -1h72v-77h-72v77z" />
    <glyph glyph-name="jeemar.init" unicode="&#x62c;" horiz-adv-x="546" arabic-form="initial" 
d="M494 213h23v-66h-25q-36 0 -56 -6t-41 -23l-65 -52q-44 -35 -86 -50.5t-108 -15.5h-156v67h157q85 0 146 48l50 40q29 23 53 29q-26 10 -57 46l-49 54q-40 46 -95 46q-48 0 -96 -44l-40 46q56 65 141 65q80 0 135 -61l72 -80q38 -43 97 -43zM158 -76h72v-77h-72v77z" />
    <glyph glyph-name="jeemar.medi" unicode="&#x62c;" horiz-adv-x="587" arabic-form="medial" 
d="M506 67h101v-67h-104q-125 0 -133 98l-40 -32q-44 -35 -86 -50.5t-108 -15.5h-156v67h157q85 0 146 48l50 40q29 23 53 29q-26 11 -57 46l-49 54q-40 46 -95 46q-48 0 -96 -44l-40 46q56 65 141 65q81 0 135 -61l72 -80q38 -43 97 -43h23v-66h-25q-34 0 -57 -6v-18
q0 -56 71 -56zM181 -76h72v-77h-72v77z" />
    <glyph glyph-name="hahar.fina" unicode="&#x62d;" horiz-adv-x="601" arabic-form="final" 
d="M535 67h86v-67h-91q-125 0 -125 126v30h-48q-115 0 -181.5 -50.5t-66.5 -148.5q0 -86 53 -135t143 -49q95 0 162 63l37 -47q-80 -82 -203 -82q-116 0 -188.5 65t-72.5 183q0 123 84.5 194.5t220.5 71.5h27q-28 12 -50 35l-32 33q-40 41 -85 41q-51 0 -90 -42l-41 44
q59 65 137 65q71 0 125 -57l62 -64q19 -20 30.5 -30t28.5 -17.5t37 -7.5h35v-64h-59v-19q0 -38 14 -54.5t51 -16.5z" />
    <glyph glyph-name="hahar.init" unicode="&#x62d;" horiz-adv-x="546" arabic-form="initial" 
d="M494 213h23v-66h-25q-36 0 -56 -6t-41 -23l-65 -52q-44 -35 -86 -50.5t-108 -15.5h-156v67h157q85 0 146 48l50 40q29 23 53 29q-26 10 -57 46l-49 54q-40 46 -95 46q-48 0 -96 -44l-40 46q56 65 141 65q80 0 135 -61l72 -80q38 -43 97 -43z" />
    <glyph glyph-name="hahar.medi" unicode="&#x62d;" horiz-adv-x="587" arabic-form="medial" 
d="M506 67h101v-67h-104q-125 0 -133 98l-40 -32q-44 -35 -86 -50.5t-108 -15.5h-156v67h157q85 0 146 48l50 40q29 23 53 29q-26 11 -57 46l-49 54q-40 46 -95 46q-48 0 -96 -44l-40 46q56 65 141 65q81 0 135 -61l72 -80q38 -43 97 -43h23v-66h-25q-34 0 -57 -6v-18
q0 -56 71 -56z" />
    <glyph glyph-name="khahar.fina" unicode="&#x62e;" horiz-adv-x="601" arabic-form="final" 
d="M535 67h86v-67h-91q-125 0 -125 126v30h-48q-115 0 -181.5 -50.5t-66.5 -148.5q0 -86 53 -135t143 -49q95 0 162 63l37 -47q-80 -82 -203 -82q-116 0 -188.5 65t-72.5 183q0 123 84.5 194.5t220.5 71.5h27q-28 12 -50 35l-32 33q-40 41 -85 41q-51 0 -90 -42l-41 44
q59 65 137 65q71 0 125 -57l62 -64q19 -20 30.5 -30t28.5 -17.5t37 -7.5h35v-64h-59v-19q0 -38 14 -54.5t51 -16.5zM174 560h72v-77h-72v77z" />
    <glyph glyph-name="khahar.init" unicode="&#x62e;" horiz-adv-x="546" arabic-form="initial" 
d="M494 213h23v-66h-25q-36 0 -56 -6t-41 -23l-65 -52q-44 -35 -86 -50.5t-108 -15.5h-156v67h157q85 0 146 48l50 40q29 23 53 29q-26 10 -57 46l-49 54q-40 46 -95 46q-48 0 -96 -44l-40 46q56 65 141 65q80 0 135 -61l72 -80q38 -43 97 -43zM153 560h72v-77h-72v77z" />
    <glyph glyph-name="khahar.medi" unicode="&#x62e;" horiz-adv-x="587" arabic-form="medial" 
d="M506 67h101v-67h-104q-125 0 -133 98l-40 -32q-44 -35 -86 -50.5t-108 -15.5h-156v67h157q85 0 146 48l50 40q29 23 53 29q-26 11 -57 46l-49 54q-40 46 -95 46q-48 0 -96 -44l-40 46q56 65 141 65q81 0 135 -61l72 -80q38 -43 97 -43h23v-66h-25q-34 0 -57 -6v-18
q0 -56 71 -56zM153 560h72v-77h-72v77z" />
    <glyph glyph-name="dalar.fina" unicode="&#x62f;" horiz-adv-x="598" arabic-form="final" 
d="M597 67h21v-67h-40q-95 0 -136 68q-13 -35 -47 -51.5t-77 -16.5h-114q-63 0 -102 14t-71 52l46 49q24 -28 51.5 -38t75.5 -10h115q78 0 78 60q0 29 -27 81l-80 160l62 31l131 -269q18 -37 42 -50t72 -13z" />
    <glyph glyph-name="thalar.fina" unicode="&#x630;" horiz-adv-x="598" arabic-form="final" 
d="M597 67h21v-67h-40q-95 0 -136 68q-13 -35 -47 -51.5t-77 -16.5h-114q-63 0 -102 14t-71 52l46 49q24 -28 51.5 -38t75.5 -10h115q78 0 78 60q0 29 -27 81l-80 160l62 31l131 -269q18 -37 42 -50t72 -13zM261 560h72v-77h-72v77z" />
    <glyph glyph-name="rehar.fina" unicode="&#x631;" horiz-adv-x="387" arabic-form="final" 
d="M386 67h20v-67h-39q-75 0 -108 44v-6q0 -117 -50.5 -181t-149.5 -94l-24 62q84 25 120.5 72.5t36.5 145.5v285h67v-146q0 -115 127 -115z" />
    <glyph glyph-name="zainar.fina" unicode="&#x632;" horiz-adv-x="387" arabic-form="final" 
d="M386 67h20v-67h-39q-75 0 -108 44v-6q0 -117 -50.5 -181t-149.5 -94l-24 62q84 25 120.5 72.5t36.5 145.5v285h67v-146q0 -115 127 -115zM189 521h72v-77h-72v77z" />
    <glyph glyph-name="seenar.fina" unicode="&#x633;" horiz-adv-x="1165" arabic-form="final" 
d="M1163 67h22v-67h-41q-101 0 -144 70q-32 -76 -123 -76q-89 0 -121 71q-33 -71 -111 -71q-57 0 -90 39q-11 -104 -73 -166t-178 -62q-127 0 -190 77t-63 201v109h67v-110q0 -95 46.5 -152.5t141.5 -57.5t140 57.5t45 152.5v169h67v-103q0 -38 23 -61.5t64 -23.5
q85 0 85 102v126h67v-126q0 -102 88 -102q85 0 85 102v163h67v-137q0 -62 28 -93t98 -31z" />
    <glyph glyph-name="seenar.init" unicode="&#x633;" horiz-adv-x="734" arabic-form="initial" 
d="M607 328h67v-164q0 -49 -13.5 -84t-37 -53t-48.5 -25.5t-54 -7.5q-91 0 -128 73q-34 -73 -121 -73q-93 0 -124 76q-40 -70 -128 -70h-40v67h34q113 0 113 112v72h67v-86q0 -102 88 -102q85 0 85 102v126h67v-126q0 -102 88 -102q85 0 85 101v164z" />
    <glyph glyph-name="seenar.medi" unicode="&#x633;" horiz-adv-x="802" arabic-form="medial" 
d="M801 67h21v-67h-40q-102 0 -145 70q-32 -76 -123 -76q-90 0 -121 72q-34 -72 -122 -72q-91 0 -123 76q-39 -70 -128 -70h-40v67h30q117 0 117 112v72h67v-85q0 -103 88 -103q85 0 85 103v125h67v-125q0 -103 88 -103q85 0 85 103v162h67v-137q0 -62 28 -93t99 -31z" />
    <glyph glyph-name="sheenar.fina" unicode="&#x634;" horiz-adv-x="1165" arabic-form="final" 
d="M1163 67h22v-67h-41q-101 0 -144 70q-32 -76 -123 -76q-89 0 -121 71q-33 -71 -111 -71q-57 0 -90 39q-11 -104 -73 -166t-178 -62q-127 0 -190 77t-63 201v109h67v-110q0 -95 46.5 -152.5t141.5 -57.5t140 57.5t45 152.5v169h67v-103q0 -38 23 -61.5t64 -23.5
q85 0 85 102v126h67v-126q0 -102 88 -102q85 0 85 102v163h67v-137q0 -62 28 -93t98 -31zM665 464h72v-77h-72v77zM791 464h72v-77h-72v77zM727 601h72v-77h-72v77z" />
    <glyph glyph-name="sheenar.init" unicode="&#x634;" horiz-adv-x="734" arabic-form="initial" 
d="M607 328h67v-164q0 -49 -13.5 -84t-37 -53t-48.5 -25.5t-54 -7.5q-91 0 -128 73q-34 -73 -121 -73q-93 0 -124 76q-40 -70 -128 -70h-40v67h34q113 0 113 112v72h67v-86q0 -102 88 -102q85 0 85 102v126h67v-126q0 -102 88 -102q85 0 85 101v164zM303 464h72v-77h-72v77z
M429 464h72v-77h-72v77zM365 601h72v-77h-72v77z" />
    <glyph glyph-name="sheenar.medi" unicode="&#x634;" horiz-adv-x="802" arabic-form="medial" 
d="M801 67h21v-67h-40q-102 0 -145 70q-32 -76 -123 -76q-90 0 -121 72q-34 -72 -122 -72q-91 0 -123 76q-39 -70 -128 -70h-40v67h30q117 0 117 112v72h67v-85q0 -103 88 -103q85 0 85 103v125h67v-125q0 -103 88 -103q85 0 85 103v162h67v-137q0 -62 28 -93t99 -31z
M303 464h72v-77h-72v77zM429 464h72v-77h-72v77zM365 601h72v-77h-72v77z" />
    <glyph glyph-name="sadar.fina" unicode="&#x635;" horiz-adv-x="1223" arabic-form="final" 
d="M1188 67h54v-67h-55q-85 0 -131 41q-57 -41 -141 -41h-199v-68h-67v68q-64 0 -93 35q-11 -105 -73 -167.5t-179 -62.5q-127 0 -190 77t-63 201v109h67v-110q0 -95 46.5 -152.5t141.5 -57.5t140 57.5t45 152.5v168h67v-86q0 -93 91 -97q2 85 26.5 150.5t64.5 103.5t87 57
t99 19q89 0 146 -54.5t57 -146.5q0 -59 -27 -105q28 -24 86 -24zM716 67h199q68 0 107 34t39 96t-38 97.5t-98 35.5q-39 0 -73.5 -13.5t-65 -42.5t-49.5 -82.5t-21 -124.5z" />
    <glyph glyph-name="sadar.init" unicode="&#x635;" horiz-adv-x="790" arabic-form="initial" 
d="M546 397q92 0 147.5 -54.5t55.5 -143.5q0 -90 -57.5 -144.5t-155.5 -54.5h-199v-68h-67v68q-104 0 -132 67q-30 -67 -118 -67h-40v67h29q52 0 77 22t25 82v53h67v-54q0 -58 20.5 -79.5t71.5 -23.5q4 165 84 247.5t192 82.5zM337 67h199q68 0 106.5 35t38.5 97
q0 61 -36.5 96t-99.5 35q-38 0 -72.5 -13.5t-65 -42.5t-49.5 -82.5t-21 -124.5z" />
    <glyph glyph-name="sadar.medi" unicode="&#x635;" horiz-adv-x="843" arabic-form="medial" 
d="M809 67h54v-67h-55q-88 0 -132 41q-57 -41 -140 -41h-199v-68h-67v68q-104 0 -132 67q-30 -67 -118 -67h-40v67h29q52 0 77 22t25 82v53h67v-54q0 -58 20.5 -79.5t71.5 -23.5q4 165 84 247.5t192 82.5q92 0 147.5 -54.5t55.5 -143.5q0 -60 -28 -107q29 -25 88 -25z
M337 67h199q68 0 106.5 35t38.5 97q0 61 -36.5 96t-99.5 35q-38 0 -72.5 -13.5t-65 -42.5t-49.5 -82.5t-21 -124.5z" />
    <glyph glyph-name="dadar.fina" unicode="&#x636;" horiz-adv-x="1223" arabic-form="final" 
d="M1188 67h54v-67h-55q-85 0 -131 41q-57 -41 -141 -41h-199v-68h-67v68q-64 0 -93 35q-11 -105 -73 -167.5t-179 -62.5q-127 0 -190 77t-63 201v109h67v-110q0 -95 46.5 -152.5t141.5 -57.5t140 57.5t45 152.5v168h67v-86q0 -93 91 -97q2 85 26.5 150.5t64.5 103.5t87 57
t99 19q89 0 146 -54.5t57 -146.5q0 -59 -27 -105q28 -24 86 -24zM716 67h199q68 0 107 34t39 96t-38 97.5t-98 35.5q-39 0 -73.5 -13.5t-65 -42.5t-49.5 -82.5t-21 -124.5zM886 560h72v-77h-72v77z" />
    <glyph glyph-name="dadar.init" unicode="&#x636;" horiz-adv-x="790" arabic-form="initial" 
d="M546 397q92 0 147.5 -54.5t55.5 -143.5q0 -90 -57.5 -144.5t-155.5 -54.5h-199v-68h-67v68q-104 0 -132 67q-30 -67 -118 -67h-40v67h29q52 0 77 22t25 82v53h67v-54q0 -58 20.5 -79.5t71.5 -23.5q4 165 84 247.5t192 82.5zM337 67h199q68 0 106.5 35t38.5 97
q0 61 -36.5 96t-99.5 35q-38 0 -72.5 -13.5t-65 -42.5t-49.5 -82.5t-21 -124.5zM506 560h72v-77h-72v77z" />
    <glyph glyph-name="dadar.medi" unicode="&#x636;" horiz-adv-x="843" arabic-form="medial" 
d="M809 67h54v-67h-55q-88 0 -132 41q-57 -41 -140 -41h-199v-68h-67v68q-104 0 -132 67q-30 -67 -118 -67h-40v67h29q52 0 77 22t25 82v53h67v-54q0 -58 20.5 -79.5t71.5 -23.5q4 165 84 247.5t192 82.5q92 0 147.5 -54.5t55.5 -143.5q0 -60 -28 -107q29 -25 88 -25z
M337 67h199q68 0 106.5 35t38.5 97q0 61 -36.5 96t-99.5 35q-38 0 -72.5 -13.5t-65 -42.5t-49.5 -82.5t-21 -124.5zM506 560h72v-77h-72v77z" />
    <glyph glyph-name="tahar.fina" unicode="&#x637;" horiz-adv-x="712" arabic-form="final" 
d="M677 67h54v-67h-55q-78 0 -123 34q-57 -34 -146 -34h-367v67h118v645h67v-453q29 68 86.5 102.5t128.5 34.5q92 0 146 -54.5t54 -142.5q0 -71 -35 -118q28 -14 72 -14zM218 67h205q73 0 111.5 34.5t38.5 96.5q0 59 -36 95t-100 36q-37 0 -71 -12.5t-66 -40.5t-54 -81.5
t-28 -127.5z" />
    <glyph glyph-name="tahar.init" unicode="&#x637;" horiz-adv-x="630" arabic-form="initial" 
d="M380 396q92 0 146 -54.5t54 -142.5q0 -91 -59 -145t-174 -54h-367v67h118v645h67v-453q29 68 86.5 102.5t128.5 34.5zM158 67h205q73 0 111.5 34.5t38.5 96.5q0 59 -36 95t-100 36q-37 0 -71 -12.5t-66 -40.5t-54 -81.5t-28 -127.5z" />
    <glyph glyph-name="tahar.medi" unicode="&#x637;" horiz-adv-x="661" arabic-form="medial" 
d="M626 67h54v-67h-55q-82 0 -127 37q-57 -37 -151 -37h-367v67h118v645h67v-453q29 68 86.5 102.5t128.5 34.5q92 0 146 -54.5t54 -142.5q0 -69 -32 -114q28 -18 78 -18zM158 67h205q73 0 111.5 34.5t38.5 96.5q0 59 -36 95t-100 36q-37 0 -71 -12.5t-66 -40.5t-54 -81.5
t-28 -127.5z" />
    <glyph glyph-name="zahar.fina" unicode="&#x638;" horiz-adv-x="712" arabic-form="final" 
d="M677 67h54v-67h-55q-78 0 -123 34q-57 -34 -146 -34h-367v67h118v645h67v-453q29 68 86.5 102.5t128.5 34.5q92 0 146 -54.5t54 -142.5q0 -71 -35 -118q28 -14 72 -14zM218 67h205q73 0 111.5 34.5t38.5 96.5q0 59 -36 95t-100 36q-37 0 -71 -12.5t-66 -40.5t-54 -81.5
t-28 -127.5zM410 560h72v-77h-72v77z" />
    <glyph glyph-name="zahar.init" unicode="&#x638;" horiz-adv-x="630" arabic-form="initial" 
d="M350 560h72v-77h-72v77zM380 396q92 0 146 -54.5t54 -142.5q0 -91 -59 -145t-174 -54h-367v67h118v645h67v-453q29 68 86.5 102.5t128.5 34.5zM158 67h205q73 0 111.5 34.5t38.5 96.5q0 59 -36 95t-100 36q-37 0 -71 -12.5t-66 -40.5t-54 -81.5t-28 -127.5z" />
    <glyph glyph-name="zahar.medi" unicode="&#x638;" horiz-adv-x="661" arabic-form="medial" 
d="M626 67h54v-67h-55q-82 0 -127 37q-57 -37 -151 -37h-367v67h118v645h67v-453q29 68 86.5 102.5t128.5 34.5q92 0 146 -54.5t54 -142.5q0 -69 -32 -114q28 -18 78 -18zM158 67h205q73 0 111.5 34.5t38.5 96.5q0 59 -36 95t-100 36q-37 0 -71 -12.5t-66 -40.5t-54 -81.5
t-28 -127.5zM350 560h72v-77h-72v77z" />
    <glyph glyph-name="ainar.fina" unicode="&#x639;" horiz-adv-x="587" arabic-form="final" 
d="M607 0h-355q-67 0 -109.5 -24t-42.5 -91q0 -60 42 -86t123 -26q115 0 196 50l30 -57q-95 -60 -230 -60q-107 0 -168.5 44t-61.5 133q0 91 59 136t146 48l-77 185q-18 43 -35 57.5t-53 14.5v63h290q72 0 114 -38t42 -104q0 -45 -31 -107q-12 -24 -21 -37q-16 -25 -34 -34
h176v-67zM355 320h-159q20 -27 32 -57l80 -196h13q43 0 70 39q14 20 35 60q23 46 23 76q0 37 -25.5 57.5t-68.5 20.5z" />
    <glyph glyph-name="ainar.init" unicode="&#x639;" horiz-adv-x="454" arabic-form="initial" 
d="M310 67h109v-67h-439v67h148q-65 54 -65 146q0 84 52 134t133 50q77 0 136 -45l-34 -54q-40 32 -94 32q-55 0 -90 -32.5t-35 -93.5q0 -57 34 -92q40 -45 145 -45z" />
    <glyph glyph-name="ainar.medi" unicode="&#x639;" horiz-adv-x="527" arabic-form="medial" 
d="M376 67h171v-67h-567v67h201l-77 185q-17 40 -35 56t-53 16v63h290q72 0 114 -38t42 -104q0 -49 -30 -107q-9 -19 -22 -37q-16 -25 -34 -34zM252 67h14q43 0 70 39q14 20 35 60q23 46 23 76q0 37 -25.5 57.5t-68.5 20.5h-160q18 -21 31 -52z" />
    <glyph glyph-name="ghainar.fina" unicode="&#x63a;" horiz-adv-x="587" arabic-form="final" 
d="M607 0h-355q-67 0 -109.5 -24t-42.5 -91q0 -60 42 -86t123 -26q115 0 196 50l30 -57q-95 -60 -230 -60q-107 0 -168.5 44t-61.5 133q0 91 59 136t146 48l-77 185q-18 43 -35 57.5t-53 14.5v63h290q72 0 114 -38t42 -104q0 -45 -31 -107q-12 -24 -21 -37q-16 -25 -34 -34
h176v-67zM355 320h-159q20 -27 32 -57l80 -196h13q43 0 70 39q14 20 35 60q23 46 23 76q0 37 -25.5 57.5t-68.5 20.5zM256 560h72v-77h-72v77z" />
    <glyph glyph-name="ghainar.init" unicode="&#x63a;" horiz-adv-x="454" arabic-form="initial" 
d="M310 67h109v-67h-439v67h148q-65 54 -65 146q0 84 52 134t133 50q77 0 136 -45l-34 -54q-40 32 -94 32q-55 0 -90 -32.5t-35 -93.5q0 -57 34 -92q40 -45 145 -45zM208 560h72v-77h-72v77z" />
    <glyph glyph-name="ghainar.medi" unicode="&#x63a;" horiz-adv-x="527" arabic-form="medial" 
d="M376 67h171v-67h-567v67h201l-77 185q-17 40 -35 56t-53 16v63h290q72 0 114 -38t42 -104q0 -49 -30 -107q-9 -19 -22 -37q-16 -25 -34 -34zM252 67h14q43 0 70 39q14 20 35 60q23 46 23 76q0 37 -25.5 57.5t-68.5 20.5h-160q18 -21 31 -52zM202 560h72v-77h-72v77z" />
    <glyph glyph-name="fehar.fina" unicode="&#x641;" horiz-adv-x="968" arabic-form="final" 
d="M823 67h165v-67h-188q-71 0 -115 26q-43 -26 -105 -26h-279q-67 0 -114.5 19.5t-72 54t-35 72.5t-10.5 85v96h65v-96q0 -70 41 -117t139 -47h279q-61 46 -61 142q0 85 49 136.5t131 51.5t128 -51t46 -131q0 -99 -63 -148zM711 66q50 0 80 38t30 98q0 59 -30 93.5
t-80 34.5q-51 0 -82 -35t-31 -94t30.5 -97t82.5 -38zM675 560h72v-77h-72v77z" />
    <glyph glyph-name="fehar.init" unicode="&#x641;" horiz-adv-x="477" arabic-form="initial" 
d="M241 518q81 0 128 -53t47 -153v-118q0 -86 -49.5 -140t-157.5 -54h-229v67h232q69 0 103 31.5t34 87.5v9q-34 -63 -121 -63q-80 0 -126 50.5t-46 137.5q0 91 51 144.5t134 53.5zM235 195q53 0 83 32t30 93t-30 96.5t-83 35.5q-52 0 -82 -35t-30 -97q0 -58 28 -91.5
t84 -33.5zM202 680h72v-77h-72v77z" />
    <glyph glyph-name="fehar.medi" unicode="&#x641;" horiz-adv-x="517" arabic-form="medial" 
d="M372 67h165v-67h-188q-70 0 -116 26q-43 -26 -106 -26h-147v67h162q-60 45 -60 142q0 84 49 136t130 52q82 0 128 -50.5t46 -131.5q0 -99 -63 -148zM259 66q51 0 81 38t30 98t-30 94t-81 34t-81.5 -35t-30.5 -93q0 -59 30 -97.5t82 -38.5zM223 560h72v-77h-72v77z" />
    <glyph glyph-name="qafar.fina" unicode="&#x642;" horiz-adv-x="811" arabic-form="final" 
d="M831 67v-67h-88q-5 -86 -53 -140.5t-141 -54.5h-265q-116 0 -174.5 66t-58.5 168v107h65v-107q0 -74 43.5 -120.5t137.5 -46.5h249q117 0 129 128h-84q-109 0 -162 57q-47 50 -47 138q0 89 47 145.5t138 56.5q67 0 110 -34q66 -52 66 -204v-92h88zM478 106
q34 -39 122 -39h76v83q0 122 -43 159q-26 22 -69 22q-53 0 -83.5 -36.5t-30.5 -98.5q0 -57 28 -90zM461 559h72v-77h-72v77zM603 559h72v-77h-72v77z" />
    <glyph glyph-name="qafar.init" unicode="&#x642;" horiz-adv-x="477" arabic-form="initial" 
d="M241 518q81 0 128 -53t47 -153v-118q0 -86 -49.5 -140t-157.5 -54h-229v67h232q69 0 103 31.5t34 87.5v9q-34 -63 -121 -63q-80 0 -126 50.5t-46 137.5q0 91 51 144.5t134 53.5zM235 195q53 0 83 32t30 93t-30 96.5t-83 35.5q-52 0 -82 -35t-30 -97q0 -58 28 -91.5
t84 -33.5zM132 679h72v-77h-72v77zM274 679h72v-77h-72v77z" />
    <glyph glyph-name="qafar.medi" unicode="&#x642;" horiz-adv-x="517" arabic-form="medial" 
d="M372 67h165v-67h-188q-70 0 -116 26q-43 -26 -106 -26h-147v67h162q-60 45 -60 142q0 84 49 136t130 52q82 0 128 -50.5t46 -131.5q0 -99 -63 -148zM259 66q51 0 81 38t30 98t-30 94t-81 34t-81.5 -35t-30.5 -93q0 -59 30 -97.5t82 -38.5zM153 559h72v-77h-72v77z
M295 559h72v-77h-72v77z" />
    <glyph glyph-name="kafar.fina" unicode="&#x643;" horiz-adv-x="894" arabic-form="final" 
d="M892 67h22v-67h-44q-58 0 -92 19.5t-54 60.5q-36 -80 -162 -80h-260q-242 0 -242 241v88h65v-88q0 -174 185 -174h263q65 0 95.5 30.5t30.5 82.5v532h67v-530q0 -54 26.5 -84.5t99.5 -30.5zM526 345v-66h-200v48h148v18q0 36 -37 36h-91v43l72 110h56l-68 -105h38
q37 0 59.5 -22t22.5 -62z" />
    <glyph glyph-name="kafar.init" unicode="&#x643;" horiz-adv-x="464" arabic-form="initial" 
d="M126 541l101 -266q26 -68 26 -120q0 -65 -36.5 -110t-110.5 -45h-126v67h119q42 0 64.5 25t22.5 68q0 38 -22 95l-105 272v60l373 133v-73z" />
    <glyph glyph-name="kafar.medi" unicode="&#x643;" horiz-adv-x="472" arabic-form="medial" 
d="M381 67h111v-67h-142q-46 0 -75 21t-49 66q-11 -39 -42.5 -63t-77.5 -24h-126v67h119q43 0 65 25t22 69q0 37 -22 94l-105 272v60l373 133v-73l-306 -106l152 -399q17 -44 38.5 -59.5t64.5 -15.5z" />
    <glyph glyph-name="lamar.fina" unicode="&#x644;" horiz-adv-x="674" arabic-form="final" 
d="M674 67h19v-67h-39q-76 0 -110 47q-13 -242 -243 -242q-241 0 -241 260v34h65v-31q0 -96 41 -146t138 -50q99 0 137.5 51.5t38.5 158.5v553h65v-452q0 -116 129 -116z" />
    <glyph glyph-name="lamar.init" unicode="&#x644;" horiz-adv-x="257" arabic-form="initial" 
d="M-20 0v67h23q71 0 95 32q21 28 21 112v501h67v-503q0 -103 -31 -148q-41 -61 -135 -61h-40z" />
    <glyph glyph-name="lamar.medi" unicode="&#x644;" arabic-form="medial" 
d="M319 67h22v-67h-46q-107 0 -142 82q-34 -82 -133 -82h-40v67h29q118 0 118 117v528h67v-527q0 -56 26 -87t99 -31z" />
    <glyph glyph-name="meemar.fina" unicode="&#x645;" horiz-adv-x="618" arabic-form="final" 
d="M617 67h21v-67h-40q-60 0 -96 18q-48 -73 -146 -73q-76 0 -119.5 44t-51.5 116h-1q-77 0 -77 -93v-248h-66v254q0 75 38.5 114.5t106.5 39.5q10 76 56 116.5t120 40.5q77 0 125.5 -50.5t48.5 -138.5q0 -33 -7 -58q29 -15 88 -15zM359 9q111 0 111 128q0 58 -27 93t-84 35
q-55 0 -82.5 -36t-27.5 -94q0 -57 27.5 -91.5t82.5 -34.5z" />
    <glyph glyph-name="meemar.init" unicode="&#x645;" horiz-adv-x="502" arabic-form="initial" 
d="M282 331q78 0 124.5 -50.5t46.5 -140.5q0 -88 -45 -142.5t-133 -54.5q-123 0 -161 115q-23 -58 -94 -58h-40v67h8q60 0 87 30q11 13 17 29t12 41.5t10 39.5q40 124 168 124zM276 9q56 0 83.5 34t27.5 94q0 59 -26.5 93.5t-82.5 34.5q-55 0 -83.5 -36.5t-28.5 -93.5
q0 -58 27.5 -92t82.5 -34z" />
    <glyph glyph-name="meemar.medi" unicode="&#x645;" horiz-adv-x="535" arabic-form="medial" 
d="M534 67h21v-67h-40q-57 0 -93 16q-45 -73 -147 -73q-123 0 -161 115q-23 -58 -94 -58h-40v67h8q62 0 87 30q11 13 17 29t12 41.5t10 39.5q40 124 168 124q78 0 124.5 -50.5t46.5 -140.5q0 -30 -6 -59q30 -14 87 -14zM276 9q56 0 83.5 34t27.5 94q0 59 -26.5 93.5
t-82.5 34.5q-55 0 -83.5 -36.5t-28.5 -93.5q0 -58 27.5 -92t82.5 -34z" />
    <glyph glyph-name="noonar.fina" unicode="&#x646;" horiz-adv-x="686" arabic-form="final" 
d="M686 67h20v-67h-40q-74 0 -109 46q-9 -110 -71 -175.5t-182 -65.5q-127 0 -190 77t-63 201v245h67v-246q0 -95 46.5 -152.5t141.5 -57.5t140 57.5t45 152.5v246h67v-145q0 -116 128 -116zM267 501h72v-77h-72v77z" />
    <glyph glyph-name="noonar.init" unicode="&#x646;" horiz-adv-x="269" arabic-form="initial" 
d="M-20 0v67h39q113 0 113 114v147h66v-147q0 -87 -45.5 -134t-132.5 -47h-40zM128 521h72v-77h-72v77z" />
    <glyph glyph-name="noonar.medi" unicode="&#x646;" arabic-form="medial" 
d="M320 67h21v-67h-54q-48 0 -83.5 22t-50.5 58q-37 -80 -132 -80h-41v67h21q66 0 96 27.5t30 87.5v146h67v-145q0 -55 27 -85.5t99 -30.5zM124 521h72v-77h-72v77z" />
    <glyph glyph-name="hehar.fina" unicode="&#x647;" horiz-adv-x="514" arabic-form="final" 
d="M514 67h20v-67h-40q-112 0 -149 95q-41 -55 -139 -55q-77 0 -121.5 43t-44.5 121q0 100 71 147q51 36 157 36h63v36h67v-228q0 -128 116 -128zM305 135q26 24 26 98v87h-72q-76 0 -112 -25q-41 -30 -41 -89q0 -51 30.5 -76.5t80.5 -25.5q56 0 88 31z" />
    <glyph glyph-name="hehar.init" unicode="&#x647;" horiz-adv-x="614" arabic-form="initial" 
d="M331 486q103 0 163 -67.5t60 -177.5v-82q0 -78 -46.5 -118.5t-123.5 -40.5h-78q-63 0 -99 24q-32 -24 -100 -24h-127v67h130q-41 41 -41 103q0 71 44 112t119 41q73 0 114.5 -39.5t41.5 -110.5q0 -38 -14.5 -67t-31.5 -39h48q45 0 71 23t26 65v94q0 79 -42.5 125
t-116.5 46q-77 0 -131 -54l-42 44q71 76 176 76zM229 65q45 0 69.5 26.5t24.5 70.5q0 46 -24.5 71t-68.5 25q-45 0 -70.5 -26.5t-25.5 -69.5q0 -42 24.5 -69.5t70.5 -27.5z" />
    <glyph glyph-name="hehar.medi" unicode="&#x647;" horiz-adv-x="503" arabic-form="medial" 
d="M357 67h166v-67h-122v-20q0 -84 -44.5 -128.5t-118.5 -44.5q-79 0 -119 46.5t-40 129.5v17h-99v67h99v122q0 85 26 130q42 77 144 77q77 0 120.5 -49.5t43.5 -129.5q0 -91 -56 -150zM145 190v-123h40q83 0 123 42t40 109q0 52 -26.5 82.5t-73.5 30.5q-58 0 -84 -42
q-19 -31 -19 -99zM241 -130q47 0 72 29.5t25 83.5v66q-63 -49 -155 -49h-38v-17q0 -53 24 -83t72 -30z" />
    <glyph glyph-name="wawar.fina" unicode="&#x648;" horiz-adv-x="494" arabic-form="final" 
d="M514 67v-67h-109q-11 -57 -42.5 -100t-79.5 -69t-96.5 -41t-110.5 -26l-16 65q242 38 277 171h-78q-109 0 -162 57q-47 50 -47 138q0 89 47 145.5t138 56.5q69 0 110 -34q66 -53 66 -204v-92h103zM146 106q33 -39 122 -39h76v83q0 122 -43 159q-26 22 -69 22
q-53 0 -83.5 -36.5t-30.5 -98.5q0 -57 28 -90z" />
    <glyph glyph-name="alefMaksuraar.fina" unicode="&#x649;" horiz-adv-x="710" arabic-form="final" 
d="M718 67h12v-67h-40q-25 0 -45 10q3 -12 3 -28q0 -55 -41 -86t-124 -31h-197q-65 0 -112.5 19.5t-73.5 54t-37.5 74t-11.5 85.5v49h65v-49q0 -71 41.5 -118.5t139.5 -47.5h194q95 0 95 75q0 44 -35 91l-71 98h79l59 -81q21 -27 42.5 -37.5t57.5 -10.5z" />
    <glyph glyph-name="yehar.fina" unicode="&#x64a;" horiz-adv-x="710" arabic-form="final" 
d="M718 67h12v-67h-40q-25 0 -45 10q3 -12 3 -28q0 -55 -41 -86t-124 -31h-197q-65 0 -112.5 19.5t-73.5 54t-37.5 74t-11.5 85.5v49h65v-49q0 -71 41.5 -118.5t139.5 -47.5h194q95 0 95 75q0 44 -35 91l-71 98h79l59 -81q21 -27 42.5 -37.5t57.5 -10.5zM253 -211h72v-77
h-72v77zM395 -211h72v-77h-72v77z" />
    <glyph glyph-name="yehar.init" unicode="&#x64a;" horiz-adv-x="269" arabic-form="initial" 
d="M-20 0v67h39q113 0 113 114v147h66v-147q0 -87 -45.5 -134t-132.5 -47h-40zM32 -76h72v-77h-72v77zM174 -76h72v-77h-72v77z" />
    <glyph glyph-name="yehar.medi" unicode="&#x64a;" arabic-form="medial" 
d="M320 67h21v-67h-54q-48 0 -83.5 22t-50.5 58q-37 -80 -132 -80h-41v67h21q66 0 96 27.5t30 87.5v146h67v-145q0 -55 27 -85.5t99 -30.5zM46 -76h72v-77h-72v77zM188 -76h72v-77h-72v77z" />
    <glyph glyph-name=".notdef" horiz-adv-x="562" 
d="M472 712v-712h-382v712h382zM421 661h-280v-610h280v610z" />
    <glyph glyph-name=".null" horiz-adv-x="0" 
 />
    <glyph glyph-name=".null" horiz-adv-x="0" 
 />
    <glyph glyph-name="nonmarkingreturn" horiz-adv-x="333" 
 />
    <glyph glyph-name="CR" unicode="&#xd;" horiz-adv-x="249" 
 />
    <glyph glyph-name="space" unicode=" " horiz-adv-x="249" 
 />
    <glyph glyph-name="exclam" unicode="!" horiz-adv-x="316" 
d="M215 712l-11 -512h-62l-10 512h83zM216 84v-84h-86v84h86z" />
    <glyph glyph-name="quotedbl" unicode="&#x22;" horiz-adv-x="423" 
d="M335 712v-170h-79v170h79zM167 712v-170h-79v170h79z" />
    <glyph glyph-name="numbersign" unicode="#" horiz-adv-x="677" 
d="M548 713l-34 -215h87v-66h-97l-22 -141h89v-64h-99l-36 -227h-74l37 227h-161l-35 -227h-74l36 227h-89v64h100l23 141h-92v66h101l34 215h75l-35 -215h159l34 215h73zM431 432h-159l-23 -141h159z" />
    <glyph glyph-name="dollar" unicode="$" horiz-adv-x="597" 
d="M323 806v-89q106 -5 186 -77l-49 -49q-61 55 -140 60v-259q74 -12 105 -23.5t55 -31.5q61 -52 61 -141q0 -86 -59 -139.5t-159 -60.5v-110h-60v108q-70 3 -121.5 25t-98.5 69l52 52q73 -73 172 -77v265q-96 10 -150 56q-55 49 -55 133q0 85 54 139t147 61v89h60zM320 320
v-257q68 5 106.5 39.5t38.5 91.5q0 59 -35 89q-7 6 -13.5 10.5t-16 8.5t-14 6t-16.5 4t-15 3t-18 3t-17 2zM267 399v252q-62 -5 -96 -40t-34 -91q0 -54 32 -82q36 -30 98 -39z" />
    <glyph glyph-name="percent" unicode="%" horiz-adv-x="834" 
d="M220 0l334 712h60l-334 -712h-60zM199 344q-58 0 -96 36.5t-38 98.5v104q0 62 38 98.5t96 36.5t96.5 -36.5t38.5 -98.5v-104q0 -62 -38.5 -98.5t-96.5 -36.5zM199 396q37 0 57.5 23.5t20.5 66.5v91q0 43 -20.5 66t-57.5 23q-36 0 -56.5 -23.5t-20.5 -65.5v-91
q0 -43 20.5 -66.5t56.5 -23.5zM634 -6q-58 0 -96.5 36.5t-38.5 98.5v104q0 62 38.5 98.5t96.5 36.5t96.5 -36.5t38.5 -98.5v-104q0 -62 -38.5 -98.5t-96.5 -36.5zM634 46q37 0 57 23t20 66v91q0 43 -20 66.5t-57 23.5q-36 0 -56.5 -23.5t-20.5 -66.5v-91q0 -42 20.5 -65.5
t56.5 -23.5z" />
    <glyph glyph-name="ampersand" unicode="&#x26;" horiz-adv-x="705" 
d="M312 718q67 0 113 -43t46 -107q0 -70 -83 -127l-53 -36l182 -219q22 33 30.5 68t9.5 95h72q-2 -141 -66 -218l109 -131h-95l-64 78q-90 -84 -210 -84q-103 0 -164 56.5t-61 150.5q0 38 12 70t37 58.5t46.5 43t58.5 41.5q-25 30 -37 46.5t-26 47.5t-14 61q0 64 44.5 106.5
t112.5 42.5zM470 130l-196 236q-32 -22 -46.5 -33t-36 -32.5t-30.5 -45t-9 -52.5q0 -63 42 -102.5t108 -39.5q91 0 168 69zM312 651q-37 0 -60 -22.5t-23 -58.5q0 -24 14 -48t51 -69l38 26q31 22 48 41.5t17 47.5q0 36 -24.5 59.5t-60.5 23.5z" />
    <glyph glyph-name="quotesingle" unicode="'" horiz-adv-x="255" 
d="M167 712v-170h-79v170h79z" />
    <glyph glyph-name="parenleft" unicode="(" horiz-adv-x="296" 
d="M183 806l51 -51q-42 -39 -55 -65q-14 -25 -14 -79v-510q0 -51 14 -79q12 -23 55 -65l-51 -51q-55 55 -72 86q-21 41 -21 103v522q0 65 21 103q17 31 72 86z" />
    <glyph glyph-name="parenright" unicode=")" horiz-adv-x="296" 
d="M62 755l51 51q55 -55 72 -86q21 -41 21 -103v-522q0 -64 -21 -103q-17 -31 -72 -86l-51 51q42 39 55 65q14 25 14 79v510q0 51 -14 79q-12 23 -55 65z" />
    <glyph glyph-name="asterisk" unicode="*" horiz-adv-x="492" 
d="M275 712l-4 -137l117 71l28 -48l-120 -66l120 -65l-28 -49l-117 71l4 -137h-58l4 137l-116 -71l-29 49l120 65l-120 66l29 48l116 -71l-4 137h58z" />
    <glyph glyph-name="plus" unicode="+" horiz-adv-x="522" 
d="M295 479v-174h175v-67h-175v-176h-67v176h-176v67h176v174h67z" />
    <glyph glyph-name="comma" unicode="," horiz-adv-x="264" 
d="M176 88v-153l-88 -79v232h88z" />
    <glyph glyph-name="hyphen" unicode="-" horiz-adv-x="426" 
d="M350 304v-67h-274v67h274z" />
    <glyph glyph-name="period" unicode="." horiz-adv-x="270" 
d="M182 94v-94h-94v94h94z" />
    <glyph glyph-name="slash" unicode="/" horiz-adv-x="356" 
d="M356 786l-285 -860h-71l285 860h71z" />
    <glyph glyph-name="zero" unicode="0" horiz-adv-x="522" 
d="M261 -6q-85 0 -140 54t-55 142v332q0 88 55 142t140 54q84 0 139.5 -54.5t55.5 -141.5v-332q0 -87 -55.5 -141.5t-139.5 -54.5zM261 58q58 0 90.5 38t32.5 98v324q0 60 -32.5 98t-90.5 38t-90.5 -38t-32.5 -98v-324q0 -60 32.5 -98t90.5 -38z" />
    <glyph glyph-name="one" unicode="1" horiz-adv-x="522" 
d="M258 0v632l-133 -117v82l133 115h72v-712h-72z" />
    <glyph glyph-name="two" unicode="2" horiz-adv-x="522" 
d="M68 0v64l281 357q40 52 40 105q0 58 -33 93t-91 35q-54 0 -89 -32t-35 -97h-72q0 85 54 139t142 54t142 -52.5t54 -139.5q0 -41 -13 -73t-44 -71l-249 -318h306v-64h-393z" />
    <glyph glyph-name="three" unicode="3" horiz-adv-x="522" 
d="M251 -6q-89 0 -147 47.5t-62 140.5h72q4 -63 42.5 -93.5t94.5 -30.5q59 0 98 37t39 101q0 137 -140 137h-15v63h15q127 0 127 128q0 62 -35 96t-89 34q-56 0 -89.5 -32t-38.5 -87h-72q6 85 61.5 134t138.5 49q87 0 141.5 -53t54.5 -140q0 -113 -96 -157q109 -41 109 -173
q0 -95 -59 -148t-150 -53z" />
    <glyph glyph-name="four" unicode="4" horiz-adv-x="522" 
d="M324 0v113h-284v65l257 534h77l-257 -534h207v202h71v-202h87v-65h-87v-113h-71z" />
    <glyph glyph-name="five" unicode="5" horiz-adv-x="522" 
d="M263 -6q-92 0 -143 51q-44 45 -50 124h72q14 -111 121 -111q55 0 88 33q39 39 39 145q0 37 -4.5 64.5t-16.5 53.5t-37 40t-62 14q-46 0 -76.5 -19t-41.5 -51h-65v374h360v-64h-295v-226q44 49 128 49q78 0 123 -45q59 -59 59 -190q0 -64 -11 -109t-46 -80
q-53 -53 -142 -53z" />
    <glyph glyph-name="six" unicode="6" horiz-adv-x="522" 
d="M262 -6q-91 0 -144.5 56.5t-53.5 148.5q0 69 44 158l175 355h75l-163 -325q33 20 79 20q82 0 133.5 -57t51.5 -145q0 -92 -54 -151.5t-143 -59.5zM261 58q57 0 91.5 39t34.5 105q0 62 -33.5 103t-92.5 41q-57 0 -91 -39t-34 -105t34 -105t91 -39z" />
    <glyph glyph-name="seven" unicode="7" horiz-adv-x="522" 
d="M148 0l247 648h-248v-112h-71v176h395v-64l-247 -648h-76z" />
    <glyph glyph-name="eight" unicode="8" horiz-adv-x="522" 
d="M261 -6q-90 0 -150 56.5t-60 145.5q0 112 107 173q-93 53 -93 158q0 83 55.5 137t140.5 54t140.5 -54t55.5 -137q0 -105 -92 -158q106 -60 106 -173q0 -89 -60 -145.5t-150 -56.5zM261 58q59 0 98.5 40t39.5 99t-39.5 99t-98.5 40t-98.5 -40t-39.5 -99t39.5 -99t98.5 -40
zM261 399q55 0 89.5 35.5t34.5 91.5t-34.5 92t-89.5 36t-89.5 -36t-34.5 -92t34.5 -91.5t89.5 -35.5z" />
    <glyph glyph-name="nine" unicode="9" horiz-adv-x="522" 
d="M164 0l163 325q-31 -20 -79 -20q-82 0 -133.5 57t-51.5 145q0 92 54 151.5t143 59.5q91 0 144.5 -56.5t53.5 -148.5q0 -69 -44 -158l-175 -355h-75zM261 366q57 0 91 39t34 105t-34 105t-91 39t-91.5 -39t-34.5 -105q0 -62 33.5 -103t92.5 -41z" />
    <glyph glyph-name="colon" unicode=":" horiz-adv-x="297" 
d="M209 395v-94h-94v94h94zM209 94v-94h-94v94h94z" />
    <glyph glyph-name="semicolon" unicode=";" horiz-adv-x="297" 
d="M205 88v-153l-88 -79v232h88zM209 395v-94h-94v94h94z" />
    <glyph glyph-name="less" unicode="&#x3c;" horiz-adv-x="522" 
d="M426 471v-77l-250 -124l250 -124v-77l-331 168v66z" />
    <glyph glyph-name="equal" unicode="=" horiz-adv-x="522" 
d="M470 388v-67h-418v67h418zM470 218v-66h-418v66h418z" />
    <glyph glyph-name="greater" unicode="&#x3e;" horiz-adv-x="522" 
d="M96 471l331 -168v-66l-331 -168v77l250 124l-250 124v77z" />
    <glyph glyph-name="question" unicode="?" horiz-adv-x="497" 
d="M264 718q80 0 133.5 -51.5t53.5 -130.5q0 -55 -45 -121l-82 -118q-18 -27 -18 -58v-39h-72v40q0 50 31 94l81 117q33 49 33 85q0 51 -32.5 84.5t-82.5 33.5q-52 0 -84 -35t-32 -84h-72q0 77 54 130t134 53zM313 84v-84h-86v84h86z" />
    <glyph glyph-name="at" unicode="@" horiz-adv-x="740" 
d="M286 713h149q99 0 155 -56q57 -57 57 -161v-496h-71v58q-51 -64 -137 -64q-75 0 -119 42q-59 59 -59 202t59 202q42 42 118 42q88 0 137 -63v79q0 75 -39 114q-38 37 -111 37h-130q-73 0 -109 -37q-22 -23 -30.5 -48t-8.5 -66v-337q0 -47 11 -71t46 -50l-50 -49
q-45 34 -61.5 69t-16.5 100v336q0 102 57 161q55 56 153 56zM453 421q-37 0 -62.5 -14.5t-38 -42t-17 -57t-4.5 -69.5q0 -39 4.5 -68.5t17 -57t38 -42t62.5 -14.5t62 14.5t37.5 42t17.5 57t5 68.5t-5 69t-17.5 57.5t-37.5 42t-62 14.5z" />
    <glyph glyph-name="A" unicode="A" horiz-adv-x="611" 
d="M338 712l261 -712h-81l-57 161h-311l-57 -161h-81l262 712h64zM306 604l-133 -377h265z" />
    <glyph glyph-name="B" unicode="B" horiz-adv-x="668" 
d="M103 712h268q94 0 152 -51t58 -139q0 -55 -29.5 -97t-75.5 -59q53 -19 84.5 -63t31.5 -106q0 -95 -57.5 -146t-154.5 -51h-277v712zM373 329h-194v-261h194q66 0 104.5 35.5t38.5 95.5t-38.5 95t-104.5 35zM365 644h-186v-247h186q62 0 101 31.5t39 92.5t-38.5 92
t-101.5 31z" />
    <glyph glyph-name="C" unicode="C" horiz-adv-x="637" 
d="M325 718q97 0 162.5 -56t84.5 -156h-78q-14 67 -58.5 105.5t-110.5 38.5q-73 0 -123 -50q-32 -33 -41 -80.5t-9 -163.5t9 -163.5t41 -80.5q50 -50 123 -50q66 0 110.5 38.5t58.5 105.5h78q-19 -99 -85 -155.5t-162 -56.5q-108 0 -178 70q-47 47 -59 103t-12 189t12 189
t59 103q70 70 178 70z" />
    <glyph glyph-name="D" unicode="D" horiz-adv-x="673" 
d="M103 712h244q118 0 187 -75q29 -32 44 -82.5t17 -88.5t2 -110t-2 -110t-17 -88.5t-44 -82.5q-69 -75 -187 -75h-244v712zM334 644h-155v-576h155q93 0 140 52q22 23 32.5 64t12.5 75t2 97t-2 97t-12.5 75t-32.5 64q-47 52 -140 52z" />
    <glyph glyph-name="E" unicode="E" horiz-adv-x="600" 
d="M545 712v-68h-366v-251h312v-68h-312v-257h366v-68h-442v712h442z" />
    <glyph glyph-name="F" unicode="F" horiz-adv-x="580" 
d="M545 712v-68h-366v-262h312v-68h-312v-314h-76v712h442z" />
    <glyph glyph-name="G" unicode="G" horiz-adv-x="650" 
d="M325 718q99 0 166.5 -59.5t82.5 -153.5h-76q-15 68 -60.5 106.5t-112.5 38.5q-75 0 -123 -50q-32 -33 -41 -80.5t-9 -163.5t9 -163.5t41 -80.5q48 -50 123 -50q85 0 135 61q40 50 40 129v55h-175v65h251v-113q0 -63 -13.5 -104t-47.5 -79q-75 -82 -190 -82
q-108 0 -178 70q-47 47 -59 103t-12 189t12 189t59 103q70 70 178 70z" />
    <glyph glyph-name="H" unicode="H" horiz-adv-x="696" 
d="M593 712v-712h-76v325h-338v-325h-76v712h76v-319h338v319h76z" />
    <glyph glyph-name="I" unicode="I" horiz-adv-x="282" 
d="M179 712v-712h-76v712h76z" />
    <glyph glyph-name="J" unicode="J" horiz-adv-x="501" 
d="M408 712v-496q0 -102 -61.5 -162t-160.5 -60t-163 64l51 51q23 -23 47.5 -35t64.5 -12q70 0 108 42.5t38 121.5v486h76z" />
    <glyph glyph-name="K" unicode="K" horiz-adv-x="651" 
d="M604 712l-224 -275l256 -437h-90l-217 379l-150 -181v-198h-76v712h76v-410l333 410h92z" />
    <glyph glyph-name="L" unicode="L" horiz-adv-x="573" 
d="M179 712v-644h364v-68h-440v712h76z" />
    <glyph glyph-name="M" unicode="M" horiz-adv-x="816" 
d="M713 712v-712h-76v541l-195 -429h-65l-198 429v-541h-76v712h76l232 -505l226 505h76z" />
    <glyph glyph-name="N" unicode="N" horiz-adv-x="732" 
d="M629 712v-712h-72l-378 571v-571h-76v712h72l378 -569v569h76z" />
    <glyph glyph-name="O" unicode="O" horiz-adv-x="650" 
d="M325 718q107 0 177 -70q48 -48 60 -104t12 -188t-12 -188t-60 -104q-70 -70 -177 -70q-108 0 -178 70q-47 47 -59 103t-12 189t12 189t59 103q70 70 178 70zM325 650q-73 0 -123 -50q-32 -33 -41 -80.5t-9 -163.5t9 -163.5t41 -80.5q50 -50 123 -50t123 50q32 33 41 80.5
t9 163.5t-9 163.5t-41 80.5q-50 50 -123 50z" />
    <glyph glyph-name="P" unicode="P" horiz-adv-x="630" 
d="M103 712h265q98 0 159 -57.5t61 -151.5q0 -95 -61.5 -152.5t-158.5 -57.5h-189v-293h-76v712zM362 644h-183v-283h183q69 0 109.5 36.5t40.5 105.5t-40.5 105t-109.5 36z" />
    <glyph glyph-name="Q" unicode="Q" horiz-adv-x="650" 
d="M325 718q107 0 177 -70q48 -48 60 -104t12 -188q0 -117 -8.5 -171t-40.5 -96l78 -78l-46 -46l-78 78q-65 -49 -154 -49q-108 0 -178 70q-47 47 -59 103t-12 189t12 189t59 103q70 70 178 70zM325 650q-73 0 -123 -50q-32 -33 -41 -80.5t-9 -163.5t9 -163.5t41 -80.5
q50 -50 123 -50q57 0 103 32l-92 92l46 46l89 -89q17 29 22 74t5 139q0 116 -9 163.5t-41 80.5q-50 50 -123 50z" />
    <glyph glyph-name="R" unicode="R" horiz-adv-x="656" 
d="M103 712h273q94 0 152.5 -53.5t58.5 -144.5q0 -76 -42 -126t-113 -65l169 -323h-89l-162 316h-171v-316h-76v712zM369 644h-190v-261h190q65 0 103.5 33.5t38.5 96.5t-39 97t-103 34z" />
    <glyph glyph-name="S" unicode="S" horiz-adv-x="588" 
d="M289 718q67 0 116.5 -18.5t95.5 -59.5l-49 -49q-65 62 -166 62q-71 0 -111 -36t-40 -97q0 -55 32 -83q31 -27 93 -37l83 -13q50 -8 77.5 -18.5t51.5 -32.5q60 -52 60 -140q0 -93 -67 -147.5t-179 -54.5q-80 0 -137 22t-106 72l51 51q43 -43 87.5 -60t106.5 -17
q79 0 124 34.5t45 97.5q0 58 -35 89q-27 25 -93 35l-83 12q-84 13 -130 54q-55 49 -55 134q0 91 61.5 145.5t166.5 54.5z" />
    <glyph glyph-name="T" unicode="T" horiz-adv-x="548" 
d="M518 712v-68h-206v-644h-76v644h-206v68h488z" />
    <glyph glyph-name="U" unicode="U" horiz-adv-x="683" 
d="M590 712v-477q0 -106 -70.5 -173.5t-178.5 -67.5t-178 67.5t-70 173.5v477h76v-471q0 -81 47 -130t125 -49t125.5 49t47.5 130v471h76z" />
    <glyph glyph-name="V" unicode="V" horiz-adv-x="546" 
d="M538 712l-234 -712h-62l-234 712h80l185 -576l185 576h80z" />
    <glyph glyph-name="W" unicode="W" horiz-adv-x="854" 
d="M838 712l-182 -712h-71l-158 570l-158 -570h-71l-182 712h81l139 -574l157 574h68l157 -574l139 574h81z" />
    <glyph glyph-name="X" unicode="X" horiz-adv-x="551" 
d="M521 712l-205 -347l220 -365h-88l-173 299l-174 -299h-86l218 365l-204 347h88l158 -281l158 281h88z" />
    <glyph glyph-name="Y" unicode="Y" horiz-adv-x="514" 
d="M506 712l-210 -418v-294h-76v294l-212 418h82l168 -341l166 341h82z" />
    <glyph glyph-name="Z" unicode="Z" horiz-adv-x="556" 
d="M499 712v-64l-356 -580h356v-68h-442v64l356 580h-342v68h428z" />
    <glyph glyph-name="bracketleft" unicode="[" horiz-adv-x="307" 
d="M267 786v-64h-105v-732h105v-64h-177v860h177z" />
    <glyph glyph-name="backslash" unicode="\" horiz-adv-x="355" 
d="M71 783l284 -857h-71l-284 857h71z" />
    <glyph glyph-name="bracketright" unicode="]" horiz-adv-x="307" 
d="M217 786v-860h-177v64h105v732h-105v64h177z" />
    <glyph glyph-name="asciicircum" unicode="^" horiz-adv-x="522" 
d="M294 718l163 -305h-74l-122 228l-123 -228h-74l164 305h66z" />
    <glyph glyph-name="underscore" unicode="_" horiz-adv-x="537" 
d="M537 -114v-51h-537v51h537z" />
    <glyph glyph-name="grave" unicode="`" horiz-adv-x="530" 
d="M208 747l91 -153h-69l-105 153h83z" />
    <glyph glyph-name="a" unicode="a" horiz-adv-x="526" 
d="M244 498q197 0 197 -164v-334h-72v47q-29 -29 -61 -41t-81 -12q-93 0 -139 45q-37 36 -37 100q0 66 44.5 104t126.5 38h147v47q0 55 -29.5 81.5t-96.5 26.5q-46 0 -73.5 -13t-50.5 -44l-49 45q31 42 71 58t103 16zM369 227h-137q-111 0 -111 -87q0 -84 114 -84
q73 0 109 33q25 24 25 85v53z" />
    <glyph glyph-name="b" unicode="b" horiz-adv-x="545" 
d="M162 712v-277q51 63 139 63q77 0 120 -43q60 -60 60 -209q0 -148 -60 -209q-43 -43 -120 -43q-88 0 -139 65v-59h-72v712h72zM286 434q-31 0 -54 -10.5t-36.5 -27.5t-21 -43t-10 -50.5t-2.5 -56.5t2.5 -56.5t10 -50.5t21 -43t36.5 -27.5t54 -10.5q38 0 64 15t38 43.5
t16.5 58.5t4.5 71t-4.5 71t-16.5 58.5t-38 43.5t-64 15z" />
    <glyph glyph-name="c" unicode="c" horiz-adv-x="491" 
d="M282 498q52 0 88 -16t74 -57l-49 -46q-28 31 -53 43t-60 12q-75 0 -114 -56q-32 -45 -32 -132t32 -132q39 -56 114 -56q35 0 60 12.5t53 43.5l49 -47q-38 -41 -74 -57t-88 -16q-97 0 -157.5 65t-60.5 187t60.5 187t157.5 65z" />
    <glyph glyph-name="d" unicode="d" horiz-adv-x="545" 
d="M455 712v-712h-72v58q-51 -64 -139 -64q-77 0 -120 43q-60 60 -60 209q0 148 60 209q43 43 120 43q88 0 139 -64v278h72zM259 434q-38 0 -64 -15t-38 -43.5t-16.5 -58.5t-4.5 -71t4.5 -71t16.5 -58.5t38 -43.5t64 -15q31 0 54 10.5t36.5 27.5t21 43t10 50.5t2.5 56.5
t-2.5 56.5t-10 50.5t-21 43t-36.5 27.5t-54 10.5z" />
    <glyph glyph-name="e" unicode="e" horiz-adv-x="530" 
d="M265 498q95 0 148.5 -63.5t53.5 -175.5v-32h-332q0 -82 37 -126t108 -44q42 0 70.5 13t58.5 43l49 -43q-40 -40 -80 -58t-100 -18q-102 0 -158.5 62.5t-56.5 189.5q0 119 54 185.5t148 66.5zM265 437q-80 0 -115 -74q-12 -26 -15 -82h261q-4 57 -16 82q-35 74 -115 74z
" />
    <glyph glyph-name="f" unicode="f" horiz-adv-x="314" 
d="M283 713v-62h-39q-66 0 -66 -72v-87h105v-55h-105v-437h-72v437h-63v55h63v89q0 58 32.5 95t92.5 37h52z" />
    <glyph glyph-name="g" unicode="g" horiz-adv-x="543" 
d="M244 498q89 0 138 -64v58h71v-507q0 -93 -55 -152t-150 -59q-54 0 -90.5 15t-76.5 51l47 46q30 -27 54 -38t64 -11q68 0 101.5 42t33.5 109v77q-50 -64 -138 -64q-75 0 -119 44q-60 60 -60 205t60 205q43 43 120 43zM259 434q-38 0 -64 -15t-38 -43.5t-16.5 -57.5
t-4.5 -68t4.5 -68t16.5 -57.5t38 -43.5t64 -15t63.5 15t37.5 43.5t16.5 57.5t4.5 68t-4.5 68t-16.5 57.5t-37.5 43.5t-63.5 15z" />
    <glyph glyph-name="h" unicode="h" horiz-adv-x="562" 
d="M162 712v-275q54 61 138 61q81 0 127 -46q50 -49 50 -138v-314h-72v303q0 64 -31.5 97.5t-88.5 33.5t-90 -34t-33 -97v-303h-72v712h72z" />
    <glyph glyph-name="i" unicode="i" horiz-adv-x="253" 
d="M162 492v-492h-72v492h72zM167 713v-81h-81v81h81z" />
    <glyph glyph-name="j" unicode="j" horiz-adv-x="253" 
d="M162 492v-580q0 -59 -31.5 -95.5t-93.5 -36.5h-52v63h39q36 0 51 17.5t15 54.5v577h72zM167 713v-81h-81v81h81z" />
    <glyph glyph-name="k" unicode="k" horiz-adv-x="536" 
d="M162 712v-476l222 256h90l-167 -188l196 -304h-89l-156 252l-96 -110v-142h-72v712h72z" />
    <glyph glyph-name="l" unicode="l" horiz-adv-x="297" 
d="M160 712v-578q0 -37 15 -54.5t51 -17.5h39v-62h-52q-62 0 -93.5 36t-31.5 95v581h72z" />
    <glyph glyph-name="m" unicode="m" horiz-adv-x="879" 
d="M614 498q79 0 127 -46q53 -51 53 -137v-315h-72v303q0 64 -32 97.5t-89 33.5q-55 0 -89 -33t-34 -90v-311h-72v303q0 64 -32 97.5t-89 33.5t-90 -34t-33 -97v-303h-72v492h72v-54q52 60 139 60q105 0 151 -82q58 82 162 82z" />
    <glyph glyph-name="n" unicode="n" horiz-adv-x="563" 
d="M300 498q81 0 127 -46q51 -50 51 -138v-314h-72v303q0 64 -32 97.5t-89 33.5t-90 -34t-33 -97v-303h-72v492h71v-55q53 61 139 61z" />
    <glyph glyph-name="o" unicode="o" horiz-adv-x="530" 
d="M265 498q87 0 141 -56q60 -60 60 -196q0 -135 -60 -196q-54 -56 -141 -56t-141 56q-60 61 -60 196q0 136 60 196q54 56 141 56zM265 434q-53 0 -89 -36q-40 -40 -40 -152t40 -152q36 -36 89 -36q54 0 90 36q39 40 39 152q0 113 -39 152q-36 36 -90 36z" />
    <glyph glyph-name="p" unicode="p" horiz-adv-x="545" 
d="M301 498q77 0 120 -43q60 -60 60 -209q0 -148 -60 -209q-43 -43 -120 -43q-88 0 -139 64v-278h-72v712h72v-58q51 64 139 64zM286 434q-31 0 -54 -10.5t-36.5 -27.5t-21 -43t-10 -50.5t-2.5 -56.5t2.5 -56.5t10 -50.5t21 -43t36.5 -27.5t54 -10.5q38 0 64 15t38 43.5
t16.5 58.5t4.5 71t-4.5 71t-16.5 58.5t-38 43.5t-64 15z" />
    <glyph glyph-name="q" unicode="q" horiz-adv-x="545" 
d="M244 498q88 0 139 -65v59h72v-712h-72v277q-51 -63 -139 -63q-77 0 -120 43q-60 60 -60 209q0 148 60 209q43 43 120 43zM259 434q-38 0 -64 -15t-38 -43.5t-16.5 -58.5t-4.5 -71t4.5 -71t16.5 -58.5t38 -43.5t64 -15q31 0 54 10.5t36.5 27.5t21 43t10 50.5t2.5 56.5
t-2.5 56.5t-10 50.5t-21 43t-36.5 27.5t-54 10.5z" />
    <glyph glyph-name="r" unicode="r" horiz-adv-x="421" 
d="M300 498q72 0 118 -46l-53 -54q-20 20 -38.5 28t-46.5 8q-53 0 -85.5 -37.5t-32.5 -94.5v-302h-72v492h72v-60q20 31 57.5 48.5t80.5 17.5z" />
    <glyph glyph-name="s" unicode="s" horiz-adv-x="496" 
d="M246 498q111 0 177 -53l-47 -47q-51 39 -131 39q-53 0 -81.5 -21t-28.5 -60q0 -33 21 -50t67 -22l77 -7q70 -7 107.5 -37t37.5 -96q0 -70 -54.5 -110t-145.5 -40q-130 0 -202 71l48 48q54 -57 153 -57q62 0 96.5 22t34.5 65q0 65 -82 72l-81 7q-147 12 -147 132
q0 66 50 105t131 39z" />
    <glyph glyph-name="t" unicode="t" horiz-adv-x="332" 
d="M174 643v-151h105v-55h-105v-303q0 -72 67 -72h38v-62h-51q-61 0 -93.5 37t-32.5 95v305h-62v55h62v151h72z" />
    <glyph glyph-name="u" unicode="u" horiz-adv-x="563" 
d="M473 492v-492h-71v55q-53 -61 -139 -61q-81 0 -127 46q-51 50 -51 138v314h72v-303q0 -64 32 -97.5t89 -33.5t90 34t33 97v303h72z" />
    <glyph glyph-name="v" unicode="v" horiz-adv-x="447" 
d="M191 0l-180 492h78l135 -395l134 395h78l-181 -492h-64z" />
    <glyph glyph-name="w" unicode="w" horiz-adv-x="724" 
d="M168 0l-157 492h78l114 -395l128 395h63l127 -395l114 395h78l-156 -492h-67l-128 401l-128 -401h-66z" />
    <glyph glyph-name="x" unicode="x" horiz-adv-x="478" 
d="M438 492l-160 -241l167 -251h-87l-118 191l-120 -191h-87l167 251l-160 241h87l113 -182l111 182h87z" />
    <glyph glyph-name="y" unicode="y" horiz-adv-x="447" 
d="M436 492l-227 -620q-14 -39 -35 -58q-35 -34 -96 -34h-31v64h22q36 0 52.5 13t28.5 48l38 105l-177 482h78l135 -395l134 395h78z" />
    <glyph glyph-name="z" unicode="z" horiz-adv-x="459" 
d="M50 0v59l272 369h-257v64h342v-59l-273 -369h273v-64h-357z" />
    <glyph glyph-name="braceleft" unicode="{" horiz-adv-x="359" 
d="M308 786v-64h-23q-46 0 -59 -13q-14 -14 -14 -65v-188q0 -40 -16 -62.5t-47 -37.5q31 -15 47 -37.5t16 -62.5v-188q0 -51 14 -65q13 -13 59 -13h23v-64h-37q-71 0 -101 30t-30 99v191q0 42 -18 60t-45 18h-26v64h26q27 0 45 18t18 60v191q0 69 30 99t101 30h37z" />
    <glyph glyph-name="bar" unicode="|" horiz-adv-x="326" 
d="M199 786v-860h-72v860h72z" />
    <glyph glyph-name="braceright" unicode="}" horiz-adv-x="359" 
d="M51 786h37q71 0 101 -30t30 -99v-191q0 -42 18 -60t45 -18h26v-64h-26q-27 0 -45 -18t-18 -60v-191q0 -69 -30 -99t-101 -30h-37v64h23q46 0 59 13q14 14 14 65v188q0 40 16 62.5t47 37.5q-31 15 -47 37.5t-16 62.5v188q0 51 -14 65q-13 13 -59 13h-23v64z" />
    <glyph glyph-name="asciitilde" unicode="~" horiz-adv-x="539" 
d="M178 332q36 0 105 -31q52 -24 78 -24q22 0 39 8.5t45 36.5l45 -45q-41 -41 -67.5 -54.5t-61.5 -13.5q-37 0 -106 31q-52 24 -78 24q-22 0 -39 -8.5t-45 -36.5l-44 45q41 41 67.5 54.5t61.5 13.5z" />
    <glyph glyph-name="uni00A0" unicode="&#xa0;" horiz-adv-x="249" 
 />
    <glyph glyph-name="exclamdown" unicode="&#xa1;" horiz-adv-x="316" 
d="M174 292l11 -512h-83l10 512h62zM186 492v-84h-86v84h86z" />
    <glyph glyph-name="cent" unicode="&#xa2;" horiz-adv-x="496" 
d="M304 712v-95q44 -3 77.5 -20t67.5 -54l-49 -46q-45 51 -100 55v-372q55 4 100 55l49 -46q-34 -37 -67.5 -54t-77.5 -20v-115h-59v117q-84 12 -132.5 77.5t-48.5 171.5t48.5 171.5t132.5 77.5v97h59zM249 182v368q-49 -9 -80 -52q-33 -46 -33 -132t33 -132q31 -43 80 -52z
" />
    <glyph glyph-name="sterling" unicode="&#xa3;" horiz-adv-x="548" 
d="M333 718q99 0 163 -64l-52 -51q-24 24 -47.5 35.5t-63.5 11.5q-71 0 -109 -42.5t-38 -121.5v-102h147v-54h-147v-262h310v-68h-386v330h-63v54h63v112q0 101 62 161.5t161 60.5z" />
    <glyph glyph-name="currency" unicode="&#xa4;" horiz-adv-x="659" 
d="M535 521l46 -46l-73 -72q45 -59 45 -132q0 -75 -45 -134l73 -73l-46 -46l-74 73q-58 -42 -131 -42q-74 0 -132 42l-74 -73l-46 46l74 73q-46 60 -46 134q0 71 45 132l-73 72l46 46l73 -72q57 43 133 43q75 0 132 -43zM330 428q-63 0 -108 -45.5t-45 -111.5t45 -112
t108 -46t108 46t45 112t-45 111.5t-108 45.5z" />
    <glyph glyph-name="yen" unicode="&#xa5;" horiz-adv-x="514" 
d="M219 0v195h-154v50h154v49l-25 49h-129v50h104l-161 319h82l169 -341l165 341h82l-162 -319h105v-50h-130l-24 -49v-49h154v-50h-154v-195h-76z" />
    <glyph glyph-name="brokenbar" unicode="&#xa6;" horiz-adv-x="326" 
d="M199 786v-350h-72v350h72zM199 276v-350h-72v350h72z" />
    <glyph glyph-name="section" unicode="&#xa7;" horiz-adv-x="557" 
d="M279 718q79 0 129 -42.5t53 -114.5h-72q-7 93 -110 93q-51 0 -79.5 -25.5t-28.5 -73.5q0 -72 84 -96l78 -22q65 -19 101 -67t36 -116q0 -57 -30 -99.5t-74 -64.5q44 -16 70.5 -53.5t26.5 -90.5q0 -77 -52.5 -124.5t-131.5 -47.5q-78 0 -131.5 42t-57.5 119h73
q4 -46 34.5 -70.5t81.5 -24.5q52 0 81.5 27.5t29.5 77.5q0 35 -23.5 62.5t-64.5 39.5l-78 22q-66 19 -101.5 66.5t-35.5 116.5q0 58 30 100t75 64q-93 42 -93 138q0 73 50.5 118.5t129.5 45.5zM279 381q-53 0 -86 -36t-33 -92t33 -92t86 -36t86 36q32 35 32 92q0 60 -32 92
q-36 36 -86 36z" />
    <glyph glyph-name="dieresis" unicode="&#xa8;" horiz-adv-x="530" 
d="M407 691v-89h-72v89h72zM195 691v-89h-72v89h72z" />
    <glyph glyph-name="copyright" unicode="&#xa9;" horiz-adv-x="876" 
d="M438 -6q-150 0 -256 106t-106 256t106 256t256 106t256 -106t106 -256t-106 -256t-256 -106zM443 153q-85 0 -131.5 56.5t-46.5 146.5t47 147t131 57q72 0 131 -53l-37 -36q-44 39 -94 39q-64 0 -95 -46q-27 -40 -27 -108t27 -108q31 -45 95 -45q51 0 94 38l37 -36
q-56 -52 -131 -52zM438 48q126 0 215 90.5t89 217.5t-89 217.5t-215 90.5t-215 -90.5t-89 -217.5t89 -217.5t215 -90.5z" />
    <glyph glyph-name="ordfeminine" unicode="&#xaa;" horiz-adv-x="449" 
d="M365 319h-58v36q-42 -41 -111 -41q-74 0 -110 36q-30 32 -30 79q0 53 35.5 83.5t99.5 30.5h115v36q0 43 -22.5 63.5t-74.5 20.5q-37 0 -58.5 -9.5t-39.5 -34.5l-41 37q26 33 58.5 46.5t81.5 13.5q155 0 155 -132v-265zM306 458v40h-107q-84 0 -84 -67q0 -65 86 -65
q60 0 86 25q19 18 19 67z" />
    <glyph glyph-name="guillemotleft" unicode="&#xab;" horiz-adv-x="554" 
d="M476 480v-90l-121 -120l121 -121v-89l-210 210zM250 480v-90l-120 -120l120 -121v-89l-210 210z" />
    <glyph glyph-name="logicalnot" unicode="&#xac;" horiz-adv-x="522" 
d="M471 303v-204h-67v137h-353v67h420z" />
    <glyph glyph-name="uni00AD" unicode="&#xad;" horiz-adv-x="426" 
d="M350 304v-67h-274v67h274z" />
    <glyph glyph-name="registered" unicode="&#xae;" horiz-adv-x="876" 
d="M438 -6q-150 0 -256 106t-106 256t106 256t256 106t256 -106t106 -256t-106 -256t-256 -106zM438 47q126 0 215.5 90.5t89.5 218.5t-89.5 218.5t-215.5 90.5t-215 -90.5t-89 -218.5t89 -218.5t215 -90.5zM320 158v397h135q52 0 88.5 -34.5t36.5 -84.5q0 -83 -85 -109
l95 -169h-64l-91 162h-60v-162h-55zM375 367h74q33 0 54 19.5t21 49.5t-21 50t-54 20h-74v-139z" />
    <glyph glyph-name="macron" unicode="&#xaf;" horiz-adv-x="530" 
d="M416 670v-56h-301v56h301z" />
    <glyph glyph-name="degree" unicode="&#xb0;" horiz-adv-x="463" 
d="M232 721q68 0 116 -48t48 -116t-48 -116t-116 -48t-116.5 48t-48.5 116t48.5 116t116.5 48zM231 663q-44 0 -73.5 -30.5t-29.5 -75.5t30 -75.5t74 -30.5t73.5 30.5t29.5 75.5t-30 75.5t-74 30.5z" />
    <glyph glyph-name="plusminus" unicode="&#xb1;" horiz-adv-x="522" 
d="M295 531v-175h175v-67h-175v-177h-67v177h-176v67h176v175h67zM470 67v-67h-418v67h418z" />
    <glyph glyph-name="twosuperior" unicode="&#xb2;" horiz-adv-x="221" 
d="M27 434v37l110 126q18 19 18 45q0 17 -11.5 28.5t-30.5 11.5q-40 0 -43 -43h-43q2 37 25.5 58.5t60.5 21.5t60.5 -22t23.5 -55t-30 -66l-91 -105h115v-37h-164z" />
    <glyph glyph-name="threesuperior" unicode="&#xb3;" horiz-adv-x="221" 
d="M106 431q-37 0 -62 21t-27 59h43q1 -18 14.5 -29.5t31.5 -11.5q21 0 34 13t13 35t-13.5 33.5t-34.5 11.5h-9v33h9q19 0 31 11t12 30q0 20 -11.5 31t-30.5 11q-35 0 -42 -38h-43q4 37 26 57.5t59 20.5q38 0 61.5 -22t23.5 -55q0 -46 -39 -61q44 -19 44 -68
q0 -37 -25 -59.5t-65 -22.5z" />
    <glyph glyph-name="acute" unicode="&#xb4;" horiz-adv-x="530" 
d="M408 747l-105 -153h-69l91 153h83z" />
    <glyph glyph-name="mu" unicode="&#xb5;" horiz-adv-x="568" 
d="M90 -220v712h72v-303q0 -64 32 -97.5t89 -33.5t90 34t33 97v303h72v-492h-71v55q-53 -60 -135 -60q-72 0 -110 42v-257h-72z" />
    <glyph glyph-name="paragraph" unicode="&#xb6;" horiz-adv-x="603" 
d="M500 712v-932h-72v864h-117v-864h-72v546q-87 0 -142 57.5t-55 134.5q0 83 58.5 138.5t158.5 55.5h241z" />
    <glyph glyph-name="periodcentered" unicode="&#xb7;" horiz-adv-x="270" 
d="M182 317v-94h-94v94h94z" />
    <glyph glyph-name="cedilla" unicode="&#xb8;" horiz-adv-x="530" 
d="M165 -216l71 149h66l-59 -149h-78z" />
    <glyph glyph-name="onesuperior" unicode="&#xb9;" horiz-adv-x="230" 
d="M110 434v232l-60 -51v50l60 51h43v-282h-43z" />
    <glyph glyph-name="ordmasculine" unicode="&#xba;" horiz-adv-x="454" 
d="M387 515q0 -107 -48 -156q-44 -44 -112 -44t-112 44q-48 49 -48 156t48 156q45 45 112 45t112 -45q48 -49 48 -156zM328 515q0 88 -31 119q-28 28 -70 28t-70 -28q-30 -30 -30 -119q0 -88 30 -118q29 -29 70 -29t70 29q31 31 31 118z" />
    <glyph glyph-name="guillemotright" unicode="&#xbb;" horiz-adv-x="554" 
d="M304 480l210 -210l-210 -210v90l120 120l-120 121v89zM78 480l210 -210l-210 -210v90l121 120l-121 121v89z" />
    <glyph glyph-name="onequarter" unicode="&#xbc;" horiz-adv-x="846" 
d="M226 0l333 712h60l-333 -712h-60zM713 0v66h-169v50l151 311h57l-150 -311h111v107h55v-107h49v-50h-49v-66h-55zM158 285v363l-83 -73v66l83 71h57v-427h-57z" />
    <glyph glyph-name="onehalf" unicode="&#xbd;" horiz-adv-x="850" 
d="M226 0l333 712h60l-333 -712h-60zM556 0v52l175 202q25 28 25 63q0 27 -19.5 44.5t-52.5 17.5q-71 0 -71 -67h-56q0 54 34.5 86.5t92.5 32.5t93 -31t35 -83q0 -30 -9 -49.5t-33 -46.5l-149 -169h192v-52h-257zM158 285v363l-83 -73v66l83 71h57v-427h-57z" />
    <glyph glyph-name="threequarters" unicode="&#xbe;" horiz-adv-x="852" 
d="M232 0l333 712h60l-333 -712h-60zM719 0v66h-169v50l151 311h57l-150 -311h111v107h55v-107h49v-50h-49v-66h-55zM163 281q-58 0 -97 30.5t-41 88.5h58q1 -35 23.5 -51.5t56.5 -16.5t56.5 20t22.5 53q0 73 -82 73h-10v51h10q36 0 55.5 18t19.5 49q0 32 -21 50.5t-52 18.5
q-32 0 -51.5 -17t-22.5 -47h-57q4 53 40.5 84t90.5 31q58 0 94 -32.5t36 -86.5q0 -65 -60 -91q67 -26 67 -101q0 -59 -38.5 -91.5t-97.5 -32.5z" />
    <glyph glyph-name="questiondown" unicode="&#xbf;" horiz-adv-x="497" 
d="M263 292v-40q0 -50 -31 -94l-81 -117q-33 -49 -33 -85q0 -51 32.5 -84.5t82.5 -33.5q52 0 84 35t32 84h72q0 -77 -54 -130t-134 -53t-133.5 51.5t-53.5 130.5q0 55 45 121l82 118q18 27 18 58v39h72zM270 492v-84h-86v84h86z" />
    <glyph glyph-name="Agrave" unicode="&#xc0;" horiz-adv-x="611" 
d="M338 712l261 -712h-81l-57 161h-311l-57 -161h-81l262 712h64zM306 604l-133 -377h265zM256 934l91 -154h-69l-105 154h83z" />
    <glyph glyph-name="Aacute" unicode="&#xc1;" horiz-adv-x="611" 
d="M338 712l261 -712h-81l-57 161h-311l-57 -161h-81l262 712h64zM306 604l-133 -377h265zM440 934l-105 -154h-69l91 154h83z" />
    <glyph glyph-name="Acircumflex" unicode="&#xc2;" horiz-adv-x="611" 
d="M338 712l261 -712h-81l-57 161h-311l-57 -161h-81l262 712h64zM306 604l-133 -377h265zM340 933l126 -153h-69l-91 104l-90 -104h-69l125 153h68z" />
    <glyph glyph-name="Atilde" unicode="&#xc3;" horiz-adv-x="611" 
d="M338 712l261 -712h-81l-57 161h-311l-57 -161h-81l262 712h64zM306 604l-133 -377h265zM242 893q34 0 71 -24q32 -20 56 -20q27 0 59 32l37 -37q-51 -50 -95 -50q-32 0 -71 23q-36 21 -56 21q-27 0 -59 -32l-37 36q51 51 95 51z" />
    <glyph glyph-name="Adieresis" unicode="&#xc4;" horiz-adv-x="611" 
d="M338 712l261 -712h-81l-57 161h-311l-57 -161h-81l262 712h64zM306 604l-133 -377h265zM448 878v-89h-72v89h72zM236 878v-89h-72v89h72z" />
    <glyph glyph-name="Aring" unicode="&#xc5;" horiz-adv-x="611" 
d="M338 712l261 -712h-81l-57 161h-311l-57 -161h-81l262 712h64zM306 604l-133 -377h265zM306 987q49 0 83.5 -34.5t34.5 -83.5t-34.5 -84t-83.5 -35t-83.5 35t-34.5 84t34.5 83.5t83.5 34.5zM306 937q-29 0 -49 -20t-20 -48q0 -29 20.5 -49t48.5 -20t48.5 20t20.5 49
q0 28 -20 48t-49 20z" />
    <glyph glyph-name="AE" unicode="&#xc6;" horiz-adv-x="927" 
d="M872 712v-68h-366v-251h312v-68h-312v-257h366v-68h-442v169h-247l-88 -169h-83l376 712h484zM430 644l-214 -409h214v409z" />
    <glyph glyph-name="Ccedilla" unicode="&#xc7;" horiz-adv-x="637" 
d="M325 718q97 0 162.5 -56t84.5 -156h-78q-14 67 -58.5 105.5t-110.5 38.5q-73 0 -123 -50q-32 -33 -41 -80.5t-9 -163.5t9 -163.5t41 -80.5q50 -50 123 -50q66 0 110.5 38.5t58.5 105.5h78q-19 -99 -85 -155.5t-162 -56.5q-108 0 -178 70q-47 47 -59 103t-12 189t12 189
t59 103q70 70 178 70zM229 -216l70 147h63l-58 -147h-75z" />
    <glyph glyph-name="Egrave" unicode="&#xc8;" horiz-adv-x="600" 
d="M545 712v-68h-366v-251h312v-68h-312v-257h366v-68h-442v712h442zM261 934l91 -154h-69l-105 154h83z" />
    <glyph glyph-name="Eacute" unicode="&#xc9;" horiz-adv-x="600" 
d="M545 712v-68h-366v-251h312v-68h-312v-257h366v-68h-442v712h442zM445 934l-105 -154h-69l91 154h83z" />
    <glyph glyph-name="Ecircumflex" unicode="&#xca;" horiz-adv-x="600" 
d="M545 712v-68h-366v-251h312v-68h-312v-257h366v-68h-442v712h442zM345 933l126 -153h-69l-91 104l-90 -104h-69l125 153h68z" />
    <glyph glyph-name="Edieresis" unicode="&#xcb;" horiz-adv-x="600" 
d="M545 712v-68h-366v-251h312v-68h-312v-257h366v-68h-442v712h442zM453 878v-89h-72v89h72zM241 878v-89h-72v89h72z" />
    <glyph glyph-name="Igrave" unicode="&#xcc;" horiz-adv-x="282" 
d="M179 712v-712h-76v712h76zM90 934l91 -154h-69l-105 154h83z" />
    <glyph glyph-name="Iacute" unicode="&#xcd;" horiz-adv-x="282" 
d="M179 712v-712h-76v712h76zM274 934l-105 -154h-69l91 154h83z" />
    <glyph glyph-name="Icircumflex" unicode="&#xce;" horiz-adv-x="282" 
d="M179 712v-712h-76v712h76zM174 933l126 -153h-69l-91 104l-90 -104h-69l125 153h68z" />
    <glyph glyph-name="Idieresis" unicode="&#xcf;" horiz-adv-x="282" 
d="M179 712v-712h-76v712h76zM282 878v-89h-72v89h72zM70 878v-89h-72v89h72z" />
    <glyph glyph-name="Eth" unicode="&#xd0;" horiz-adv-x="687" 
d="M117 712h244q118 0 187 -75q29 -32 44 -82.5t17 -88.5t2 -110q0 -69 -2.5 -109.5t-17 -90.5t-43.5 -81q-69 -75 -187 -75h-244v330h-78v59h78v323zM348 644h-155v-255h162v-59h-162v-262h155q93 0 140 52q22 23 32.5 64t12.5 75t2 97t-2 97t-12.5 75t-32.5 64
q-47 52 -140 52z" />
    <glyph glyph-name="Ntilde" unicode="&#xd1;" horiz-adv-x="732" 
d="M629 712v-712h-72l-378 571v-571h-76v712h72l378 -569v569h76zM302 893q34 0 71 -24q32 -20 56 -20q27 0 59 32l37 -37q-51 -50 -95 -50q-32 0 -71 23q-36 21 -56 21q-27 0 -59 -32l-37 36q51 51 95 51z" />
    <glyph glyph-name="Ograve" unicode="&#xd2;" horiz-adv-x="650" 
d="M325 718q107 0 177 -70q48 -48 60 -104t12 -188t-12 -188t-60 -104q-70 -70 -177 -70q-108 0 -178 70q-47 47 -59 103t-12 189t12 189t59 103q70 70 178 70zM325 650q-73 0 -123 -50q-32 -33 -41 -80.5t-9 -163.5t9 -163.5t41 -80.5q50 -50 123 -50t123 50q32 33 41 80.5
t9 163.5t-9 163.5t-41 80.5q-50 50 -123 50zM275 934l91 -154h-69l-105 154h83z" />
    <glyph glyph-name="Oacute" unicode="&#xd3;" horiz-adv-x="650" 
d="M325 718q107 0 177 -70q48 -48 60 -104t12 -188t-12 -188t-60 -104q-70 -70 -177 -70q-108 0 -178 70q-47 47 -59 103t-12 189t12 189t59 103q70 70 178 70zM325 650q-73 0 -123 -50q-32 -33 -41 -80.5t-9 -163.5t9 -163.5t41 -80.5q50 -50 123 -50t123 50q32 33 41 80.5
t9 163.5t-9 163.5t-41 80.5q-50 50 -123 50zM459 934l-105 -154h-69l91 154h83z" />
    <glyph glyph-name="Ocircumflex" unicode="&#xd4;" horiz-adv-x="650" 
d="M325 718q107 0 177 -70q48 -48 60 -104t12 -188t-12 -188t-60 -104q-70 -70 -177 -70q-108 0 -178 70q-47 47 -59 103t-12 189t12 189t59 103q70 70 178 70zM325 650q-73 0 -123 -50q-32 -33 -41 -80.5t-9 -163.5t9 -163.5t41 -80.5q50 -50 123 -50t123 50q32 33 41 80.5
t9 163.5t-9 163.5t-41 80.5q-50 50 -123 50zM359 933l126 -153h-69l-91 104l-90 -104h-69l125 153h68z" />
    <glyph glyph-name="Otilde" unicode="&#xd5;" horiz-adv-x="650" 
d="M325 718q107 0 177 -70q48 -48 60 -104t12 -188t-12 -188t-60 -104q-70 -70 -177 -70q-108 0 -178 70q-47 47 -59 103t-12 189t12 189t59 103q70 70 178 70zM325 650q-73 0 -123 -50q-32 -33 -41 -80.5t-9 -163.5t9 -163.5t41 -80.5q50 -50 123 -50t123 50q32 33 41 80.5
t9 163.5t-9 163.5t-41 80.5q-50 50 -123 50zM261 893q33 0 71 -24q32 -20 56 -20q27 0 59 32l37 -37q-51 -50 -95 -50q-32 0 -71 23q-36 21 -56 21q-27 0 -59 -32l-37 36q51 51 95 51z" />
    <glyph glyph-name="Odieresis" unicode="&#xd6;" horiz-adv-x="650" 
d="M325 718q107 0 177 -70q48 -48 60 -104t12 -188t-12 -188t-60 -104q-70 -70 -177 -70q-108 0 -178 70q-47 47 -59 103t-12 189t12 189t59 103q70 70 178 70zM325 650q-73 0 -123 -50q-32 -33 -41 -80.5t-9 -163.5t9 -163.5t41 -80.5q50 -50 123 -50t123 50q32 33 41 80.5
t9 163.5t-9 163.5t-41 80.5q-50 50 -123 50zM467 878v-89h-72v89h72zM255 878v-89h-72v89h72z" />
    <glyph glyph-name="multiply" unicode="&#xd7;" horiz-adv-x="522" 
d="M412 466l45 -45l-152 -151l152 -151l-45 -45l-151 151l-151 -151l-45 45l151 151l-151 151l45 45l151 -152z" />
    <glyph glyph-name="Oslash" unicode="&#xd8;" horiz-adv-x="650" 
d="M574 356q0 -134 -11.5 -188.5t-60.5 -103.5q-70 -70 -177 -70q-70 0 -126 31l-33 -69h-65l50 104q-50 49 -62.5 105t-12.5 191q0 133 12 189t59 103q70 70 178 70q74 0 125 -31l34 69h65l-50 -105q51 -49 63 -105t12 -190zM152 356q0 -102 6.5 -149t28.5 -77l234 492
q-40 28 -96 28q-75 0 -123 -50q-32 -33 -41 -80.5t-9 -163.5zM498 356q0 102 -6.5 148.5t-28.5 77.5l-234 -492q42 -28 96 -28q73 0 123 50q32 33 41 80.5t9 163.5z" />
    <glyph glyph-name="Ugrave" unicode="&#xd9;" horiz-adv-x="683" 
d="M590 712v-477q0 -106 -70.5 -173.5t-178.5 -67.5t-178 67.5t-70 173.5v477h76v-471q0 -81 47 -130t125 -49t125.5 49t47.5 130v471h76zM292 934l91 -154h-69l-105 154h83z" />
    <glyph glyph-name="Uacute" unicode="&#xda;" horiz-adv-x="683" 
d="M590 712v-477q0 -106 -70.5 -173.5t-178.5 -67.5t-178 67.5t-70 173.5v477h76v-471q0 -81 47 -130t125 -49t125.5 49t47.5 130v471h76zM476 934l-105 -154h-69l91 154h83z" />
    <glyph glyph-name="Ucircumflex" unicode="&#xdb;" horiz-adv-x="683" 
d="M590 712v-477q0 -106 -70.5 -173.5t-178.5 -67.5t-178 67.5t-70 173.5v477h76v-471q0 -81 47 -130t125 -49t125.5 49t47.5 130v471h76zM376 933l126 -153h-69l-91 104l-90 -104h-69l125 153h68z" />
    <glyph glyph-name="Udieresis" unicode="&#xdc;" horiz-adv-x="683" 
d="M590 712v-477q0 -106 -70.5 -173.5t-178.5 -67.5t-178 67.5t-70 173.5v477h76v-471q0 -81 47 -130t125 -49t125.5 49t47.5 130v471h76zM484 878v-89h-72v89h72zM272 878v-89h-72v89h72z" />
    <glyph glyph-name="Yacute" unicode="&#xdd;" horiz-adv-x="514" 
d="M506 712l-210 -418v-294h-76v294l-212 418h82l168 -341l166 341h82zM391 934l-105 -154h-69l91 154h83z" />
    <glyph glyph-name="Thorn" unicode="&#xde;" horiz-adv-x="642" 
d="M179 712v-144h189q98 0 159 -57t61 -152t-61 -152t-159 -57h-189v-150h-76v712h76zM361 500h-182v-282h182q69 0 110 36t41 105t-41 105t-110 36z" />
    <glyph glyph-name="germandbls" unicode="&#xdf;" horiz-adv-x="556" 
d="M291 718q85 0 138.5 -42t53.5 -124q0 -79 -63 -119q36 -18 50 -45t14 -75v-172q0 -67 -40 -105q-39 -36 -103 -36h-53v62h39q33 0 59 20t26 67v168q0 42 -21 62q-21 21 -60 21h-43v61h36q40 0 64 24.5t24 65.5q0 47 -31 75q-32 29 -95 29q-124 0 -124 -135v-520h-72v523
q0 93 53.5 144t147.5 51z" />
    <glyph glyph-name="agrave" unicode="&#xe0;" horiz-adv-x="526" 
d="M244 498q197 0 197 -164v-334h-72v47q-29 -29 -61 -41t-81 -12q-93 0 -139 45q-37 36 -37 100q0 66 44.5 104t126.5 38h147v47q0 55 -29.5 81.5t-96.5 26.5q-46 0 -73.5 -13t-50.5 -44l-49 45q31 42 71 58t103 16zM369 227h-137q-111 0 -111 -87q0 -84 114 -84
q73 0 109 33q25 24 25 85v53zM195 747l91 -153h-69l-105 153h83z" />
    <glyph glyph-name="aacute" unicode="&#xe1;" horiz-adv-x="526" 
d="M244 498q197 0 197 -164v-334h-72v47q-29 -29 -61 -41t-81 -12q-93 0 -139 45q-37 36 -37 100q0 66 44.5 104t126.5 38h147v47q0 55 -29.5 81.5t-96.5 26.5q-46 0 -73.5 -13t-50.5 -44l-49 45q31 42 71 58t103 16zM369 227h-137q-111 0 -111 -87q0 -84 114 -84
q73 0 109 33q25 24 25 85v53zM395 747l-105 -153h-69l91 153h83z" />
    <glyph glyph-name="acircumflex" unicode="&#xe2;" horiz-adv-x="526" 
d="M244 498q197 0 197 -164v-334h-72v47q-29 -29 -61 -41t-81 -12q-93 0 -139 45q-37 36 -37 100q0 66 44.5 104t126.5 38h147v47q0 55 -29.5 81.5t-96.5 26.5q-46 0 -73.5 -13t-50.5 -44l-49 45q31 42 71 58t103 16zM369 227h-137q-111 0 -111 -87q0 -84 114 -84
q73 0 109 33q25 24 25 85v53zM286 747l126 -153h-69l-91 104l-90 -104h-69l125 153h68z" />
    <glyph glyph-name="atilde" unicode="&#xe3;" horiz-adv-x="526" 
d="M244 498q197 0 197 -164v-334h-72v47q-29 -29 -61 -41t-81 -12q-93 0 -139 45q-37 36 -37 100q0 66 44.5 104t126.5 38h147v47q0 55 -29.5 81.5t-96.5 26.5q-46 0 -73.5 -13t-50.5 -44l-49 45q31 42 71 58t103 16zM369 227h-137q-111 0 -111 -87q0 -84 114 -84
q73 0 109 33q25 24 25 85v53zM188 706q33 0 71 -24q35 -20 56 -20q27 0 59 32l37 -36q-50 -51 -95 -51q-30 0 -71 24q-35 20 -56 20q-27 0 -59 -32l-37 36q51 51 95 51z" />
    <glyph glyph-name="adieresis" unicode="&#xe4;" horiz-adv-x="526" 
d="M244 498q197 0 197 -164v-334h-72v47q-29 -29 -61 -41t-81 -12q-93 0 -139 45q-37 36 -37 100q0 66 44.5 104t126.5 38h147v47q0 55 -29.5 81.5t-96.5 26.5q-46 0 -73.5 -13t-50.5 -44l-49 45q31 42 71 58t103 16zM369 227h-137q-111 0 -111 -87q0 -84 114 -84
q73 0 109 33q25 24 25 85v53zM394 691v-89h-72v89h72zM182 691v-89h-72v89h72z" />
    <glyph glyph-name="aring" unicode="&#xe5;" horiz-adv-x="526" 
d="M244 498q197 0 197 -164v-334h-72v47q-29 -29 -61 -41t-81 -12q-93 0 -139 45q-37 36 -37 100q0 66 44.5 104t126.5 38h147v47q0 55 -29.5 81.5t-96.5 26.5q-46 0 -73.5 -13t-50.5 -44l-49 45q31 42 71 58t103 16zM369 227h-137q-111 0 -111 -87q0 -84 114 -84
q73 0 109 33q25 24 25 85v53zM252 805q49 0 83.5 -34.5t34.5 -83.5t-34.5 -84t-83.5 -35t-83.5 35t-34.5 84t34.5 83.5t83.5 34.5zM252 755q-29 0 -49 -20t-20 -48q0 -29 20.5 -49t48.5 -20t48.5 20t20.5 49q0 28 -20 48t-49 20z" />
    <glyph glyph-name="ae" unicode="&#xe6;" horiz-adv-x="837" 
d="M571 498q95 0 148.5 -64t53.5 -175v-32h-333q0 -82 37.5 -126t108.5 -44q42 0 70.5 13t57.5 43l50 -43q-40 -40 -81 -58t-101 -18q-121 0 -175 85q-32 -47 -73.5 -66t-106.5 -19q-93 0 -139 45q-37 36 -37 100q0 66 44.5 104t126.5 38h147v47q0 55 -29.5 81.5t-96.5 26.5
q-46 0 -73.5 -13t-50.5 -44l-49 45q31 42 71 58t103 16q132 0 173 -77q51 77 154 77zM369 227h-137q-111 0 -111 -87q0 -84 114 -84q73 0 109 33q25 24 25 85v53zM571 437q-40 0 -71 -20t-44 -54q-12 -31 -16 -82h261q-3 53 -15 82q-14 34 -45 54t-70 20z" />
    <glyph glyph-name="ccedilla" unicode="&#xe7;" horiz-adv-x="491" 
d="M282 498q52 0 88 -16t74 -57l-49 -46q-28 31 -53 43t-60 12q-75 0 -114 -56q-32 -45 -32 -132t32 -132q39 -56 114 -56q35 0 60 12.5t53 43.5l49 -47q-38 -41 -74 -57t-88 -16q-97 0 -157.5 65t-60.5 187t60.5 187t157.5 65zM165 -216l71 149h66l-59 -149h-78z" />
    <glyph glyph-name="egrave" unicode="&#xe8;" horiz-adv-x="530" 
d="M265 498q95 0 148.5 -63.5t53.5 -175.5v-32h-332q0 -82 37 -126t108 -44q42 0 70.5 13t58.5 43l49 -43q-40 -40 -80 -58t-100 -18q-102 0 -158.5 62.5t-56.5 189.5q0 119 54 185.5t148 66.5zM265 437q-80 0 -115 -74q-12 -26 -15 -82h261q-4 57 -16 82q-35 74 -115 74z
M208 747l91 -153h-69l-105 153h83z" />
    <glyph glyph-name="eacute" unicode="&#xe9;" horiz-adv-x="530" 
d="M265 498q95 0 148.5 -63.5t53.5 -175.5v-32h-332q0 -82 37 -126t108 -44q42 0 70.5 13t58.5 43l49 -43q-40 -40 -80 -58t-100 -18q-102 0 -158.5 62.5t-56.5 189.5q0 119 54 185.5t148 66.5zM265 437q-80 0 -115 -74q-12 -26 -15 -82h261q-4 57 -16 82q-35 74 -115 74z
M408 747l-105 -153h-69l91 153h83z" />
    <glyph glyph-name="ecircumflex" unicode="&#xea;" horiz-adv-x="530" 
d="M265 498q95 0 148.5 -63.5t53.5 -175.5v-32h-332q0 -82 37 -126t108 -44q42 0 70.5 13t58.5 43l49 -43q-40 -40 -80 -58t-100 -18q-102 0 -158.5 62.5t-56.5 189.5q0 119 54 185.5t148 66.5zM265 437q-80 0 -115 -74q-12 -26 -15 -82h261q-4 57 -16 82q-35 74 -115 74z
M299 747l126 -153h-69l-91 104l-90 -104h-69l125 153h68z" />
    <glyph glyph-name="edieresis" unicode="&#xeb;" horiz-adv-x="530" 
d="M265 498q95 0 148.5 -63.5t53.5 -175.5v-32h-332q0 -82 37 -126t108 -44q42 0 70.5 13t58.5 43l49 -43q-40 -40 -80 -58t-100 -18q-102 0 -158.5 62.5t-56.5 189.5q0 119 54 185.5t148 66.5zM265 437q-80 0 -115 -74q-12 -26 -15 -82h261q-4 57 -16 82q-35 74 -115 74z
M407 691v-89h-72v89h72zM195 691v-89h-72v89h72z" />
    <glyph glyph-name="igrave" unicode="&#xec;" horiz-adv-x="253" 
d="M69 747l91 -153h-69l-105 153h83zM162 492v-492h-72v492h72z" />
    <glyph glyph-name="iacute" unicode="&#xed;" horiz-adv-x="253" 
d="M162 492v-492h-72v492h72zM269 747l-105 -153h-69l91 153h83z" />
    <glyph glyph-name="icircumflex" unicode="&#xee;" horiz-adv-x="253" 
d="M160 747l126 -153h-69l-91 104l-90 -104h-69l125 153h68zM162 492v-492h-72v492h72z" />
    <glyph glyph-name="idieresis" unicode="&#xef;" horiz-adv-x="253" 
d="M268 691v-89h-72v89h72zM56 691v-89h-72v89h72zM162 492v-492h-72v492h72z" />
    <glyph glyph-name="eth" unicode="&#xf0;" horiz-adv-x="529" 
d="M263 714l47 -82h82v-52h-54l63 -111q39 -68 51 -113t12 -112q0 -135 -60 -195q-53 -55 -140 -55t-140 55q-59 59 -59 195t59 195q50 52 136 52q38 0 61 -10l-58 99h-116v52h88l-47 82h75zM264 431q-52 0 -88 -36q-39 -39 -39 -151q0 -111 39 -150q36 -36 88 -36
q53 0 89 36q39 39 39 150q0 112 -39 151q-36 36 -89 36z" />
    <glyph glyph-name="ntilde" unicode="&#xf1;" horiz-adv-x="563" 
d="M300 498q81 0 127 -46q51 -50 51 -138v-314h-72v303q0 64 -32 97.5t-89 33.5t-90 -34t-33 -97v-303h-72v492h71v-55q53 61 139 61zM220 706q34 0 71 -24q35 -20 56 -20q27 0 59 32l37 -36q-50 -51 -95 -51q-30 0 -71 24q-35 20 -56 20q-27 0 -59 -32l-37 36q51 51 95 51z
" />
    <glyph glyph-name="ograve" unicode="&#xf2;" horiz-adv-x="530" 
d="M265 498q87 0 141 -56q60 -60 60 -196q0 -135 -60 -196q-54 -56 -141 -56t-141 56q-60 61 -60 196q0 136 60 196q54 56 141 56zM265 434q-53 0 -89 -36q-40 -40 -40 -152t40 -152q36 -36 89 -36q54 0 90 36q39 40 39 152q0 113 -39 152q-36 36 -90 36zM208 747l91 -153
h-69l-105 153h83z" />
    <glyph glyph-name="oacute" unicode="&#xf3;" horiz-adv-x="530" 
d="M265 498q87 0 141 -56q60 -60 60 -196q0 -135 -60 -196q-54 -56 -141 -56t-141 56q-60 61 -60 196q0 136 60 196q54 56 141 56zM265 434q-53 0 -89 -36q-40 -40 -40 -152t40 -152q36 -36 89 -36q54 0 90 36q39 40 39 152q0 113 -39 152q-36 36 -90 36zM408 747l-105 -153
h-69l91 153h83z" />
    <glyph glyph-name="ocircumflex" unicode="&#xf4;" horiz-adv-x="530" 
d="M265 498q87 0 141 -56q60 -60 60 -196q0 -135 -60 -196q-54 -56 -141 -56t-141 56q-60 61 -60 196q0 136 60 196q54 56 141 56zM265 434q-53 0 -89 -36q-40 -40 -40 -152t40 -152q36 -36 89 -36q54 0 90 36q39 40 39 152q0 113 -39 152q-36 36 -90 36zM299 747l126 -153
h-69l-91 104l-90 -104h-69l125 153h68z" />
    <glyph glyph-name="otilde" unicode="&#xf5;" horiz-adv-x="530" 
d="M265 498q87 0 141 -56q60 -60 60 -196q0 -135 -60 -196q-54 -56 -141 -56t-141 56q-60 61 -60 196q0 136 60 196q54 56 141 56zM265 434q-53 0 -89 -36q-40 -40 -40 -152t40 -152q36 -36 89 -36q54 0 90 36q39 40 39 152q0 113 -39 152q-36 36 -90 36zM201 706
q34 0 71 -24q35 -20 56 -20q27 0 59 32l37 -36q-50 -51 -95 -51q-30 0 -71 24q-35 20 -56 20q-27 0 -59 -32l-37 36q51 51 95 51z" />
    <glyph glyph-name="odieresis" unicode="&#xf6;" horiz-adv-x="530" 
d="M265 498q87 0 141 -56q60 -60 60 -196q0 -135 -60 -196q-54 -56 -141 -56t-141 56q-60 61 -60 196q0 136 60 196q54 56 141 56zM265 434q-53 0 -89 -36q-40 -40 -40 -152t40 -152q36 -36 89 -36q54 0 90 36q39 40 39 152q0 113 -39 152q-36 36 -90 36zM407 691v-89h-72
v89h72zM195 691v-89h-72v89h72z" />
    <glyph glyph-name="divide" unicode="&#xf7;" horiz-adv-x="522" 
d="M471 303v-67h-420v67h420zM304 135v-86h-86v86h86zM304 490v-86h-86v86h86z" />
    <glyph glyph-name="oslash" unicode="&#xf8;" horiz-adv-x="530" 
d="M466 246q0 -135 -60 -196q-56 -56 -141 -56q-59 0 -105 27l-38 -65h-57l57 96q-58 60 -58 194q0 135 60 196q56 56 141 56q59 0 105 -27l39 65h56l-57 -96q58 -60 58 -194zM394 246q0 94 -24 133l-177 -299q31 -22 72 -22q54 0 90 36q39 39 39 152zM337 413
q-30 21 -72 21q-53 0 -89 -36q-40 -40 -40 -152q0 -92 25 -133z" />
    <glyph glyph-name="ugrave" unicode="&#xf9;" horiz-adv-x="563" 
d="M473 492v-492h-71v55q-53 -61 -139 -61q-81 0 -127 46q-51 50 -51 138v314h72v-303q0 -64 32 -97.5t89 -33.5t90 34t33 97v303h72zM222 747l91 -153h-69l-105 153h83z" />
    <glyph glyph-name="uacute" unicode="&#xfa;" horiz-adv-x="563" 
d="M473 492v-492h-71v55q-53 -61 -139 -61q-81 0 -127 46q-51 50 -51 138v314h72v-303q0 -64 32 -97.5t89 -33.5t90 34t33 97v303h72zM422 747l-105 -153h-69l91 153h83z" />
    <glyph glyph-name="ucircumflex" unicode="&#xfb;" horiz-adv-x="563" 
d="M473 492v-492h-71v55q-53 -61 -139 -61q-81 0 -127 46q-51 50 -51 138v314h72v-303q0 -64 32 -97.5t89 -33.5t90 34t33 97v303h72zM313 747l126 -153h-69l-91 104l-90 -104h-69l125 153h68z" />
    <glyph glyph-name="udieresis" unicode="&#xfc;" horiz-adv-x="563" 
d="M473 492v-492h-71v55q-53 -61 -139 -61q-81 0 -127 46q-51 50 -51 138v314h72v-303q0 -64 32 -97.5t89 -33.5t90 34t33 97v303h72zM421 691v-89h-72v89h72zM209 691v-89h-72v89h72z" />
    <glyph glyph-name="yacute" unicode="&#xfd;" horiz-adv-x="447" 
d="M436 492l-227 -620q-14 -39 -35 -58q-35 -34 -96 -34h-31v64h22q36 0 52.5 13t28.5 48l38 105l-177 482h78l135 -395l134 395h78zM367 747l-105 -153h-69l91 153h83z" />
    <glyph glyph-name="thorn" unicode="&#xfe;" horiz-adv-x="545" 
d="M162 712v-277q51 63 139 63q77 0 120 -43q60 -60 60 -209q0 -148 -60 -209q-43 -43 -120 -43q-88 0 -139 64v-278h-72v932h72zM286 434q-31 0 -54 -10.5t-36.5 -27.5t-21 -43t-10 -50.5t-2.5 -56.5t2.5 -56.5t10 -50.5t21 -43t36.5 -27.5t54 -10.5q38 0 64 15t38 43.5
t16.5 58.5t4.5 71t-4.5 71t-16.5 58.5t-38 43.5t-64 15z" />
    <glyph glyph-name="ydieresis" unicode="&#xff;" horiz-adv-x="447" 
d="M436 492l-227 -620q-14 -39 -35 -58q-35 -34 -96 -34h-31v64h22q36 0 52.5 13t28.5 48l38 105l-177 482h78l135 -395l134 395h78zM366 691v-89h-72v89h72zM154 691v-89h-72v89h72z" />
    <glyph glyph-name="dotlessi" unicode="&#x131;" horiz-adv-x="253" 
d="M162 492v-492h-72v492h72z" />
    <glyph glyph-name="IJ" unicode="&#x132;" horiz-adv-x="783" 
d="M179 712v-712h-76v712h76zM690 712v-496q0 -102 -61.5 -162t-160.5 -60t-163 64l51 51q23 -23 47.5 -35t64.5 -12q70 0 108 42.5t38 121.5v486h76z" />
    <glyph glyph-name="ij" unicode="&#x133;" horiz-adv-x="506" 
d="M162 492v-492h-72v492h72zM167 713v-81h-81v81h81zM415 492v-580q0 -59 -31.5 -95.5t-93.5 -36.5h-52v63h39q36 0 51 17.5t15 54.5v577h72zM420 713v-81h-81v81h81z" />
    <glyph glyph-name="Lslash" unicode="&#x141;" horiz-adv-x="582" 
d="M188 712v-309l155 98v-65l-155 -98v-270h364v-68h-440v290l-73 -46v65l73 47v356h76z" />
    <glyph glyph-name="lslash" unicode="&#x142;" horiz-adv-x="310" 
d="M172 712v-264l81 50v-62l-81 -50v-252q0 -37 15 -54.5t51 -17.5h40v-62h-52q-63 0 -94.5 36t-31.5 95v211l-63 -39v62l63 39v308h72z" />
    <glyph glyph-name="OE" unicode="&#x152;" horiz-adv-x="994" 
d="M324 718q108 0 173 -80v74h442v-68h-366v-251h313v-68h-313v-257h366v-68h-442v74q-65 -80 -173 -80q-107 0 -177 70q-47 47 -59 103t-12 189t12 189t59 103q70 70 177 70zM325 650q-75 0 -123 -50q-32 -33 -41 -80.5t-9 -163.5t9 -163.5t41 -80.5q48 -50 123 -50
q74 0 123 51q32 33 40.5 79t8.5 164t-8.5 164t-40.5 79q-49 51 -123 51z" />
    <glyph glyph-name="oe" unicode="&#x153;" horiz-adv-x="861" 
d="M798 227h-332q0 -82 37 -126t108 -44q42 0 70.5 13t58.5 43l49 -43q-40 -40 -80 -58t-100 -18q-124 0 -177 95q-23 -45 -67 -70t-100 -25q-87 0 -141 56q-60 61 -60 196q0 136 60 196q54 56 141 56q118 0 168 -95q49 95 163 95q95 0 148.5 -64t53.5 -174v-33zM727 281
q-4 57 -16 82q-35 74 -115 74t-115 -74q-12 -26 -15 -82h261zM394 246q0 113 -39 152q-36 36 -90 36q-53 0 -89 -36q-40 -40 -40 -152t40 -152q36 -36 89 -36q54 0 90 36q39 40 39 152z" />
    <glyph glyph-name="Scaron" unicode="&#x160;" horiz-adv-x="588" 
d="M289 718q67 0 116.5 -18.5t95.5 -59.5l-49 -49q-65 62 -166 62q-71 0 -111 -36t-40 -97q0 -55 32 -83q31 -27 93 -37l83 -13q50 -8 77.5 -18.5t51.5 -32.5q60 -52 60 -140q0 -93 -67 -147.5t-179 -54.5q-80 0 -137 22t-106 72l51 51q43 -43 87.5 -60t106.5 -17
q79 0 124 34.5t45 97.5q0 58 -35 89q-27 25 -93 35l-83 12q-84 13 -130 54q-55 49 -55 134q0 91 61.5 145.5t166.5 54.5zM449 933l-126 -153h-68l-125 153h69l90 -104l91 104h69z" />
    <glyph glyph-name="scaron" unicode="&#x161;" horiz-adv-x="496" 
d="M246 498q111 0 177 -53l-47 -47q-51 39 -131 39q-53 0 -81.5 -21t-28.5 -60q0 -33 21 -50t67 -22l77 -7q70 -7 107.5 -37t37.5 -96q0 -70 -54.5 -110t-145.5 -40q-130 0 -202 71l48 48q54 -57 153 -57q62 0 96.5 22t34.5 65q0 65 -82 72l-81 7q-147 12 -147 132
q0 66 50 105t131 39zM405 747l-125 -153h-68l-126 153h69l91 -105l90 105h69z" />
    <glyph glyph-name="Ydieresis" unicode="&#x178;" horiz-adv-x="514" 
d="M506 712l-210 -418v-294h-76v294l-212 418h82l168 -341l166 341h82zM399 878v-89h-72v89h72zM187 878v-89h-72v89h72z" />
    </font>
</defs>
</svg>
